  0
SECTION
  2
HEADER
  9
$ACADVER
  1
AC1009
  9
$EXTMIN
 10
0.0
 20
0.0
 30
0.0
  9
$EXTMAX
 10
1000.0
 20
1000.0
 30
0.0
  9
$FILLMODE
 70
 0
  9
$SPLFRAME
 70
 1
  0
ENDSEC
  0
SECTION
  2
TABLES
  0
TABLE
  2
LAYER
 70
1
  0
LAYER
  2
0
 70
     0
 62
     7
  6
CONTINUOUS
  0
ENDTAB
  0
ENDSEC
  0
SECTION
  2
ENTITIES
  0
LINE
  8
0
 62
     0
 10
226.697
 20
95.5075
 30
0.0
 11
226.853
 21
95.5008
 31
0.0
  0
LINE
  8
0
 62
     0
 10
226.853
 20
95.5008
 30
0.0
 11
227.008
 21
95.4828
 31
0.0
  0
LINE
  8
0
 62
     0
 10
227.008
 20
95.4828
 30
0.0
 11
227.163
 21
95.4525
 31
0.0
  0
LINE
  8
0
 62
     0
 10
227.163
 20
95.4525
 30
0.0
 11
227.314
 21
95.4098
 31
0.0
  0
LINE
  8
0
 62
     0
 10
227.314
 20
95.4098
 30
0.0
 11
227.462
 21
95.3548
 31
0.0
  0
LINE
  8
0
 62
     0
 10
227.462
 20
95.3548
 30
0.0
 11
227.604
 21
95.2899
 31
0.0
  0
LINE
  8
0
 62
     0
 10
227.604
 20
95.2899
 30
0.0
 11
227.74
 21
95.213
 31
0.0
  0
LINE
  8
0
 62
     0
 10
227.74
 20
95.213
 30
0.0
 11
227.871
 21
95.1258
 31
0.0
  0
LINE
  8
0
 62
     0
 10
227.871
 20
95.1258
 30
0.0
 11
227.995
 21
95.0281
 31
0.0
  0
LINE
  8
0
 62
     0
 10
227.995
 20
95.0281
 30
0.0
 11
228.111
 21
94.9219
 31
0.0
  0
LINE
  8
0
 62
     0
 10
228.111
 20
94.9219
 30
0.0
 11
228.217
 21
94.8062
 31
0.0
  0
LINE
  8
0
 62
     0
 10
228.217
 20
94.8062
 30
0.0
 11
228.315
 21
94.6838
 31
0.0
  0
LINE
  8
0
 62
     0
 10
228.315
 20
94.6838
 30
0.0
 11
228.402
 21
94.5526
 31
0.0
  0
LINE
  8
0
 62
     0
 10
228.402
 20
94.5526
 30
0.0
 11
228.479
 21
94.415
 31
0.0
  0
LINE
  8
0
 62
     0
 10
228.479
 20
94.415
 30
0.0
 11
228.544
 21
94.2728
 31
0.0
  0
LINE
  8
0
 62
     0
 10
228.544
 20
94.2728
 30
0.0
 11
228.599
 21
94.1268
 31
0.0
  0
LINE
  8
0
 62
     0
 10
228.599
 20
94.1268
 30
0.0
 11
228.64
 21
93.974
 31
0.0
  0
LINE
  8
0
 62
     0
 10
228.64
 20
93.974
 30
0.0
 11
228.672
 21
93.8209
 31
0.0
  0
LINE
  8
0
 62
     0
 10
228.672
 20
93.8209
 30
0.0
 11
228.69
 21
93.6639
 31
0.0
  0
LINE
  8
0
 62
     0
 10
228.69
 20
93.6639
 30
0.0
 11
228.696
 21
93.5069
 31
0.0
  0
LINE
  8
0
 62
     0
 10
228.696
 20
93.5069
 30
0.0
 11
228.696
 21
2.25723
 31
0.0
  0
LINE
  8
0
 62
     0
 10
228.696
 20
2.25723
 30
0.0
 11
228.69
 21
2.10013
 31
0.0
  0
LINE
  8
0
 62
     0
 10
228.69
 20
2.10013
 30
0.0
 11
228.672
 21
1.94441
 31
0.0
  0
LINE
  8
0
 62
     0
 10
228.672
 20
1.94441
 30
0.0
 11
228.64
 21
1.79007
 31
0.0
  0
LINE
  8
0
 62
     0
 10
228.64
 20
1.79007
 30
0.0
 11
228.599
 21
1.63849
 31
0.0
  0
LINE
  8
0
 62
     0
 10
228.599
 20
1.63849
 30
0.0
 11
228.544
 21
1.49104
 31
0.0
  0
LINE
  8
0
 62
     0
 10
228.544
 20
1.49104
 30
0.0
 11
228.479
 21
1.3491
 31
0.0
  0
LINE
  8
0
 62
     0
 10
228.479
 20
1.3491
 30
0.0
 11
228.402
 21
1.21267
 31
0.0
  0
LINE
  8
0
 62
     0
 10
228.402
 20
1.21267
 30
0.0
 11
228.315
 21
1.08176
 31
0.0
  0
LINE
  8
0
 62
     0
 10
228.315
 20
1.08176
 30
0.0
 11
228.217
 21
0.957735
 31
0.0
  0
LINE
  8
0
 62
     0
 10
228.217
 20
0.957735
 30
0.0
 11
228.111
 21
0.841982
 31
0.0
  0
LINE
  8
0
 62
     0
 10
228.111
 20
0.841982
 30
0.0
 11
227.995
 21
0.735873
 31
0.0
  0
LINE
  8
0
 62
     0
 10
227.995
 20
0.735873
 30
0.0
 11
227.871
 21
0.63803
 31
0.0
  0
LINE
  8
0
 62
     0
 10
227.871
 20
0.63803
 30
0.0
 11
227.74
 21
0.551215
 31
0.0
  0
LINE
  8
0
 62
     0
 10
227.74
 20
0.551215
 30
0.0
 11
227.604
 21
0.474045
 31
0.0
  0
LINE
  8
0
 62
     0
 10
227.604
 20
0.474045
 30
0.0
 11
227.462
 21
0.409279
 31
0.0
  0
LINE
  8
0
 62
     0
 10
227.462
 20
0.409279
 30
0.0
 11
227.314
 21
0.354157
 31
0.0
  0
LINE
  8
0
 62
     0
 10
227.314
 20
0.354157
 30
0.0
 11
227.163
 21
0.312815
 31
0.0
  0
LINE
  8
0
 62
     0
 10
227.163
 20
0.312815
 30
0.0
 11
227.008
 21
0.28112
 31
0.0
  0
LINE
  8
0
 62
     0
 10
227.008
 20
0.28112
 30
0.0
 11
226.853
 21
0.263205
 31
0.0
  0
LINE
  8
0
 62
     0
 10
226.853
 20
0.263205
 30
0.0
 11
226.697
 21
0.257693
 31
0.0
  0
LINE
  8
0
 62
     0
 10
226.697
 20
0.257693
 30
0.0
 11
2.096
 21
0.257693
 31
0.0
  0
LINE
  8
0
 62
     0
 10
2.096
 20
0.257693
 30
0.0
 11
1.9389
 21
0.263205
 31
0.0
  0
LINE
  8
0
 62
     0
 10
1.9389
 20
0.263205
 30
0.0
 11
1.7818
 21
0.28112
 31
0.0
  0
LINE
  8
0
 62
     0
 10
1.7818
 20
0.28112
 30
0.0
 11
1.62884
 21
0.312815
 31
0.0
  0
LINE
  8
0
 62
     0
 10
1.62884
 20
0.312815
 30
0.0
 11
1.47588
 21
0.354157
 31
0.0
  0
LINE
  8
0
 62
     0
 10
1.47588
 20
0.354157
 30
0.0
 11
1.32981
 21
0.409279
 31
0.0
  0
LINE
  8
0
 62
     0
 10
1.32981
 20
0.409279
 30
0.0
 11
1.18787
 21
0.474045
 31
0.0
  0
LINE
  8
0
 62
     0
 10
1.18787
 20
0.474045
 30
0.0
 11
1.05006
 21
0.551215
 31
0.0
  0
LINE
  8
0
 62
     0
 10
1.05006
 20
0.551215
 30
0.0
 11
0.919152
 21
0.63803
 31
0.0
  0
LINE
  8
0
 62
     0
 10
0.919152
 20
0.63803
 30
0.0
 11
0.796505
 21
0.735873
 31
0.0
  0
LINE
  8
0
 62
     0
 10
0.796505
 20
0.735873
 30
0.0
 11
0.680752
 21
0.841982
 31
0.0
  0
LINE
  8
0
 62
     0
 10
0.680752
 20
0.841982
 30
0.0
 11
0.574643
 21
0.957735
 31
0.0
  0
LINE
  8
0
 62
     0
 10
0.574643
 20
0.957735
 30
0.0
 11
0.4768
 21
1.08176
 31
0.0
  0
LINE
  8
0
 62
     0
 10
0.4768
 20
1.08176
 30
0.0
 11
0.389985
 21
1.21267
 31
0.0
  0
LINE
  8
0
 62
     0
 10
0.389985
 20
1.21267
 30
0.0
 11
0.312815
 21
1.3491
 31
0.0
  0
LINE
  8
0
 62
     0
 10
0.312815
 20
1.3491
 30
0.0
 11
0.248047
 21
1.49104
 31
0.0
  0
LINE
  8
0
 62
     0
 10
0.248047
 20
1.49104
 30
0.0
 11
0.192925
 21
1.63849
 31
0.0
  0
LINE
  8
0
 62
     0
 10
0.192925
 20
1.63849
 30
0.0
 11
0.150206
 21
1.79007
 31
0.0
  0
LINE
  8
0
 62
     0
 10
0.150206
 20
1.79007
 30
0.0
 11
0.119889
 21
1.94441
 31
0.0
  0
LINE
  8
0
 62
     0
 10
0.119889
 20
1.94441
 30
0.0
 11
0.101975
 21
2.10013
 31
0.0
  0
LINE
  8
0
 62
     0
 10
0.101975
 20
2.10013
 30
0.0
 11
0.0950846
 21
2.25585
 31
0.0
  0
LINE
  8
0
 62
     0
 10
0.0950846
 20
2.25585
 30
0.0
 11
0.0950846
 21
93.5069
 31
0.0
  0
LINE
  8
0
 62
     0
 10
0.0950846
 20
93.5069
 30
0.0
 11
0.101975
 21
93.6639
 31
0.0
  0
LINE
  8
0
 62
     0
 10
0.101975
 20
93.6639
 30
0.0
 11
0.119889
 21
93.8209
 31
0.0
  0
LINE
  8
0
 62
     0
 10
0.119889
 20
93.8209
 30
0.0
 11
0.150206
 21
93.974
 31
0.0
  0
LINE
  8
0
 62
     0
 10
0.150206
 20
93.974
 30
0.0
 11
0.192925
 21
94.1268
 31
0.0
  0
LINE
  8
0
 62
     0
 10
0.192925
 20
94.1268
 30
0.0
 11
0.248047
 21
94.2728
 31
0.0
  0
LINE
  8
0
 62
     0
 10
0.248047
 20
94.2728
 30
0.0
 11
0.312815
 21
94.415
 31
0.0
  0
LINE
  8
0
 62
     0
 10
0.312815
 20
94.415
 30
0.0
 11
0.389985
 21
94.5526
 31
0.0
  0
LINE
  8
0
 62
     0
 10
0.389985
 20
94.5526
 30
0.0
 11
0.4768
 21
94.6838
 31
0.0
  0
LINE
  8
0
 62
     0
 10
0.4768
 20
94.6838
 30
0.0
 11
0.574643
 21
94.8062
 31
0.0
  0
LINE
  8
0
 62
     0
 10
0.574643
 20
94.8062
 30
0.0
 11
0.680752
 21
94.9219
 31
0.0
  0
LINE
  8
0
 62
     0
 10
0.680752
 20
94.9219
 30
0.0
 11
0.796505
 21
95.0281
 31
0.0
  0
LINE
  8
0
 62
     0
 10
0.796505
 20
95.0281
 30
0.0
 11
0.919152
 21
95.1258
 31
0.0
  0
LINE
  8
0
 62
     0
 10
0.919152
 20
95.1258
 30
0.0
 11
1.05006
 21
95.213
 31
0.0
  0
LINE
  8
0
 62
     0
 10
1.05006
 20
95.213
 30
0.0
 11
1.18787
 21
95.2899
 31
0.0
  0
LINE
  8
0
 62
     0
 10
1.18787
 20
95.2899
 30
0.0
 11
1.32981
 21
95.3548
 31
0.0
  0
LINE
  8
0
 62
     0
 10
1.32981
 20
95.3548
 30
0.0
 11
1.47588
 21
95.4098
 31
0.0
  0
LINE
  8
0
 62
     0
 10
1.47588
 20
95.4098
 30
0.0
 11
1.62884
 21
95.4525
 31
0.0
  0
LINE
  8
0
 62
     0
 10
1.62884
 20
95.4525
 30
0.0
 11
1.7818
 21
95.4828
 31
0.0
  0
LINE
  8
0
 62
     0
 10
1.7818
 20
95.4828
 30
0.0
 11
1.9389
 21
95.5008
 31
0.0
  0
LINE
  8
0
 62
     0
 10
1.9389
 20
95.5008
 30
0.0
 11
2.096
 21
95.5075
 31
0.0
  0
LINE
  8
0
 62
     0
 10
2.096
 20
95.5075
 30
0.0
 11
226.697
 21
95.5075
 31
0.0
  0
LINE
  8
0
 62
     0
 10
212.171
 20
16.7817
 30
0.0
 11
212.171
 21
15.7827
 31
0.0
  0
LINE
  8
0
 62
     0
 10
212.171
 20
15.7827
 30
0.0
 11
211.37
 21
15.7827
 31
0.0
  0
LINE
  8
0
 62
     0
 10
211.37
 20
15.7827
 30
0.0
 11
211.37
 21
12.6835
 31
0.0
  0
LINE
  8
0
 62
     0
 10
211.37
 20
12.6835
 30
0.0
 11
212.171
 21
12.6835
 31
0.0
  0
LINE
  8
0
 62
     0
 10
212.171
 20
12.6835
 30
0.0
 11
212.171
 21
6.88192
 31
0.0
  0
LINE
  8
0
 62
     0
 10
212.171
 20
6.88192
 30
0.0
 11
211.37
 21
6.88192
 31
0.0
  0
LINE
  8
0
 62
     0
 10
211.37
 20
6.88192
 30
0.0
 11
211.37
 21
3.78273
 31
0.0
  0
LINE
  8
0
 62
     0
 10
211.37
 20
3.78273
 30
0.0
 11
212.171
 21
3.78273
 31
0.0
  0
LINE
  8
0
 62
     0
 10
212.171
 20
3.78273
 30
0.0
 11
212.171
 21
2.78226
 31
0.0
  0
LINE
  8
0
 62
     0
 10
212.171
 20
2.78226
 30
0.0
 11
226.17
 21
2.78226
 31
0.0
  0
LINE
  8
0
 62
     0
 10
226.17
 20
2.78226
 30
0.0
 11
226.17
 21
3.78273
 31
0.0
  0
LINE
  8
0
 62
     0
 10
226.17
 20
3.78273
 30
0.0
 11
226.971
 21
3.78273
 31
0.0
  0
LINE
  8
0
 62
     0
 10
226.971
 20
3.78273
 30
0.0
 11
226.971
 21
6.88192
 31
0.0
  0
LINE
  8
0
 62
     0
 10
226.971
 20
6.88192
 30
0.0
 11
226.17
 21
6.88192
 31
0.0
  0
LINE
  8
0
 62
     0
 10
226.17
 20
6.88192
 30
0.0
 11
226.17
 21
12.6835
 31
0.0
  0
LINE
  8
0
 62
     0
 10
226.17
 20
12.6835
 30
0.0
 11
226.971
 21
12.6835
 31
0.0
  0
LINE
  8
0
 62
     0
 10
226.971
 20
12.6835
 30
0.0
 11
226.971
 21
15.7827
 31
0.0
  0
LINE
  8
0
 62
     0
 10
226.971
 20
15.7827
 30
0.0
 11
226.17
 21
15.7827
 31
0.0
  0
LINE
  8
0
 62
     0
 10
226.17
 20
15.7827
 30
0.0
 11
226.17
 21
16.7817
 31
0.0
  0
LINE
  8
0
 62
     0
 10
226.17
 20
16.7817
 30
0.0
 11
212.171
 21
16.7817
 31
0.0
  0
LINE
  8
0
 62
     0
 10
193.121
 20
16.7817
 30
0.0
 11
193.121
 21
15.7827
 31
0.0
  0
LINE
  8
0
 62
     0
 10
193.121
 20
15.7827
 30
0.0
 11
192.32
 21
15.7827
 31
0.0
  0
LINE
  8
0
 62
     0
 10
192.32
 20
15.7827
 30
0.0
 11
192.32
 21
12.6835
 31
0.0
  0
LINE
  8
0
 62
     0
 10
192.32
 20
12.6835
 30
0.0
 11
193.121
 21
12.6835
 31
0.0
  0
LINE
  8
0
 62
     0
 10
193.121
 20
12.6835
 30
0.0
 11
193.121
 21
6.88192
 31
0.0
  0
LINE
  8
0
 62
     0
 10
193.121
 20
6.88192
 30
0.0
 11
192.32
 21
6.88192
 31
0.0
  0
LINE
  8
0
 62
     0
 10
192.32
 20
6.88192
 30
0.0
 11
192.32
 21
3.78273
 31
0.0
  0
LINE
  8
0
 62
     0
 10
192.32
 20
3.78273
 30
0.0
 11
193.121
 21
3.78273
 31
0.0
  0
LINE
  8
0
 62
     0
 10
193.121
 20
3.78273
 30
0.0
 11
193.121
 21
2.78226
 31
0.0
  0
LINE
  8
0
 62
     0
 10
193.121
 20
2.78226
 30
0.0
 11
207.12
 21
2.78226
 31
0.0
  0
LINE
  8
0
 62
     0
 10
207.12
 20
2.78226
 30
0.0
 11
207.12
 21
3.78273
 31
0.0
  0
LINE
  8
0
 62
     0
 10
207.12
 20
3.78273
 30
0.0
 11
207.921
 21
3.78273
 31
0.0
  0
LINE
  8
0
 62
     0
 10
207.921
 20
3.78273
 30
0.0
 11
207.921
 21
6.88192
 31
0.0
  0
LINE
  8
0
 62
     0
 10
207.921
 20
6.88192
 30
0.0
 11
207.12
 21
6.88192
 31
0.0
  0
LINE
  8
0
 62
     0
 10
207.12
 20
6.88192
 30
0.0
 11
207.12
 21
12.6835
 31
0.0
  0
LINE
  8
0
 62
     0
 10
207.12
 20
12.6835
 30
0.0
 11
207.921
 21
12.6835
 31
0.0
  0
LINE
  8
0
 62
     0
 10
207.921
 20
12.6835
 30
0.0
 11
207.921
 21
15.7827
 31
0.0
  0
LINE
  8
0
 62
     0
 10
207.921
 20
15.7827
 30
0.0
 11
207.12
 21
15.7827
 31
0.0
  0
LINE
  8
0
 62
     0
 10
207.12
 20
15.7827
 30
0.0
 11
207.12
 21
16.7817
 31
0.0
  0
LINE
  8
0
 62
     0
 10
207.12
 20
16.7817
 30
0.0
 11
193.121
 21
16.7817
 31
0.0
  0
LINE
  8
0
 62
     0
 10
174.071
 20
16.7817
 30
0.0
 11
174.071
 21
15.7827
 31
0.0
  0
LINE
  8
0
 62
     0
 10
174.071
 20
15.7827
 30
0.0
 11
173.27
 21
15.7827
 31
0.0
  0
LINE
  8
0
 62
     0
 10
173.27
 20
15.7827
 30
0.0
 11
173.27
 21
12.6835
 31
0.0
  0
LINE
  8
0
 62
     0
 10
173.27
 20
12.6835
 30
0.0
 11
174.071
 21
12.6835
 31
0.0
  0
LINE
  8
0
 62
     0
 10
174.071
 20
12.6835
 30
0.0
 11
174.071
 21
6.88192
 31
0.0
  0
LINE
  8
0
 62
     0
 10
174.071
 20
6.88192
 30
0.0
 11
173.27
 21
6.88192
 31
0.0
  0
LINE
  8
0
 62
     0
 10
173.27
 20
6.88192
 30
0.0
 11
173.27
 21
3.78273
 31
0.0
  0
LINE
  8
0
 62
     0
 10
173.27
 20
3.78273
 30
0.0
 11
174.071
 21
3.78273
 31
0.0
  0
LINE
  8
0
 62
     0
 10
174.071
 20
3.78273
 30
0.0
 11
174.071
 21
2.78226
 31
0.0
  0
LINE
  8
0
 62
     0
 10
174.071
 20
2.78226
 30
0.0
 11
188.07
 21
2.78226
 31
0.0
  0
LINE
  8
0
 62
     0
 10
188.07
 20
2.78226
 30
0.0
 11
188.07
 21
3.78273
 31
0.0
  0
LINE
  8
0
 62
     0
 10
188.07
 20
3.78273
 30
0.0
 11
188.871
 21
3.78273
 31
0.0
  0
LINE
  8
0
 62
     0
 10
188.871
 20
3.78273
 30
0.0
 11
188.871
 21
6.88192
 31
0.0
  0
LINE
  8
0
 62
     0
 10
188.871
 20
6.88192
 30
0.0
 11
188.07
 21
6.88192
 31
0.0
  0
LINE
  8
0
 62
     0
 10
188.07
 20
6.88192
 30
0.0
 11
188.07
 21
12.6835
 31
0.0
  0
LINE
  8
0
 62
     0
 10
188.07
 20
12.6835
 30
0.0
 11
188.871
 21
12.6835
 31
0.0
  0
LINE
  8
0
 62
     0
 10
188.871
 20
12.6835
 30
0.0
 11
188.871
 21
15.7827
 31
0.0
  0
LINE
  8
0
 62
     0
 10
188.871
 20
15.7827
 30
0.0
 11
188.07
 21
15.7827
 31
0.0
  0
LINE
  8
0
 62
     0
 10
188.07
 20
15.7827
 30
0.0
 11
188.07
 21
16.7817
 31
0.0
  0
LINE
  8
0
 62
     0
 10
188.07
 20
16.7817
 30
0.0
 11
174.071
 21
16.7817
 31
0.0
  0
LINE
  8
0
 62
     0
 10
155.021
 20
16.7817
 30
0.0
 11
155.021
 21
15.7827
 31
0.0
  0
LINE
  8
0
 62
     0
 10
155.021
 20
15.7827
 30
0.0
 11
154.22
 21
15.7827
 31
0.0
  0
LINE
  8
0
 62
     0
 10
154.22
 20
15.7827
 30
0.0
 11
154.22
 21
12.6835
 31
0.0
  0
LINE
  8
0
 62
     0
 10
154.22
 20
12.6835
 30
0.0
 11
155.021
 21
12.6835
 31
0.0
  0
LINE
  8
0
 62
     0
 10
155.021
 20
12.6835
 30
0.0
 11
155.021
 21
6.88192
 31
0.0
  0
LINE
  8
0
 62
     0
 10
155.021
 20
6.88192
 30
0.0
 11
154.22
 21
6.88192
 31
0.0
  0
LINE
  8
0
 62
     0
 10
154.22
 20
6.88192
 30
0.0
 11
154.22
 21
3.78273
 31
0.0
  0
LINE
  8
0
 62
     0
 10
154.22
 20
3.78273
 30
0.0
 11
155.021
 21
3.78273
 31
0.0
  0
LINE
  8
0
 62
     0
 10
155.021
 20
3.78273
 30
0.0
 11
155.021
 21
2.78226
 31
0.0
  0
LINE
  8
0
 62
     0
 10
155.021
 20
2.78226
 30
0.0
 11
169.02
 21
2.78226
 31
0.0
  0
LINE
  8
0
 62
     0
 10
169.02
 20
2.78226
 30
0.0
 11
169.02
 21
3.78273
 31
0.0
  0
LINE
  8
0
 62
     0
 10
169.02
 20
3.78273
 30
0.0
 11
169.821
 21
3.78273
 31
0.0
  0
LINE
  8
0
 62
     0
 10
169.821
 20
3.78273
 30
0.0
 11
169.821
 21
6.88192
 31
0.0
  0
LINE
  8
0
 62
     0
 10
169.821
 20
6.88192
 30
0.0
 11
169.02
 21
6.88192
 31
0.0
  0
LINE
  8
0
 62
     0
 10
169.02
 20
6.88192
 30
0.0
 11
169.02
 21
12.6835
 31
0.0
  0
LINE
  8
0
 62
     0
 10
169.02
 20
12.6835
 30
0.0
 11
169.821
 21
12.6835
 31
0.0
  0
LINE
  8
0
 62
     0
 10
169.821
 20
12.6835
 30
0.0
 11
169.821
 21
15.7827
 31
0.0
  0
LINE
  8
0
 62
     0
 10
169.821
 20
15.7827
 30
0.0
 11
169.02
 21
15.7827
 31
0.0
  0
LINE
  8
0
 62
     0
 10
169.02
 20
15.7827
 30
0.0
 11
169.02
 21
16.7817
 31
0.0
  0
LINE
  8
0
 62
     0
 10
169.02
 20
16.7817
 30
0.0
 11
155.021
 21
16.7817
 31
0.0
  0
LINE
  8
0
 62
     0
 10
135.971
 20
16.7817
 30
0.0
 11
135.971
 21
15.7827
 31
0.0
  0
LINE
  8
0
 62
     0
 10
135.971
 20
15.7827
 30
0.0
 11
135.17
 21
15.7827
 31
0.0
  0
LINE
  8
0
 62
     0
 10
135.17
 20
15.7827
 30
0.0
 11
135.17
 21
12.6835
 31
0.0
  0
LINE
  8
0
 62
     0
 10
135.17
 20
12.6835
 30
0.0
 11
135.971
 21
12.6835
 31
0.0
  0
LINE
  8
0
 62
     0
 10
135.971
 20
12.6835
 30
0.0
 11
135.971
 21
6.88192
 31
0.0
  0
LINE
  8
0
 62
     0
 10
135.971
 20
6.88192
 30
0.0
 11
135.17
 21
6.88192
 31
0.0
  0
LINE
  8
0
 62
     0
 10
135.17
 20
6.88192
 30
0.0
 11
135.17
 21
3.78273
 31
0.0
  0
LINE
  8
0
 62
     0
 10
135.17
 20
3.78273
 30
0.0
 11
135.971
 21
3.78273
 31
0.0
  0
LINE
  8
0
 62
     0
 10
135.971
 20
3.78273
 30
0.0
 11
135.971
 21
2.78226
 31
0.0
  0
LINE
  8
0
 62
     0
 10
135.971
 20
2.78226
 30
0.0
 11
149.97
 21
2.78226
 31
0.0
  0
LINE
  8
0
 62
     0
 10
149.97
 20
2.78226
 30
0.0
 11
149.97
 21
3.78273
 31
0.0
  0
LINE
  8
0
 62
     0
 10
149.97
 20
3.78273
 30
0.0
 11
150.771
 21
3.78273
 31
0.0
  0
LINE
  8
0
 62
     0
 10
150.771
 20
3.78273
 30
0.0
 11
150.771
 21
6.88192
 31
0.0
  0
LINE
  8
0
 62
     0
 10
150.771
 20
6.88192
 30
0.0
 11
149.97
 21
6.88192
 31
0.0
  0
LINE
  8
0
 62
     0
 10
149.97
 20
6.88192
 30
0.0
 11
149.97
 21
12.6835
 31
0.0
  0
LINE
  8
0
 62
     0
 10
149.97
 20
12.6835
 30
0.0
 11
150.771
 21
12.6835
 31
0.0
  0
LINE
  8
0
 62
     0
 10
150.771
 20
12.6835
 30
0.0
 11
150.771
 21
15.7827
 31
0.0
  0
LINE
  8
0
 62
     0
 10
150.771
 20
15.7827
 30
0.0
 11
149.97
 21
15.7827
 31
0.0
  0
LINE
  8
0
 62
     0
 10
149.97
 20
15.7827
 30
0.0
 11
149.97
 21
16.7817
 31
0.0
  0
LINE
  8
0
 62
     0
 10
149.97
 20
16.7817
 30
0.0
 11
135.971
 21
16.7817
 31
0.0
  0
LINE
  8
0
 62
     0
 10
116.92
 20
16.7817
 30
0.0
 11
116.92
 21
15.7827
 31
0.0
  0
LINE
  8
0
 62
     0
 10
116.92
 20
15.7827
 30
0.0
 11
116.119
 21
15.7827
 31
0.0
  0
LINE
  8
0
 62
     0
 10
116.119
 20
15.7827
 30
0.0
 11
116.119
 21
12.6835
 31
0.0
  0
LINE
  8
0
 62
     0
 10
116.119
 20
12.6835
 30
0.0
 11
116.92
 21
12.6835
 31
0.0
  0
LINE
  8
0
 62
     0
 10
116.92
 20
12.6835
 30
0.0
 11
116.92
 21
6.88192
 31
0.0
  0
LINE
  8
0
 62
     0
 10
116.92
 20
6.88192
 30
0.0
 11
116.119
 21
6.88192
 31
0.0
  0
LINE
  8
0
 62
     0
 10
116.119
 20
6.88192
 30
0.0
 11
116.119
 21
3.78273
 31
0.0
  0
LINE
  8
0
 62
     0
 10
116.119
 20
3.78273
 30
0.0
 11
116.92
 21
3.78273
 31
0.0
  0
LINE
  8
0
 62
     0
 10
116.92
 20
3.78273
 30
0.0
 11
116.92
 21
2.78226
 31
0.0
  0
LINE
  8
0
 62
     0
 10
116.92
 20
2.78226
 30
0.0
 11
130.92
 21
2.78226
 31
0.0
  0
LINE
  8
0
 62
     0
 10
130.92
 20
2.78226
 30
0.0
 11
130.92
 21
3.78273
 31
0.0
  0
LINE
  8
0
 62
     0
 10
130.92
 20
3.78273
 30
0.0
 11
131.721
 21
3.78273
 31
0.0
  0
LINE
  8
0
 62
     0
 10
131.721
 20
3.78273
 30
0.0
 11
131.721
 21
6.88192
 31
0.0
  0
LINE
  8
0
 62
     0
 10
131.721
 20
6.88192
 30
0.0
 11
130.92
 21
6.88192
 31
0.0
  0
LINE
  8
0
 62
     0
 10
130.92
 20
6.88192
 30
0.0
 11
130.92
 21
12.6835
 31
0.0
  0
LINE
  8
0
 62
     0
 10
130.92
 20
12.6835
 30
0.0
 11
131.721
 21
12.6835
 31
0.0
  0
LINE
  8
0
 62
     0
 10
131.721
 20
12.6835
 30
0.0
 11
131.721
 21
15.7827
 31
0.0
  0
LINE
  8
0
 62
     0
 10
131.721
 20
15.7827
 30
0.0
 11
130.92
 21
15.7827
 31
0.0
  0
LINE
  8
0
 62
     0
 10
130.92
 20
15.7827
 30
0.0
 11
130.92
 21
16.7817
 31
0.0
  0
LINE
  8
0
 62
     0
 10
130.92
 20
16.7817
 30
0.0
 11
116.92
 21
16.7817
 31
0.0
  0
LINE
  8
0
 62
     0
 10
97.8697
 20
16.7817
 30
0.0
 11
97.8697
 21
15.7827
 31
0.0
  0
LINE
  8
0
 62
     0
 10
97.8697
 20
15.7827
 30
0.0
 11
97.0703
 21
15.7827
 31
0.0
  0
LINE
  8
0
 62
     0
 10
97.0703
 20
15.7827
 30
0.0
 11
97.0703
 21
12.6835
 31
0.0
  0
LINE
  8
0
 62
     0
 10
97.0703
 20
12.6835
 30
0.0
 11
97.8697
 21
12.6835
 31
0.0
  0
LINE
  8
0
 62
     0
 10
97.8697
 20
12.6835
 30
0.0
 11
97.8697
 21
6.88192
 31
0.0
  0
LINE
  8
0
 62
     0
 10
97.8697
 20
6.88192
 30
0.0
 11
97.0703
 21
6.88192
 31
0.0
  0
LINE
  8
0
 62
     0
 10
97.0703
 20
6.88192
 30
0.0
 11
97.0703
 21
3.78273
 31
0.0
  0
LINE
  8
0
 62
     0
 10
97.0703
 20
3.78273
 30
0.0
 11
97.8697
 21
3.78273
 31
0.0
  0
LINE
  8
0
 62
     0
 10
97.8697
 20
3.78273
 30
0.0
 11
97.8697
 21
2.78226
 31
0.0
  0
LINE
  8
0
 62
     0
 10
97.8697
 20
2.78226
 30
0.0
 11
111.869
 21
2.78226
 31
0.0
  0
LINE
  8
0
 62
     0
 10
111.869
 20
2.78226
 30
0.0
 11
111.869
 21
3.78273
 31
0.0
  0
LINE
  8
0
 62
     0
 10
111.869
 20
3.78273
 30
0.0
 11
112.67
 21
3.78273
 31
0.0
  0
LINE
  8
0
 62
     0
 10
112.67
 20
3.78273
 30
0.0
 11
112.67
 21
6.88192
 31
0.0
  0
LINE
  8
0
 62
     0
 10
112.67
 20
6.88192
 30
0.0
 11
111.869
 21
6.88192
 31
0.0
  0
LINE
  8
0
 62
     0
 10
111.869
 20
6.88192
 30
0.0
 11
111.869
 21
12.6835
 31
0.0
  0
LINE
  8
0
 62
     0
 10
111.869
 20
12.6835
 30
0.0
 11
112.67
 21
12.6835
 31
0.0
  0
LINE
  8
0
 62
     0
 10
112.67
 20
12.6835
 30
0.0
 11
112.67
 21
15.7827
 31
0.0
  0
LINE
  8
0
 62
     0
 10
112.67
 20
15.7827
 30
0.0
 11
111.869
 21
15.7827
 31
0.0
  0
LINE
  8
0
 62
     0
 10
111.869
 20
15.7827
 30
0.0
 11
111.869
 21
16.7817
 31
0.0
  0
LINE
  8
0
 62
     0
 10
111.869
 20
16.7817
 30
0.0
 11
97.8697
 21
16.7817
 31
0.0
  0
LINE
  8
0
 62
     0
 10
78.8211
 20
16.7817
 30
0.0
 11
78.8211
 21
15.7827
 31
0.0
  0
LINE
  8
0
 62
     0
 10
78.8211
 20
15.7827
 30
0.0
 11
78.0203
 21
15.7827
 31
0.0
  0
LINE
  8
0
 62
     0
 10
78.0203
 20
15.7827
 30
0.0
 11
78.0203
 21
12.6835
 31
0.0
  0
LINE
  8
0
 62
     0
 10
78.0203
 20
12.6835
 30
0.0
 11
78.8211
 21
12.6835
 31
0.0
  0
LINE
  8
0
 62
     0
 10
78.8211
 20
12.6835
 30
0.0
 11
78.8211
 21
6.88192
 31
0.0
  0
LINE
  8
0
 62
     0
 10
78.8211
 20
6.88192
 30
0.0
 11
78.0203
 21
6.88192
 31
0.0
  0
LINE
  8
0
 62
     0
 10
78.0203
 20
6.88192
 30
0.0
 11
78.0203
 21
3.78273
 31
0.0
  0
LINE
  8
0
 62
     0
 10
78.0203
 20
3.78273
 30
0.0
 11
78.8211
 21
3.78273
 31
0.0
  0
LINE
  8
0
 62
     0
 10
78.8211
 20
3.78273
 30
0.0
 11
78.8211
 21
2.78226
 31
0.0
  0
LINE
  8
0
 62
     0
 10
78.8211
 20
2.78226
 30
0.0
 11
92.8204
 21
2.78226
 31
0.0
  0
LINE
  8
0
 62
     0
 10
92.8204
 20
2.78226
 30
0.0
 11
92.8204
 21
3.78273
 31
0.0
  0
LINE
  8
0
 62
     0
 10
92.8204
 20
3.78273
 30
0.0
 11
93.6198
 21
3.78273
 31
0.0
  0
LINE
  8
0
 62
     0
 10
93.6198
 20
3.78273
 30
0.0
 11
93.6198
 21
6.88192
 31
0.0
  0
LINE
  8
0
 62
     0
 10
93.6198
 20
6.88192
 30
0.0
 11
92.8204
 21
6.88192
 31
0.0
  0
LINE
  8
0
 62
     0
 10
92.8204
 20
6.88192
 30
0.0
 11
92.8204
 21
12.6835
 31
0.0
  0
LINE
  8
0
 62
     0
 10
92.8204
 20
12.6835
 30
0.0
 11
93.6198
 21
12.6835
 31
0.0
  0
LINE
  8
0
 62
     0
 10
93.6198
 20
12.6835
 30
0.0
 11
93.6198
 21
15.7827
 31
0.0
  0
LINE
  8
0
 62
     0
 10
93.6198
 20
15.7827
 30
0.0
 11
92.8204
 21
15.7827
 31
0.0
  0
LINE
  8
0
 62
     0
 10
92.8204
 20
15.7827
 30
0.0
 11
92.8204
 21
16.7817
 31
0.0
  0
LINE
  8
0
 62
     0
 10
92.8204
 20
16.7817
 30
0.0
 11
78.8211
 21
16.7817
 31
0.0
  0
LINE
  8
0
 62
     0
 10
59.7711
 20
16.7817
 30
0.0
 11
59.7711
 21
15.7827
 31
0.0
  0
LINE
  8
0
 62
     0
 10
59.7711
 20
15.7827
 30
0.0
 11
58.9703
 21
15.7827
 31
0.0
  0
LINE
  8
0
 62
     0
 10
58.9703
 20
15.7827
 30
0.0
 11
58.9703
 21
12.6835
 31
0.0
  0
LINE
  8
0
 62
     0
 10
58.9703
 20
12.6835
 30
0.0
 11
59.7711
 21
12.6835
 31
0.0
  0
LINE
  8
0
 62
     0
 10
59.7711
 20
12.6835
 30
0.0
 11
59.7711
 21
6.88192
 31
0.0
  0
LINE
  8
0
 62
     0
 10
59.7711
 20
6.88192
 30
0.0
 11
58.9703
 21
6.88192
 31
0.0
  0
LINE
  8
0
 62
     0
 10
58.9703
 20
6.88192
 30
0.0
 11
58.9703
 21
3.78273
 31
0.0
  0
LINE
  8
0
 62
     0
 10
58.9703
 20
3.78273
 30
0.0
 11
59.7711
 21
3.78273
 31
0.0
  0
LINE
  8
0
 62
     0
 10
59.7711
 20
3.78273
 30
0.0
 11
59.7711
 21
2.78226
 31
0.0
  0
LINE
  8
0
 62
     0
 10
59.7711
 20
2.78226
 30
0.0
 11
73.7704
 21
2.78226
 31
0.0
  0
LINE
  8
0
 62
     0
 10
73.7704
 20
2.78226
 30
0.0
 11
73.7704
 21
3.78273
 31
0.0
  0
LINE
  8
0
 62
     0
 10
73.7704
 20
3.78273
 30
0.0
 11
74.5712
 21
3.78273
 31
0.0
  0
LINE
  8
0
 62
     0
 10
74.5712
 20
3.78273
 30
0.0
 11
74.5712
 21
6.88192
 31
0.0
  0
LINE
  8
0
 62
     0
 10
74.5712
 20
6.88192
 30
0.0
 11
73.7704
 21
6.88192
 31
0.0
  0
LINE
  8
0
 62
     0
 10
73.7704
 20
6.88192
 30
0.0
 11
73.7704
 21
12.6835
 31
0.0
  0
LINE
  8
0
 62
     0
 10
73.7704
 20
12.6835
 30
0.0
 11
74.5712
 21
12.6835
 31
0.0
  0
LINE
  8
0
 62
     0
 10
74.5712
 20
12.6835
 30
0.0
 11
74.5712
 21
15.7827
 31
0.0
  0
LINE
  8
0
 62
     0
 10
74.5712
 20
15.7827
 30
0.0
 11
73.7704
 21
15.7827
 31
0.0
  0
LINE
  8
0
 62
     0
 10
73.7704
 20
15.7827
 30
0.0
 11
73.7704
 21
16.7817
 31
0.0
  0
LINE
  8
0
 62
     0
 10
73.7704
 20
16.7817
 30
0.0
 11
59.7711
 21
16.7817
 31
0.0
  0
LINE
  8
0
 62
     0
 10
40.7211
 20
16.7817
 30
0.0
 11
40.7211
 21
15.7827
 31
0.0
  0
LINE
  8
0
 62
     0
 10
40.7211
 20
15.7827
 30
0.0
 11
39.9203
 21
15.7827
 31
0.0
  0
LINE
  8
0
 62
     0
 10
39.9203
 20
15.7827
 30
0.0
 11
39.9203
 21
12.6835
 31
0.0
  0
LINE
  8
0
 62
     0
 10
39.9203
 20
12.6835
 30
0.0
 11
40.7211
 21
12.6835
 31
0.0
  0
LINE
  8
0
 62
     0
 10
40.7211
 20
12.6835
 30
0.0
 11
40.7211
 21
6.88192
 31
0.0
  0
LINE
  8
0
 62
     0
 10
40.7211
 20
6.88192
 30
0.0
 11
39.9203
 21
6.88192
 31
0.0
  0
LINE
  8
0
 62
     0
 10
39.9203
 20
6.88192
 30
0.0
 11
39.9203
 21
3.78273
 31
0.0
  0
LINE
  8
0
 62
     0
 10
39.9203
 20
3.78273
 30
0.0
 11
40.7211
 21
3.78273
 31
0.0
  0
LINE
  8
0
 62
     0
 10
40.7211
 20
3.78273
 30
0.0
 11
40.7211
 21
2.78226
 31
0.0
  0
LINE
  8
0
 62
     0
 10
40.7211
 20
2.78226
 30
0.0
 11
54.7204
 21
2.78226
 31
0.0
  0
LINE
  8
0
 62
     0
 10
54.7204
 20
2.78226
 30
0.0
 11
54.7204
 21
3.78273
 31
0.0
  0
LINE
  8
0
 62
     0
 10
54.7204
 20
3.78273
 30
0.0
 11
55.5212
 21
3.78273
 31
0.0
  0
LINE
  8
0
 62
     0
 10
55.5212
 20
3.78273
 30
0.0
 11
55.5212
 21
6.88192
 31
0.0
  0
LINE
  8
0
 62
     0
 10
55.5212
 20
6.88192
 30
0.0
 11
54.7204
 21
6.88192
 31
0.0
  0
LINE
  8
0
 62
     0
 10
54.7204
 20
6.88192
 30
0.0
 11
54.7204
 21
12.6835
 31
0.0
  0
LINE
  8
0
 62
     0
 10
54.7204
 20
12.6835
 30
0.0
 11
55.5212
 21
12.6835
 31
0.0
  0
LINE
  8
0
 62
     0
 10
55.5212
 20
12.6835
 30
0.0
 11
55.5212
 21
15.7827
 31
0.0
  0
LINE
  8
0
 62
     0
 10
55.5212
 20
15.7827
 30
0.0
 11
54.7204
 21
15.7827
 31
0.0
  0
LINE
  8
0
 62
     0
 10
54.7204
 20
15.7827
 30
0.0
 11
54.7204
 21
16.7817
 31
0.0
  0
LINE
  8
0
 62
     0
 10
54.7204
 20
16.7817
 30
0.0
 11
40.7211
 21
16.7817
 31
0.0
  0
LINE
  8
0
 62
     0
 10
21.671
 20
16.7817
 30
0.0
 11
21.671
 21
15.7827
 31
0.0
  0
LINE
  8
0
 62
     0
 10
21.671
 20
15.7827
 30
0.0
 11
20.8704
 21
15.7827
 31
0.0
  0
LINE
  8
0
 62
     0
 10
20.8704
 20
15.7827
 30
0.0
 11
20.8704
 21
12.6835
 31
0.0
  0
LINE
  8
0
 62
     0
 10
20.8704
 20
12.6835
 30
0.0
 11
21.671
 21
12.6835
 31
0.0
  0
LINE
  8
0
 62
     0
 10
21.671
 20
12.6835
 30
0.0
 11
21.671
 21
6.88192
 31
0.0
  0
LINE
  8
0
 62
     0
 10
21.671
 20
6.88192
 30
0.0
 11
20.8704
 21
6.88192
 31
0.0
  0
LINE
  8
0
 62
     0
 10
20.8704
 20
6.88192
 30
0.0
 11
20.8704
 21
3.78273
 31
0.0
  0
LINE
  8
0
 62
     0
 10
20.8704
 20
3.78273
 30
0.0
 11
21.671
 21
3.78273
 31
0.0
  0
LINE
  8
0
 62
     0
 10
21.671
 20
3.78273
 30
0.0
 11
21.671
 21
2.78226
 31
0.0
  0
LINE
  8
0
 62
     0
 10
21.671
 20
2.78226
 30
0.0
 11
35.6704
 21
2.78226
 31
0.0
  0
LINE
  8
0
 62
     0
 10
35.6704
 20
2.78226
 30
0.0
 11
35.6704
 21
3.78273
 31
0.0
  0
LINE
  8
0
 62
     0
 10
35.6704
 20
3.78273
 30
0.0
 11
36.4712
 21
3.78273
 31
0.0
  0
LINE
  8
0
 62
     0
 10
36.4712
 20
3.78273
 30
0.0
 11
36.4712
 21
6.88192
 31
0.0
  0
LINE
  8
0
 62
     0
 10
36.4712
 20
6.88192
 30
0.0
 11
35.6704
 21
6.88192
 31
0.0
  0
LINE
  8
0
 62
     0
 10
35.6704
 20
6.88192
 30
0.0
 11
35.6704
 21
12.6835
 31
0.0
  0
LINE
  8
0
 62
     0
 10
35.6704
 20
12.6835
 30
0.0
 11
36.4712
 21
12.6835
 31
0.0
  0
LINE
  8
0
 62
     0
 10
36.4712
 20
12.6835
 30
0.0
 11
36.4712
 21
15.7827
 31
0.0
  0
LINE
  8
0
 62
     0
 10
36.4712
 20
15.7827
 30
0.0
 11
35.6704
 21
15.7827
 31
0.0
  0
LINE
  8
0
 62
     0
 10
35.6704
 20
15.7827
 30
0.0
 11
35.6704
 21
16.7817
 31
0.0
  0
LINE
  8
0
 62
     0
 10
35.6704
 20
16.7817
 30
0.0
 11
21.671
 21
16.7817
 31
0.0
  0
LINE
  8
0
 62
     0
 10
2.62103
 20
16.7817
 30
0.0
 11
2.62103
 21
15.7827
 31
0.0
  0
LINE
  8
0
 62
     0
 10
2.62103
 20
15.7827
 30
0.0
 11
1.82039
 21
15.7827
 31
0.0
  0
LINE
  8
0
 62
     0
 10
1.82039
 20
15.7827
 30
0.0
 11
1.82039
 21
12.6835
 31
0.0
  0
LINE
  8
0
 62
     0
 10
1.82039
 20
12.6835
 30
0.0
 11
2.62103
 21
12.6835
 31
0.0
  0
LINE
  8
0
 62
     0
 10
2.62103
 20
12.6835
 30
0.0
 11
2.62103
 21
6.88192
 31
0.0
  0
LINE
  8
0
 62
     0
 10
2.62103
 20
6.88192
 30
0.0
 11
1.82039
 21
6.88192
 31
0.0
  0
LINE
  8
0
 62
     0
 10
1.82039
 20
6.88192
 30
0.0
 11
1.82039
 21
3.78273
 31
0.0
  0
LINE
  8
0
 62
     0
 10
1.82039
 20
3.78273
 30
0.0
 11
2.62103
 21
3.78273
 31
0.0
  0
LINE
  8
0
 62
     0
 10
2.62103
 20
3.78273
 30
0.0
 11
2.62103
 21
2.78226
 31
0.0
  0
LINE
  8
0
 62
     0
 10
2.62103
 20
2.78226
 30
0.0
 11
16.6205
 21
2.78226
 31
0.0
  0
LINE
  8
0
 62
     0
 10
16.6205
 20
2.78226
 30
0.0
 11
16.6205
 21
3.78273
 31
0.0
  0
LINE
  8
0
 62
     0
 10
16.6205
 20
3.78273
 30
0.0
 11
17.4212
 21
3.78273
 31
0.0
  0
LINE
  8
0
 62
     0
 10
17.4212
 20
3.78273
 30
0.0
 11
17.4212
 21
6.88192
 31
0.0
  0
LINE
  8
0
 62
     0
 10
17.4212
 20
6.88192
 30
0.0
 11
16.6205
 21
6.88192
 31
0.0
  0
LINE
  8
0
 62
     0
 10
16.6205
 20
6.88192
 30
0.0
 11
16.6205
 21
12.6835
 31
0.0
  0
LINE
  8
0
 62
     0
 10
16.6205
 20
12.6835
 30
0.0
 11
17.4212
 21
12.6835
 31
0.0
  0
LINE
  8
0
 62
     0
 10
17.4212
 20
12.6835
 30
0.0
 11
17.4212
 21
15.7827
 31
0.0
  0
LINE
  8
0
 62
     0
 10
17.4212
 20
15.7827
 30
0.0
 11
16.6205
 21
15.7827
 31
0.0
  0
LINE
  8
0
 62
     0
 10
16.6205
 20
15.7827
 30
0.0
 11
16.6205
 21
16.7817
 31
0.0
  0
LINE
  8
0
 62
     0
 10
16.6205
 20
16.7817
 30
0.0
 11
2.62103
 21
16.7817
 31
0.0
  0
LINE
  8
0
 62
     0
 10
212.171
 20
35.8316
 30
0.0
 11
212.171
 21
34.8327
 31
0.0
  0
LINE
  8
0
 62
     0
 10
212.171
 20
34.8327
 30
0.0
 11
211.37
 21
34.8327
 31
0.0
  0
LINE
  8
0
 62
     0
 10
211.37
 20
34.8327
 30
0.0
 11
211.37
 21
31.7335
 31
0.0
  0
LINE
  8
0
 62
     0
 10
211.37
 20
31.7335
 30
0.0
 11
212.171
 21
31.7335
 31
0.0
  0
LINE
  8
0
 62
     0
 10
212.171
 20
31.7335
 30
0.0
 11
212.171
 21
25.9319
 31
0.0
  0
LINE
  8
0
 62
     0
 10
212.171
 20
25.9319
 30
0.0
 11
211.37
 21
25.9319
 31
0.0
  0
LINE
  8
0
 62
     0
 10
211.37
 20
25.9319
 30
0.0
 11
211.37
 21
22.8327
 31
0.0
  0
LINE
  8
0
 62
     0
 10
211.37
 20
22.8327
 30
0.0
 11
212.171
 21
22.8327
 31
0.0
  0
LINE
  8
0
 62
     0
 10
212.171
 20
22.8327
 30
0.0
 11
212.171
 21
21.8323
 31
0.0
  0
LINE
  8
0
 62
     0
 10
212.171
 20
21.8323
 30
0.0
 11
226.17
 21
21.8323
 31
0.0
  0
LINE
  8
0
 62
     0
 10
226.17
 20
21.8323
 30
0.0
 11
226.17
 21
22.8327
 31
0.0
  0
LINE
  8
0
 62
     0
 10
226.17
 20
22.8327
 30
0.0
 11
226.971
 21
22.8327
 31
0.0
  0
LINE
  8
0
 62
     0
 10
226.971
 20
22.8327
 30
0.0
 11
226.971
 21
25.9319
 31
0.0
  0
LINE
  8
0
 62
     0
 10
226.971
 20
25.9319
 30
0.0
 11
226.17
 21
25.9319
 31
0.0
  0
LINE
  8
0
 62
     0
 10
226.17
 20
25.9319
 30
0.0
 11
226.17
 21
31.7335
 31
0.0
  0
LINE
  8
0
 62
     0
 10
226.17
 20
31.7335
 30
0.0
 11
226.971
 21
31.7335
 31
0.0
  0
LINE
  8
0
 62
     0
 10
226.971
 20
31.7335
 30
0.0
 11
226.971
 21
34.8327
 31
0.0
  0
LINE
  8
0
 62
     0
 10
226.971
 20
34.8327
 30
0.0
 11
226.17
 21
34.8327
 31
0.0
  0
LINE
  8
0
 62
     0
 10
226.17
 20
34.8327
 30
0.0
 11
226.17
 21
35.8316
 31
0.0
  0
LINE
  8
0
 62
     0
 10
226.17
 20
35.8316
 30
0.0
 11
212.171
 21
35.8316
 31
0.0
  0
LINE
  8
0
 62
     0
 10
193.121
 20
35.8316
 30
0.0
 11
193.121
 21
34.8327
 31
0.0
  0
LINE
  8
0
 62
     0
 10
193.121
 20
34.8327
 30
0.0
 11
192.32
 21
34.8327
 31
0.0
  0
LINE
  8
0
 62
     0
 10
192.32
 20
34.8327
 30
0.0
 11
192.32
 21
31.7335
 31
0.0
  0
LINE
  8
0
 62
     0
 10
192.32
 20
31.7335
 30
0.0
 11
193.121
 21
31.7335
 31
0.0
  0
LINE
  8
0
 62
     0
 10
193.121
 20
31.7335
 30
0.0
 11
193.121
 21
25.9319
 31
0.0
  0
LINE
  8
0
 62
     0
 10
193.121
 20
25.9319
 30
0.0
 11
192.32
 21
25.9319
 31
0.0
  0
LINE
  8
0
 62
     0
 10
192.32
 20
25.9319
 30
0.0
 11
192.32
 21
22.8327
 31
0.0
  0
LINE
  8
0
 62
     0
 10
192.32
 20
22.8327
 30
0.0
 11
193.121
 21
22.8327
 31
0.0
  0
LINE
  8
0
 62
     0
 10
193.121
 20
22.8327
 30
0.0
 11
193.121
 21
21.8323
 31
0.0
  0
LINE
  8
0
 62
     0
 10
193.121
 20
21.8323
 30
0.0
 11
207.12
 21
21.8323
 31
0.0
  0
LINE
  8
0
 62
     0
 10
207.12
 20
21.8323
 30
0.0
 11
207.12
 21
22.8327
 31
0.0
  0
LINE
  8
0
 62
     0
 10
207.12
 20
22.8327
 30
0.0
 11
207.921
 21
22.8327
 31
0.0
  0
LINE
  8
0
 62
     0
 10
207.921
 20
22.8327
 30
0.0
 11
207.921
 21
25.9319
 31
0.0
  0
LINE
  8
0
 62
     0
 10
207.921
 20
25.9319
 30
0.0
 11
207.12
 21
25.9319
 31
0.0
  0
LINE
  8
0
 62
     0
 10
207.12
 20
25.9319
 30
0.0
 11
207.12
 21
31.7335
 31
0.0
  0
LINE
  8
0
 62
     0
 10
207.12
 20
31.7335
 30
0.0
 11
207.921
 21
31.7335
 31
0.0
  0
LINE
  8
0
 62
     0
 10
207.921
 20
31.7335
 30
0.0
 11
207.921
 21
34.8327
 31
0.0
  0
LINE
  8
0
 62
     0
 10
207.921
 20
34.8327
 30
0.0
 11
207.12
 21
34.8327
 31
0.0
  0
LINE
  8
0
 62
     0
 10
207.12
 20
34.8327
 30
0.0
 11
207.12
 21
35.8316
 31
0.0
  0
LINE
  8
0
 62
     0
 10
207.12
 20
35.8316
 30
0.0
 11
193.121
 21
35.8316
 31
0.0
  0
LINE
  8
0
 62
     0
 10
174.071
 20
35.8316
 30
0.0
 11
174.071
 21
34.8327
 31
0.0
  0
LINE
  8
0
 62
     0
 10
174.071
 20
34.8327
 30
0.0
 11
173.27
 21
34.8327
 31
0.0
  0
LINE
  8
0
 62
     0
 10
173.27
 20
34.8327
 30
0.0
 11
173.27
 21
31.7335
 31
0.0
  0
LINE
  8
0
 62
     0
 10
173.27
 20
31.7335
 30
0.0
 11
174.071
 21
31.7335
 31
0.0
  0
LINE
  8
0
 62
     0
 10
174.071
 20
31.7335
 30
0.0
 11
174.071
 21
25.9319
 31
0.0
  0
LINE
  8
0
 62
     0
 10
174.071
 20
25.9319
 30
0.0
 11
173.27
 21
25.9319
 31
0.0
  0
LINE
  8
0
 62
     0
 10
173.27
 20
25.9319
 30
0.0
 11
173.27
 21
22.8327
 31
0.0
  0
LINE
  8
0
 62
     0
 10
173.27
 20
22.8327
 30
0.0
 11
174.071
 21
22.8327
 31
0.0
  0
LINE
  8
0
 62
     0
 10
174.071
 20
22.8327
 30
0.0
 11
174.071
 21
21.8323
 31
0.0
  0
LINE
  8
0
 62
     0
 10
174.071
 20
21.8323
 30
0.0
 11
188.07
 21
21.8323
 31
0.0
  0
LINE
  8
0
 62
     0
 10
188.07
 20
21.8323
 30
0.0
 11
188.07
 21
22.8327
 31
0.0
  0
LINE
  8
0
 62
     0
 10
188.07
 20
22.8327
 30
0.0
 11
188.871
 21
22.8327
 31
0.0
  0
LINE
  8
0
 62
     0
 10
188.871
 20
22.8327
 30
0.0
 11
188.871
 21
25.9319
 31
0.0
  0
LINE
  8
0
 62
     0
 10
188.871
 20
25.9319
 30
0.0
 11
188.07
 21
25.9319
 31
0.0
  0
LINE
  8
0
 62
     0
 10
188.07
 20
25.9319
 30
0.0
 11
188.07
 21
31.7335
 31
0.0
  0
LINE
  8
0
 62
     0
 10
188.07
 20
31.7335
 30
0.0
 11
188.871
 21
31.7335
 31
0.0
  0
LINE
  8
0
 62
     0
 10
188.871
 20
31.7335
 30
0.0
 11
188.871
 21
34.8327
 31
0.0
  0
LINE
  8
0
 62
     0
 10
188.871
 20
34.8327
 30
0.0
 11
188.07
 21
34.8327
 31
0.0
  0
LINE
  8
0
 62
     0
 10
188.07
 20
34.8327
 30
0.0
 11
188.07
 21
35.8316
 31
0.0
  0
LINE
  8
0
 62
     0
 10
188.07
 20
35.8316
 30
0.0
 11
174.071
 21
35.8316
 31
0.0
  0
LINE
  8
0
 62
     0
 10
155.021
 20
35.8316
 30
0.0
 11
155.021
 21
34.8327
 31
0.0
  0
LINE
  8
0
 62
     0
 10
155.021
 20
34.8327
 30
0.0
 11
154.22
 21
34.8327
 31
0.0
  0
LINE
  8
0
 62
     0
 10
154.22
 20
34.8327
 30
0.0
 11
154.22
 21
31.7335
 31
0.0
  0
LINE
  8
0
 62
     0
 10
154.22
 20
31.7335
 30
0.0
 11
155.021
 21
31.7335
 31
0.0
  0
LINE
  8
0
 62
     0
 10
155.021
 20
31.7335
 30
0.0
 11
155.021
 21
25.9319
 31
0.0
  0
LINE
  8
0
 62
     0
 10
155.021
 20
25.9319
 30
0.0
 11
154.22
 21
25.9319
 31
0.0
  0
LINE
  8
0
 62
     0
 10
154.22
 20
25.9319
 30
0.0
 11
154.22
 21
22.8327
 31
0.0
  0
LINE
  8
0
 62
     0
 10
154.22
 20
22.8327
 30
0.0
 11
155.021
 21
22.8327
 31
0.0
  0
LINE
  8
0
 62
     0
 10
155.021
 20
22.8327
 30
0.0
 11
155.021
 21
21.8323
 31
0.0
  0
LINE
  8
0
 62
     0
 10
155.021
 20
21.8323
 30
0.0
 11
169.02
 21
21.8323
 31
0.0
  0
LINE
  8
0
 62
     0
 10
169.02
 20
21.8323
 30
0.0
 11
169.02
 21
22.8327
 31
0.0
  0
LINE
  8
0
 62
     0
 10
169.02
 20
22.8327
 30
0.0
 11
169.821
 21
22.8327
 31
0.0
  0
LINE
  8
0
 62
     0
 10
169.821
 20
22.8327
 30
0.0
 11
169.821
 21
25.9319
 31
0.0
  0
LINE
  8
0
 62
     0
 10
169.821
 20
25.9319
 30
0.0
 11
169.02
 21
25.9319
 31
0.0
  0
LINE
  8
0
 62
     0
 10
169.02
 20
25.9319
 30
0.0
 11
169.02
 21
31.7335
 31
0.0
  0
LINE
  8
0
 62
     0
 10
169.02
 20
31.7335
 30
0.0
 11
169.821
 21
31.7335
 31
0.0
  0
LINE
  8
0
 62
     0
 10
169.821
 20
31.7335
 30
0.0
 11
169.821
 21
34.8327
 31
0.0
  0
LINE
  8
0
 62
     0
 10
169.821
 20
34.8327
 30
0.0
 11
169.02
 21
34.8327
 31
0.0
  0
LINE
  8
0
 62
     0
 10
169.02
 20
34.8327
 30
0.0
 11
169.02
 21
35.8316
 31
0.0
  0
LINE
  8
0
 62
     0
 10
169.02
 20
35.8316
 30
0.0
 11
155.021
 21
35.8316
 31
0.0
  0
LINE
  8
0
 62
     0
 10
135.971
 20
35.8316
 30
0.0
 11
135.971
 21
34.8327
 31
0.0
  0
LINE
  8
0
 62
     0
 10
135.971
 20
34.8327
 30
0.0
 11
135.17
 21
34.8327
 31
0.0
  0
LINE
  8
0
 62
     0
 10
135.17
 20
34.8327
 30
0.0
 11
135.17
 21
31.7335
 31
0.0
  0
LINE
  8
0
 62
     0
 10
135.17
 20
31.7335
 30
0.0
 11
135.971
 21
31.7335
 31
0.0
  0
LINE
  8
0
 62
     0
 10
135.971
 20
31.7335
 30
0.0
 11
135.971
 21
25.9319
 31
0.0
  0
LINE
  8
0
 62
     0
 10
135.971
 20
25.9319
 30
0.0
 11
135.17
 21
25.9319
 31
0.0
  0
LINE
  8
0
 62
     0
 10
135.17
 20
25.9319
 30
0.0
 11
135.17
 21
22.8327
 31
0.0
  0
LINE
  8
0
 62
     0
 10
135.17
 20
22.8327
 30
0.0
 11
135.971
 21
22.8327
 31
0.0
  0
LINE
  8
0
 62
     0
 10
135.971
 20
22.8327
 30
0.0
 11
135.971
 21
21.8323
 31
0.0
  0
LINE
  8
0
 62
     0
 10
135.971
 20
21.8323
 30
0.0
 11
149.97
 21
21.8323
 31
0.0
  0
LINE
  8
0
 62
     0
 10
149.97
 20
21.8323
 30
0.0
 11
149.97
 21
22.8327
 31
0.0
  0
LINE
  8
0
 62
     0
 10
149.97
 20
22.8327
 30
0.0
 11
150.771
 21
22.8327
 31
0.0
  0
LINE
  8
0
 62
     0
 10
150.771
 20
22.8327
 30
0.0
 11
150.771
 21
25.9319
 31
0.0
  0
LINE
  8
0
 62
     0
 10
150.771
 20
25.9319
 30
0.0
 11
149.97
 21
25.9319
 31
0.0
  0
LINE
  8
0
 62
     0
 10
149.97
 20
25.9319
 30
0.0
 11
149.97
 21
31.7335
 31
0.0
  0
LINE
  8
0
 62
     0
 10
149.97
 20
31.7335
 30
0.0
 11
150.771
 21
31.7335
 31
0.0
  0
LINE
  8
0
 62
     0
 10
150.771
 20
31.7335
 30
0.0
 11
150.771
 21
34.8327
 31
0.0
  0
LINE
  8
0
 62
     0
 10
150.771
 20
34.8327
 30
0.0
 11
149.97
 21
34.8327
 31
0.0
  0
LINE
  8
0
 62
     0
 10
149.97
 20
34.8327
 30
0.0
 11
149.97
 21
35.8316
 31
0.0
  0
LINE
  8
0
 62
     0
 10
149.97
 20
35.8316
 30
0.0
 11
135.971
 21
35.8316
 31
0.0
  0
LINE
  8
0
 62
     0
 10
116.92
 20
35.8316
 30
0.0
 11
116.92
 21
34.8327
 31
0.0
  0
LINE
  8
0
 62
     0
 10
116.92
 20
34.8327
 30
0.0
 11
116.119
 21
34.8327
 31
0.0
  0
LINE
  8
0
 62
     0
 10
116.119
 20
34.8327
 30
0.0
 11
116.119
 21
31.7335
 31
0.0
  0
LINE
  8
0
 62
     0
 10
116.119
 20
31.7335
 30
0.0
 11
116.92
 21
31.7335
 31
0.0
  0
LINE
  8
0
 62
     0
 10
116.92
 20
31.7335
 30
0.0
 11
116.92
 21
25.9319
 31
0.0
  0
LINE
  8
0
 62
     0
 10
116.92
 20
25.9319
 30
0.0
 11
116.119
 21
25.9319
 31
0.0
  0
LINE
  8
0
 62
     0
 10
116.119
 20
25.9319
 30
0.0
 11
116.119
 21
22.8327
 31
0.0
  0
LINE
  8
0
 62
     0
 10
116.119
 20
22.8327
 30
0.0
 11
116.92
 21
22.8327
 31
0.0
  0
LINE
  8
0
 62
     0
 10
116.92
 20
22.8327
 30
0.0
 11
116.92
 21
21.8323
 31
0.0
  0
LINE
  8
0
 62
     0
 10
116.92
 20
21.8323
 30
0.0
 11
130.92
 21
21.8323
 31
0.0
  0
LINE
  8
0
 62
     0
 10
130.92
 20
21.8323
 30
0.0
 11
130.92
 21
22.8327
 31
0.0
  0
LINE
  8
0
 62
     0
 10
130.92
 20
22.8327
 30
0.0
 11
131.721
 21
22.8327
 31
0.0
  0
LINE
  8
0
 62
     0
 10
131.721
 20
22.8327
 30
0.0
 11
131.721
 21
25.9319
 31
0.0
  0
LINE
  8
0
 62
     0
 10
131.721
 20
25.9319
 30
0.0
 11
130.92
 21
25.9319
 31
0.0
  0
LINE
  8
0
 62
     0
 10
130.92
 20
25.9319
 30
0.0
 11
130.92
 21
31.7335
 31
0.0
  0
LINE
  8
0
 62
     0
 10
130.92
 20
31.7335
 30
0.0
 11
131.721
 21
31.7335
 31
0.0
  0
LINE
  8
0
 62
     0
 10
131.721
 20
31.7335
 30
0.0
 11
131.721
 21
34.8327
 31
0.0
  0
LINE
  8
0
 62
     0
 10
131.721
 20
34.8327
 30
0.0
 11
130.92
 21
34.8327
 31
0.0
  0
LINE
  8
0
 62
     0
 10
130.92
 20
34.8327
 30
0.0
 11
130.92
 21
35.8316
 31
0.0
  0
LINE
  8
0
 62
     0
 10
130.92
 20
35.8316
 30
0.0
 11
116.92
 21
35.8316
 31
0.0
  0
LINE
  8
0
 62
     0
 10
97.8697
 20
35.8316
 30
0.0
 11
97.8697
 21
34.8327
 31
0.0
  0
LINE
  8
0
 62
     0
 10
97.8697
 20
34.8327
 30
0.0
 11
97.0703
 21
34.8327
 31
0.0
  0
LINE
  8
0
 62
     0
 10
97.0703
 20
34.8327
 30
0.0
 11
97.0703
 21
31.7335
 31
0.0
  0
LINE
  8
0
 62
     0
 10
97.0703
 20
31.7335
 30
0.0
 11
97.8697
 21
31.7335
 31
0.0
  0
LINE
  8
0
 62
     0
 10
97.8697
 20
31.7335
 30
0.0
 11
97.8697
 21
25.9319
 31
0.0
  0
LINE
  8
0
 62
     0
 10
97.8697
 20
25.9319
 30
0.0
 11
97.0703
 21
25.9319
 31
0.0
  0
LINE
  8
0
 62
     0
 10
97.0703
 20
25.9319
 30
0.0
 11
97.0703
 21
22.8327
 31
0.0
  0
LINE
  8
0
 62
     0
 10
97.0703
 20
22.8327
 30
0.0
 11
97.8697
 21
22.8327
 31
0.0
  0
LINE
  8
0
 62
     0
 10
97.8697
 20
22.8327
 30
0.0
 11
97.8697
 21
21.8323
 31
0.0
  0
LINE
  8
0
 62
     0
 10
97.8697
 20
21.8323
 30
0.0
 11
111.869
 21
21.8323
 31
0.0
  0
LINE
  8
0
 62
     0
 10
111.869
 20
21.8323
 30
0.0
 11
111.869
 21
22.8327
 31
0.0
  0
LINE
  8
0
 62
     0
 10
111.869
 20
22.8327
 30
0.0
 11
112.67
 21
22.8327
 31
0.0
  0
LINE
  8
0
 62
     0
 10
112.67
 20
22.8327
 30
0.0
 11
112.67
 21
25.9319
 31
0.0
  0
LINE
  8
0
 62
     0
 10
112.67
 20
25.9319
 30
0.0
 11
111.869
 21
25.9319
 31
0.0
  0
LINE
  8
0
 62
     0
 10
111.869
 20
25.9319
 30
0.0
 11
111.869
 21
31.7335
 31
0.0
  0
LINE
  8
0
 62
     0
 10
111.869
 20
31.7335
 30
0.0
 11
112.67
 21
31.7335
 31
0.0
  0
LINE
  8
0
 62
     0
 10
112.67
 20
31.7335
 30
0.0
 11
112.67
 21
34.8327
 31
0.0
  0
LINE
  8
0
 62
     0
 10
112.67
 20
34.8327
 30
0.0
 11
111.869
 21
34.8327
 31
0.0
  0
LINE
  8
0
 62
     0
 10
111.869
 20
34.8327
 30
0.0
 11
111.869
 21
35.8316
 31
0.0
  0
LINE
  8
0
 62
     0
 10
111.869
 20
35.8316
 30
0.0
 11
97.8697
 21
35.8316
 31
0.0
  0
LINE
  8
0
 62
     0
 10
78.8211
 20
35.8316
 30
0.0
 11
78.8211
 21
34.8327
 31
0.0
  0
LINE
  8
0
 62
     0
 10
78.8211
 20
34.8327
 30
0.0
 11
78.0203
 21
34.8327
 31
0.0
  0
LINE
  8
0
 62
     0
 10
78.0203
 20
34.8327
 30
0.0
 11
78.0203
 21
31.7335
 31
0.0
  0
LINE
  8
0
 62
     0
 10
78.0203
 20
31.7335
 30
0.0
 11
78.8211
 21
31.7335
 31
0.0
  0
LINE
  8
0
 62
     0
 10
78.8211
 20
31.7335
 30
0.0
 11
78.8211
 21
25.9319
 31
0.0
  0
LINE
  8
0
 62
     0
 10
78.8211
 20
25.9319
 30
0.0
 11
78.0203
 21
25.9319
 31
0.0
  0
LINE
  8
0
 62
     0
 10
78.0203
 20
25.9319
 30
0.0
 11
78.0203
 21
22.8327
 31
0.0
  0
LINE
  8
0
 62
     0
 10
78.0203
 20
22.8327
 30
0.0
 11
78.8211
 21
22.8327
 31
0.0
  0
LINE
  8
0
 62
     0
 10
78.8211
 20
22.8327
 30
0.0
 11
78.8211
 21
21.8323
 31
0.0
  0
LINE
  8
0
 62
     0
 10
78.8211
 20
21.8323
 30
0.0
 11
92.8204
 21
21.8323
 31
0.0
  0
LINE
  8
0
 62
     0
 10
92.8204
 20
21.8323
 30
0.0
 11
92.8204
 21
22.8327
 31
0.0
  0
LINE
  8
0
 62
     0
 10
92.8204
 20
22.8327
 30
0.0
 11
93.6198
 21
22.8327
 31
0.0
  0
LINE
  8
0
 62
     0
 10
93.6198
 20
22.8327
 30
0.0
 11
93.6198
 21
25.9319
 31
0.0
  0
LINE
  8
0
 62
     0
 10
93.6198
 20
25.9319
 30
0.0
 11
92.8204
 21
25.9319
 31
0.0
  0
LINE
  8
0
 62
     0
 10
92.8204
 20
25.9319
 30
0.0
 11
92.8204
 21
31.7335
 31
0.0
  0
LINE
  8
0
 62
     0
 10
92.8204
 20
31.7335
 30
0.0
 11
93.6198
 21
31.7335
 31
0.0
  0
LINE
  8
0
 62
     0
 10
93.6198
 20
31.7335
 30
0.0
 11
93.6198
 21
34.8327
 31
0.0
  0
LINE
  8
0
 62
     0
 10
93.6198
 20
34.8327
 30
0.0
 11
92.8204
 21
34.8327
 31
0.0
  0
LINE
  8
0
 62
     0
 10
92.8204
 20
34.8327
 30
0.0
 11
92.8204
 21
35.8316
 31
0.0
  0
LINE
  8
0
 62
     0
 10
92.8204
 20
35.8316
 30
0.0
 11
78.8211
 21
35.8316
 31
0.0
  0
LINE
  8
0
 62
     0
 10
59.7711
 20
35.8316
 30
0.0
 11
59.7711
 21
34.8327
 31
0.0
  0
LINE
  8
0
 62
     0
 10
59.7711
 20
34.8327
 30
0.0
 11
58.9703
 21
34.8327
 31
0.0
  0
LINE
  8
0
 62
     0
 10
58.9703
 20
34.8327
 30
0.0
 11
58.9703
 21
31.7335
 31
0.0
  0
LINE
  8
0
 62
     0
 10
58.9703
 20
31.7335
 30
0.0
 11
59.7711
 21
31.7335
 31
0.0
  0
LINE
  8
0
 62
     0
 10
59.7711
 20
31.7335
 30
0.0
 11
59.7711
 21
25.9319
 31
0.0
  0
LINE
  8
0
 62
     0
 10
59.7711
 20
25.9319
 30
0.0
 11
58.9703
 21
25.9319
 31
0.0
  0
LINE
  8
0
 62
     0
 10
58.9703
 20
25.9319
 30
0.0
 11
58.9703
 21
22.8327
 31
0.0
  0
LINE
  8
0
 62
     0
 10
58.9703
 20
22.8327
 30
0.0
 11
59.7711
 21
22.8327
 31
0.0
  0
LINE
  8
0
 62
     0
 10
59.7711
 20
22.8327
 30
0.0
 11
59.7711
 21
21.8323
 31
0.0
  0
LINE
  8
0
 62
     0
 10
59.7711
 20
21.8323
 30
0.0
 11
73.7704
 21
21.8323
 31
0.0
  0
LINE
  8
0
 62
     0
 10
73.7704
 20
21.8323
 30
0.0
 11
73.7704
 21
22.8327
 31
0.0
  0
LINE
  8
0
 62
     0
 10
73.7704
 20
22.8327
 30
0.0
 11
74.5712
 21
22.8327
 31
0.0
  0
LINE
  8
0
 62
     0
 10
74.5712
 20
22.8327
 30
0.0
 11
74.5712
 21
25.9319
 31
0.0
  0
LINE
  8
0
 62
     0
 10
74.5712
 20
25.9319
 30
0.0
 11
73.7704
 21
25.9319
 31
0.0
  0
LINE
  8
0
 62
     0
 10
73.7704
 20
25.9319
 30
0.0
 11
73.7704
 21
31.7335
 31
0.0
  0
LINE
  8
0
 62
     0
 10
73.7704
 20
31.7335
 30
0.0
 11
74.5712
 21
31.7335
 31
0.0
  0
LINE
  8
0
 62
     0
 10
74.5712
 20
31.7335
 30
0.0
 11
74.5712
 21
34.8327
 31
0.0
  0
LINE
  8
0
 62
     0
 10
74.5712
 20
34.8327
 30
0.0
 11
73.7704
 21
34.8327
 31
0.0
  0
LINE
  8
0
 62
     0
 10
73.7704
 20
34.8327
 30
0.0
 11
73.7704
 21
35.8316
 31
0.0
  0
LINE
  8
0
 62
     0
 10
73.7704
 20
35.8316
 30
0.0
 11
59.7711
 21
35.8316
 31
0.0
  0
LINE
  8
0
 62
     0
 10
40.7211
 20
35.8316
 30
0.0
 11
40.7211
 21
34.8327
 31
0.0
  0
LINE
  8
0
 62
     0
 10
40.7211
 20
34.8327
 30
0.0
 11
39.9203
 21
34.8327
 31
0.0
  0
LINE
  8
0
 62
     0
 10
39.9203
 20
34.8327
 30
0.0
 11
39.9203
 21
31.7335
 31
0.0
  0
LINE
  8
0
 62
     0
 10
39.9203
 20
31.7335
 30
0.0
 11
40.7211
 21
31.7335
 31
0.0
  0
LINE
  8
0
 62
     0
 10
40.7211
 20
31.7335
 30
0.0
 11
40.7211
 21
25.9319
 31
0.0
  0
LINE
  8
0
 62
     0
 10
40.7211
 20
25.9319
 30
0.0
 11
39.9203
 21
25.9319
 31
0.0
  0
LINE
  8
0
 62
     0
 10
39.9203
 20
25.9319
 30
0.0
 11
39.9203
 21
22.8327
 31
0.0
  0
LINE
  8
0
 62
     0
 10
39.9203
 20
22.8327
 30
0.0
 11
40.7211
 21
22.8327
 31
0.0
  0
LINE
  8
0
 62
     0
 10
40.7211
 20
22.8327
 30
0.0
 11
40.7211
 21
21.8323
 31
0.0
  0
LINE
  8
0
 62
     0
 10
40.7211
 20
21.8323
 30
0.0
 11
54.7204
 21
21.8323
 31
0.0
  0
LINE
  8
0
 62
     0
 10
54.7204
 20
21.8323
 30
0.0
 11
54.7204
 21
22.8327
 31
0.0
  0
LINE
  8
0
 62
     0
 10
54.7204
 20
22.8327
 30
0.0
 11
55.5212
 21
22.8327
 31
0.0
  0
LINE
  8
0
 62
     0
 10
55.5212
 20
22.8327
 30
0.0
 11
55.5212
 21
25.9319
 31
0.0
  0
LINE
  8
0
 62
     0
 10
55.5212
 20
25.9319
 30
0.0
 11
54.7204
 21
25.9319
 31
0.0
  0
LINE
  8
0
 62
     0
 10
54.7204
 20
25.9319
 30
0.0
 11
54.7204
 21
31.7335
 31
0.0
  0
LINE
  8
0
 62
     0
 10
54.7204
 20
31.7335
 30
0.0
 11
55.5212
 21
31.7335
 31
0.0
  0
LINE
  8
0
 62
     0
 10
55.5212
 20
31.7335
 30
0.0
 11
55.5212
 21
34.8327
 31
0.0
  0
LINE
  8
0
 62
     0
 10
55.5212
 20
34.8327
 30
0.0
 11
54.7204
 21
34.8327
 31
0.0
  0
LINE
  8
0
 62
     0
 10
54.7204
 20
34.8327
 30
0.0
 11
54.7204
 21
35.8316
 31
0.0
  0
LINE
  8
0
 62
     0
 10
54.7204
 20
35.8316
 30
0.0
 11
40.7211
 21
35.8316
 31
0.0
  0
LINE
  8
0
 62
     0
 10
21.671
 20
35.8316
 30
0.0
 11
21.671
 21
34.8327
 31
0.0
  0
LINE
  8
0
 62
     0
 10
21.671
 20
34.8327
 30
0.0
 11
20.8704
 21
34.8327
 31
0.0
  0
LINE
  8
0
 62
     0
 10
20.8704
 20
34.8327
 30
0.0
 11
20.8704
 21
31.7335
 31
0.0
  0
LINE
  8
0
 62
     0
 10
20.8704
 20
31.7335
 30
0.0
 11
21.671
 21
31.7335
 31
0.0
  0
LINE
  8
0
 62
     0
 10
21.671
 20
31.7335
 30
0.0
 11
21.671
 21
25.9319
 31
0.0
  0
LINE
  8
0
 62
     0
 10
21.671
 20
25.9319
 30
0.0
 11
20.8704
 21
25.9319
 31
0.0
  0
LINE
  8
0
 62
     0
 10
20.8704
 20
25.9319
 30
0.0
 11
20.8704
 21
22.8327
 31
0.0
  0
LINE
  8
0
 62
     0
 10
20.8704
 20
22.8327
 30
0.0
 11
21.671
 21
22.8327
 31
0.0
  0
LINE
  8
0
 62
     0
 10
21.671
 20
22.8327
 30
0.0
 11
21.671
 21
21.8323
 31
0.0
  0
LINE
  8
0
 62
     0
 10
21.671
 20
21.8323
 30
0.0
 11
35.6704
 21
21.8323
 31
0.0
  0
LINE
  8
0
 62
     0
 10
35.6704
 20
21.8323
 30
0.0
 11
35.6704
 21
22.8327
 31
0.0
  0
LINE
  8
0
 62
     0
 10
35.6704
 20
22.8327
 30
0.0
 11
36.4712
 21
22.8327
 31
0.0
  0
LINE
  8
0
 62
     0
 10
36.4712
 20
22.8327
 30
0.0
 11
36.4712
 21
25.9319
 31
0.0
  0
LINE
  8
0
 62
     0
 10
36.4712
 20
25.9319
 30
0.0
 11
35.6704
 21
25.9319
 31
0.0
  0
LINE
  8
0
 62
     0
 10
35.6704
 20
25.9319
 30
0.0
 11
35.6704
 21
31.7335
 31
0.0
  0
LINE
  8
0
 62
     0
 10
35.6704
 20
31.7335
 30
0.0
 11
36.4712
 21
31.7335
 31
0.0
  0
LINE
  8
0
 62
     0
 10
36.4712
 20
31.7335
 30
0.0
 11
36.4712
 21
34.8327
 31
0.0
  0
LINE
  8
0
 62
     0
 10
36.4712
 20
34.8327
 30
0.0
 11
35.6704
 21
34.8327
 31
0.0
  0
LINE
  8
0
 62
     0
 10
35.6704
 20
34.8327
 30
0.0
 11
35.6704
 21
35.8316
 31
0.0
  0
LINE
  8
0
 62
     0
 10
35.6704
 20
35.8316
 30
0.0
 11
21.671
 21
35.8316
 31
0.0
  0
LINE
  8
0
 62
     0
 10
2.62103
 20
35.8316
 30
0.0
 11
2.62103
 21
34.8327
 31
0.0
  0
LINE
  8
0
 62
     0
 10
2.62103
 20
34.8327
 30
0.0
 11
1.82039
 21
34.8327
 31
0.0
  0
LINE
  8
0
 62
     0
 10
1.82039
 20
34.8327
 30
0.0
 11
1.82039
 21
31.7335
 31
0.0
  0
LINE
  8
0
 62
     0
 10
1.82039
 20
31.7335
 30
0.0
 11
2.62103
 21
31.7335
 31
0.0
  0
LINE
  8
0
 62
     0
 10
2.62103
 20
31.7335
 30
0.0
 11
2.62103
 21
25.9319
 31
0.0
  0
LINE
  8
0
 62
     0
 10
2.62103
 20
25.9319
 30
0.0
 11
1.82039
 21
25.9319
 31
0.0
  0
LINE
  8
0
 62
     0
 10
1.82039
 20
25.9319
 30
0.0
 11
1.82039
 21
22.8327
 31
0.0
  0
LINE
  8
0
 62
     0
 10
1.82039
 20
22.8327
 30
0.0
 11
2.62103
 21
22.8327
 31
0.0
  0
LINE
  8
0
 62
     0
 10
2.62103
 20
22.8327
 30
0.0
 11
2.62103
 21
21.8323
 31
0.0
  0
LINE
  8
0
 62
     0
 10
2.62103
 20
21.8323
 30
0.0
 11
16.6205
 21
21.8323
 31
0.0
  0
LINE
  8
0
 62
     0
 10
16.6205
 20
21.8323
 30
0.0
 11
16.6205
 21
22.8327
 31
0.0
  0
LINE
  8
0
 62
     0
 10
16.6205
 20
22.8327
 30
0.0
 11
17.4212
 21
22.8327
 31
0.0
  0
LINE
  8
0
 62
     0
 10
17.4212
 20
22.8327
 30
0.0
 11
17.4212
 21
25.9319
 31
0.0
  0
LINE
  8
0
 62
     0
 10
17.4212
 20
25.9319
 30
0.0
 11
16.6205
 21
25.9319
 31
0.0
  0
LINE
  8
0
 62
     0
 10
16.6205
 20
25.9319
 30
0.0
 11
16.6205
 21
31.7335
 31
0.0
  0
LINE
  8
0
 62
     0
 10
16.6205
 20
31.7335
 30
0.0
 11
17.4212
 21
31.7335
 31
0.0
  0
LINE
  8
0
 62
     0
 10
17.4212
 20
31.7335
 30
0.0
 11
17.4212
 21
34.8327
 31
0.0
  0
LINE
  8
0
 62
     0
 10
17.4212
 20
34.8327
 30
0.0
 11
16.6205
 21
34.8327
 31
0.0
  0
LINE
  8
0
 62
     0
 10
16.6205
 20
34.8327
 30
0.0
 11
16.6205
 21
35.8316
 31
0.0
  0
LINE
  8
0
 62
     0
 10
16.6205
 20
35.8316
 30
0.0
 11
2.62103
 21
35.8316
 31
0.0
  0
LINE
  8
0
 62
     0
 10
212.171
 20
54.8816
 30
0.0
 11
212.171
 21
53.8826
 31
0.0
  0
LINE
  8
0
 62
     0
 10
212.171
 20
53.8826
 30
0.0
 11
211.37
 21
53.8826
 31
0.0
  0
LINE
  8
0
 62
     0
 10
211.37
 20
53.8826
 30
0.0
 11
211.37
 21
50.782
 31
0.0
  0
LINE
  8
0
 62
     0
 10
211.37
 20
50.782
 30
0.0
 11
212.171
 21
50.782
 31
0.0
  0
LINE
  8
0
 62
     0
 10
212.171
 20
50.782
 30
0.0
 11
212.171
 21
44.982
 31
0.0
  0
LINE
  8
0
 62
     0
 10
212.171
 20
44.982
 30
0.0
 11
211.37
 21
44.982
 31
0.0
  0
LINE
  8
0
 62
     0
 10
211.37
 20
44.982
 30
0.0
 11
211.37
 21
41.8828
 31
0.0
  0
LINE
  8
0
 62
     0
 10
211.37
 20
41.8828
 30
0.0
 11
212.171
 21
41.8828
 31
0.0
  0
LINE
  8
0
 62
     0
 10
212.171
 20
41.8828
 30
0.0
 11
212.171
 21
40.8824
 31
0.0
  0
LINE
  8
0
 62
     0
 10
212.171
 20
40.8824
 30
0.0
 11
226.17
 21
40.8824
 31
0.0
  0
LINE
  8
0
 62
     0
 10
226.17
 20
40.8824
 30
0.0
 11
226.17
 21
41.8828
 31
0.0
  0
LINE
  8
0
 62
     0
 10
226.17
 20
41.8828
 30
0.0
 11
226.971
 21
41.8828
 31
0.0
  0
LINE
  8
0
 62
     0
 10
226.971
 20
41.8828
 30
0.0
 11
226.971
 21
44.982
 31
0.0
  0
LINE
  8
0
 62
     0
 10
226.971
 20
44.982
 30
0.0
 11
226.17
 21
44.982
 31
0.0
  0
LINE
  8
0
 62
     0
 10
226.17
 20
44.982
 30
0.0
 11
226.17
 21
50.782
 31
0.0
  0
LINE
  8
0
 62
     0
 10
226.17
 20
50.782
 30
0.0
 11
226.971
 21
50.782
 31
0.0
  0
LINE
  8
0
 62
     0
 10
226.971
 20
50.782
 30
0.0
 11
226.971
 21
53.8826
 31
0.0
  0
LINE
  8
0
 62
     0
 10
226.971
 20
53.8826
 30
0.0
 11
226.17
 21
53.8826
 31
0.0
  0
LINE
  8
0
 62
     0
 10
226.17
 20
53.8826
 30
0.0
 11
226.17
 21
54.8816
 31
0.0
  0
LINE
  8
0
 62
     0
 10
226.17
 20
54.8816
 30
0.0
 11
212.171
 21
54.8816
 31
0.0
  0
LINE
  8
0
 62
     0
 10
193.121
 20
54.8816
 30
0.0
 11
193.121
 21
53.8826
 31
0.0
  0
LINE
  8
0
 62
     0
 10
193.121
 20
53.8826
 30
0.0
 11
192.32
 21
53.8826
 31
0.0
  0
LINE
  8
0
 62
     0
 10
192.32
 20
53.8826
 30
0.0
 11
192.32
 21
50.782
 31
0.0
  0
LINE
  8
0
 62
     0
 10
192.32
 20
50.782
 30
0.0
 11
193.121
 21
50.782
 31
0.0
  0
LINE
  8
0
 62
     0
 10
193.121
 20
50.782
 30
0.0
 11
193.121
 21
44.982
 31
0.0
  0
LINE
  8
0
 62
     0
 10
193.121
 20
44.982
 30
0.0
 11
192.32
 21
44.982
 31
0.0
  0
LINE
  8
0
 62
     0
 10
192.32
 20
44.982
 30
0.0
 11
192.32
 21
41.8828
 31
0.0
  0
LINE
  8
0
 62
     0
 10
192.32
 20
41.8828
 30
0.0
 11
193.121
 21
41.8828
 31
0.0
  0
LINE
  8
0
 62
     0
 10
193.121
 20
41.8828
 30
0.0
 11
193.121
 21
40.8824
 31
0.0
  0
LINE
  8
0
 62
     0
 10
193.121
 20
40.8824
 30
0.0
 11
207.12
 21
40.8824
 31
0.0
  0
LINE
  8
0
 62
     0
 10
207.12
 20
40.8824
 30
0.0
 11
207.12
 21
41.8828
 31
0.0
  0
LINE
  8
0
 62
     0
 10
207.12
 20
41.8828
 30
0.0
 11
207.921
 21
41.8828
 31
0.0
  0
LINE
  8
0
 62
     0
 10
207.921
 20
41.8828
 30
0.0
 11
207.921
 21
44.982
 31
0.0
  0
LINE
  8
0
 62
     0
 10
207.921
 20
44.982
 30
0.0
 11
207.12
 21
44.982
 31
0.0
  0
LINE
  8
0
 62
     0
 10
207.12
 20
44.982
 30
0.0
 11
207.12
 21
50.782
 31
0.0
  0
LINE
  8
0
 62
     0
 10
207.12
 20
50.782
 30
0.0
 11
207.921
 21
50.782
 31
0.0
  0
LINE
  8
0
 62
     0
 10
207.921
 20
50.782
 30
0.0
 11
207.921
 21
53.8826
 31
0.0
  0
LINE
  8
0
 62
     0
 10
207.921
 20
53.8826
 30
0.0
 11
207.12
 21
53.8826
 31
0.0
  0
LINE
  8
0
 62
     0
 10
207.12
 20
53.8826
 30
0.0
 11
207.12
 21
54.8816
 31
0.0
  0
LINE
  8
0
 62
     0
 10
207.12
 20
54.8816
 30
0.0
 11
193.121
 21
54.8816
 31
0.0
  0
LINE
  8
0
 62
     0
 10
174.071
 20
54.8816
 30
0.0
 11
174.071
 21
53.8826
 31
0.0
  0
LINE
  8
0
 62
     0
 10
174.071
 20
53.8826
 30
0.0
 11
173.27
 21
53.8826
 31
0.0
  0
LINE
  8
0
 62
     0
 10
173.27
 20
53.8826
 30
0.0
 11
173.27
 21
50.782
 31
0.0
  0
LINE
  8
0
 62
     0
 10
173.27
 20
50.782
 30
0.0
 11
174.071
 21
50.782
 31
0.0
  0
LINE
  8
0
 62
     0
 10
174.071
 20
50.782
 30
0.0
 11
174.071
 21
44.982
 31
0.0
  0
LINE
  8
0
 62
     0
 10
174.071
 20
44.982
 30
0.0
 11
173.27
 21
44.982
 31
0.0
  0
LINE
  8
0
 62
     0
 10
173.27
 20
44.982
 30
0.0
 11
173.27
 21
41.8828
 31
0.0
  0
LINE
  8
0
 62
     0
 10
173.27
 20
41.8828
 30
0.0
 11
174.071
 21
41.8828
 31
0.0
  0
LINE
  8
0
 62
     0
 10
174.071
 20
41.8828
 30
0.0
 11
174.071
 21
40.8824
 31
0.0
  0
LINE
  8
0
 62
     0
 10
174.071
 20
40.8824
 30
0.0
 11
188.07
 21
40.8824
 31
0.0
  0
LINE
  8
0
 62
     0
 10
188.07
 20
40.8824
 30
0.0
 11
188.07
 21
41.8828
 31
0.0
  0
LINE
  8
0
 62
     0
 10
188.07
 20
41.8828
 30
0.0
 11
188.871
 21
41.8828
 31
0.0
  0
LINE
  8
0
 62
     0
 10
188.871
 20
41.8828
 30
0.0
 11
188.871
 21
44.982
 31
0.0
  0
LINE
  8
0
 62
     0
 10
188.871
 20
44.982
 30
0.0
 11
188.07
 21
44.982
 31
0.0
  0
LINE
  8
0
 62
     0
 10
188.07
 20
44.982
 30
0.0
 11
188.07
 21
50.782
 31
0.0
  0
LINE
  8
0
 62
     0
 10
188.07
 20
50.782
 30
0.0
 11
188.871
 21
50.782
 31
0.0
  0
LINE
  8
0
 62
     0
 10
188.871
 20
50.782
 30
0.0
 11
188.871
 21
53.8826
 31
0.0
  0
LINE
  8
0
 62
     0
 10
188.871
 20
53.8826
 30
0.0
 11
188.07
 21
53.8826
 31
0.0
  0
LINE
  8
0
 62
     0
 10
188.07
 20
53.8826
 30
0.0
 11
188.07
 21
54.8816
 31
0.0
  0
LINE
  8
0
 62
     0
 10
188.07
 20
54.8816
 30
0.0
 11
174.071
 21
54.8816
 31
0.0
  0
LINE
  8
0
 62
     0
 10
155.021
 20
54.8816
 30
0.0
 11
155.021
 21
53.8826
 31
0.0
  0
LINE
  8
0
 62
     0
 10
155.021
 20
53.8826
 30
0.0
 11
154.22
 21
53.8826
 31
0.0
  0
LINE
  8
0
 62
     0
 10
154.22
 20
53.8826
 30
0.0
 11
154.22
 21
50.782
 31
0.0
  0
LINE
  8
0
 62
     0
 10
154.22
 20
50.782
 30
0.0
 11
155.021
 21
50.782
 31
0.0
  0
LINE
  8
0
 62
     0
 10
155.021
 20
50.782
 30
0.0
 11
155.021
 21
44.982
 31
0.0
  0
LINE
  8
0
 62
     0
 10
155.021
 20
44.982
 30
0.0
 11
154.22
 21
44.982
 31
0.0
  0
LINE
  8
0
 62
     0
 10
154.22
 20
44.982
 30
0.0
 11
154.22
 21
41.8828
 31
0.0
  0
LINE
  8
0
 62
     0
 10
154.22
 20
41.8828
 30
0.0
 11
155.021
 21
41.8828
 31
0.0
  0
LINE
  8
0
 62
     0
 10
155.021
 20
41.8828
 30
0.0
 11
155.021
 21
40.8824
 31
0.0
  0
LINE
  8
0
 62
     0
 10
155.021
 20
40.8824
 30
0.0
 11
169.02
 21
40.8824
 31
0.0
  0
LINE
  8
0
 62
     0
 10
169.02
 20
40.8824
 30
0.0
 11
169.02
 21
41.8828
 31
0.0
  0
LINE
  8
0
 62
     0
 10
169.02
 20
41.8828
 30
0.0
 11
169.821
 21
41.8828
 31
0.0
  0
LINE
  8
0
 62
     0
 10
169.821
 20
41.8828
 30
0.0
 11
169.821
 21
44.982
 31
0.0
  0
LINE
  8
0
 62
     0
 10
169.821
 20
44.982
 30
0.0
 11
169.02
 21
44.982
 31
0.0
  0
LINE
  8
0
 62
     0
 10
169.02
 20
44.982
 30
0.0
 11
169.02
 21
50.782
 31
0.0
  0
LINE
  8
0
 62
     0
 10
169.02
 20
50.782
 30
0.0
 11
169.821
 21
50.782
 31
0.0
  0
LINE
  8
0
 62
     0
 10
169.821
 20
50.782
 30
0.0
 11
169.821
 21
53.8826
 31
0.0
  0
LINE
  8
0
 62
     0
 10
169.821
 20
53.8826
 30
0.0
 11
169.02
 21
53.8826
 31
0.0
  0
LINE
  8
0
 62
     0
 10
169.02
 20
53.8826
 30
0.0
 11
169.02
 21
54.8816
 31
0.0
  0
LINE
  8
0
 62
     0
 10
169.02
 20
54.8816
 30
0.0
 11
155.021
 21
54.8816
 31
0.0
  0
LINE
  8
0
 62
     0
 10
135.971
 20
54.8816
 30
0.0
 11
135.971
 21
53.8826
 31
0.0
  0
LINE
  8
0
 62
     0
 10
135.971
 20
53.8826
 30
0.0
 11
135.17
 21
53.8826
 31
0.0
  0
LINE
  8
0
 62
     0
 10
135.17
 20
53.8826
 30
0.0
 11
135.17
 21
50.782
 31
0.0
  0
LINE
  8
0
 62
     0
 10
135.17
 20
50.782
 30
0.0
 11
135.971
 21
50.782
 31
0.0
  0
LINE
  8
0
 62
     0
 10
135.971
 20
50.782
 30
0.0
 11
135.971
 21
44.982
 31
0.0
  0
LINE
  8
0
 62
     0
 10
135.971
 20
44.982
 30
0.0
 11
135.17
 21
44.982
 31
0.0
  0
LINE
  8
0
 62
     0
 10
135.17
 20
44.982
 30
0.0
 11
135.17
 21
41.8828
 31
0.0
  0
LINE
  8
0
 62
     0
 10
135.17
 20
41.8828
 30
0.0
 11
135.971
 21
41.8828
 31
0.0
  0
LINE
  8
0
 62
     0
 10
135.971
 20
41.8828
 30
0.0
 11
135.971
 21
40.8824
 31
0.0
  0
LINE
  8
0
 62
     0
 10
135.971
 20
40.8824
 30
0.0
 11
149.97
 21
40.8824
 31
0.0
  0
LINE
  8
0
 62
     0
 10
149.97
 20
40.8824
 30
0.0
 11
149.97
 21
41.8828
 31
0.0
  0
LINE
  8
0
 62
     0
 10
149.97
 20
41.8828
 30
0.0
 11
150.771
 21
41.8828
 31
0.0
  0
LINE
  8
0
 62
     0
 10
150.771
 20
41.8828
 30
0.0
 11
150.771
 21
44.982
 31
0.0
  0
LINE
  8
0
 62
     0
 10
150.771
 20
44.982
 30
0.0
 11
149.97
 21
44.982
 31
0.0
  0
LINE
  8
0
 62
     0
 10
149.97
 20
44.982
 30
0.0
 11
149.97
 21
50.782
 31
0.0
  0
LINE
  8
0
 62
     0
 10
149.97
 20
50.782
 30
0.0
 11
150.771
 21
50.782
 31
0.0
  0
LINE
  8
0
 62
     0
 10
150.771
 20
50.782
 30
0.0
 11
150.771
 21
53.8826
 31
0.0
  0
LINE
  8
0
 62
     0
 10
150.771
 20
53.8826
 30
0.0
 11
149.97
 21
53.8826
 31
0.0
  0
LINE
  8
0
 62
     0
 10
149.97
 20
53.8826
 30
0.0
 11
149.97
 21
54.8816
 31
0.0
  0
LINE
  8
0
 62
     0
 10
149.97
 20
54.8816
 30
0.0
 11
135.971
 21
54.8816
 31
0.0
  0
LINE
  8
0
 62
     0
 10
116.92
 20
54.8816
 30
0.0
 11
116.92
 21
53.8826
 31
0.0
  0
LINE
  8
0
 62
     0
 10
116.92
 20
53.8826
 30
0.0
 11
116.119
 21
53.8826
 31
0.0
  0
LINE
  8
0
 62
     0
 10
116.119
 20
53.8826
 30
0.0
 11
116.119
 21
50.782
 31
0.0
  0
LINE
  8
0
 62
     0
 10
116.119
 20
50.782
 30
0.0
 11
116.92
 21
50.782
 31
0.0
  0
LINE
  8
0
 62
     0
 10
116.92
 20
50.782
 30
0.0
 11
116.92
 21
44.982
 31
0.0
  0
LINE
  8
0
 62
     0
 10
116.92
 20
44.982
 30
0.0
 11
116.119
 21
44.982
 31
0.0
  0
LINE
  8
0
 62
     0
 10
116.119
 20
44.982
 30
0.0
 11
116.119
 21
41.8828
 31
0.0
  0
LINE
  8
0
 62
     0
 10
116.119
 20
41.8828
 30
0.0
 11
116.92
 21
41.8828
 31
0.0
  0
LINE
  8
0
 62
     0
 10
116.92
 20
41.8828
 30
0.0
 11
116.92
 21
40.8824
 31
0.0
  0
LINE
  8
0
 62
     0
 10
116.92
 20
40.8824
 30
0.0
 11
130.92
 21
40.8824
 31
0.0
  0
LINE
  8
0
 62
     0
 10
130.92
 20
40.8824
 30
0.0
 11
130.92
 21
41.8828
 31
0.0
  0
LINE
  8
0
 62
     0
 10
130.92
 20
41.8828
 30
0.0
 11
131.721
 21
41.8828
 31
0.0
  0
LINE
  8
0
 62
     0
 10
131.721
 20
41.8828
 30
0.0
 11
131.721
 21
44.982
 31
0.0
  0
LINE
  8
0
 62
     0
 10
131.721
 20
44.982
 30
0.0
 11
130.92
 21
44.982
 31
0.0
  0
LINE
  8
0
 62
     0
 10
130.92
 20
44.982
 30
0.0
 11
130.92
 21
50.782
 31
0.0
  0
LINE
  8
0
 62
     0
 10
130.92
 20
50.782
 30
0.0
 11
131.721
 21
50.782
 31
0.0
  0
LINE
  8
0
 62
     0
 10
131.721
 20
50.782
 30
0.0
 11
131.721
 21
53.8826
 31
0.0
  0
LINE
  8
0
 62
     0
 10
131.721
 20
53.8826
 30
0.0
 11
130.92
 21
53.8826
 31
0.0
  0
LINE
  8
0
 62
     0
 10
130.92
 20
53.8826
 30
0.0
 11
130.92
 21
54.8816
 31
0.0
  0
LINE
  8
0
 62
     0
 10
130.92
 20
54.8816
 30
0.0
 11
116.92
 21
54.8816
 31
0.0
  0
LINE
  8
0
 62
     0
 10
97.8697
 20
54.8816
 30
0.0
 11
97.8697
 21
53.8826
 31
0.0
  0
LINE
  8
0
 62
     0
 10
97.8697
 20
53.8826
 30
0.0
 11
97.0703
 21
53.8826
 31
0.0
  0
LINE
  8
0
 62
     0
 10
97.0703
 20
53.8826
 30
0.0
 11
97.0703
 21
50.782
 31
0.0
  0
LINE
  8
0
 62
     0
 10
97.0703
 20
50.782
 30
0.0
 11
97.8697
 21
50.782
 31
0.0
  0
LINE
  8
0
 62
     0
 10
97.8697
 20
50.782
 30
0.0
 11
97.8697
 21
44.982
 31
0.0
  0
LINE
  8
0
 62
     0
 10
97.8697
 20
44.982
 30
0.0
 11
97.0703
 21
44.982
 31
0.0
  0
LINE
  8
0
 62
     0
 10
97.0703
 20
44.982
 30
0.0
 11
97.0703
 21
41.8828
 31
0.0
  0
LINE
  8
0
 62
     0
 10
97.0703
 20
41.8828
 30
0.0
 11
97.8697
 21
41.8828
 31
0.0
  0
LINE
  8
0
 62
     0
 10
97.8697
 20
41.8828
 30
0.0
 11
97.8697
 21
40.8824
 31
0.0
  0
LINE
  8
0
 62
     0
 10
97.8697
 20
40.8824
 30
0.0
 11
111.869
 21
40.8824
 31
0.0
  0
LINE
  8
0
 62
     0
 10
111.869
 20
40.8824
 30
0.0
 11
111.869
 21
41.8828
 31
0.0
  0
LINE
  8
0
 62
     0
 10
111.869
 20
41.8828
 30
0.0
 11
112.67
 21
41.8828
 31
0.0
  0
LINE
  8
0
 62
     0
 10
112.67
 20
41.8828
 30
0.0
 11
112.67
 21
44.982
 31
0.0
  0
LINE
  8
0
 62
     0
 10
112.67
 20
44.982
 30
0.0
 11
111.869
 21
44.982
 31
0.0
  0
LINE
  8
0
 62
     0
 10
111.869
 20
44.982
 30
0.0
 11
111.869
 21
50.782
 31
0.0
  0
LINE
  8
0
 62
     0
 10
111.869
 20
50.782
 30
0.0
 11
112.67
 21
50.782
 31
0.0
  0
LINE
  8
0
 62
     0
 10
112.67
 20
50.782
 30
0.0
 11
112.67
 21
53.8826
 31
0.0
  0
LINE
  8
0
 62
     0
 10
112.67
 20
53.8826
 30
0.0
 11
111.869
 21
53.8826
 31
0.0
  0
LINE
  8
0
 62
     0
 10
111.869
 20
53.8826
 30
0.0
 11
111.869
 21
54.8816
 31
0.0
  0
LINE
  8
0
 62
     0
 10
111.869
 20
54.8816
 30
0.0
 11
97.8697
 21
54.8816
 31
0.0
  0
LINE
  8
0
 62
     0
 10
78.8211
 20
54.8816
 30
0.0
 11
78.8211
 21
53.8826
 31
0.0
  0
LINE
  8
0
 62
     0
 10
78.8211
 20
53.8826
 30
0.0
 11
78.0203
 21
53.8826
 31
0.0
  0
LINE
  8
0
 62
     0
 10
78.0203
 20
53.8826
 30
0.0
 11
78.0203
 21
50.782
 31
0.0
  0
LINE
  8
0
 62
     0
 10
78.0203
 20
50.782
 30
0.0
 11
78.8211
 21
50.782
 31
0.0
  0
LINE
  8
0
 62
     0
 10
78.8211
 20
50.782
 30
0.0
 11
78.8211
 21
44.982
 31
0.0
  0
LINE
  8
0
 62
     0
 10
78.8211
 20
44.982
 30
0.0
 11
78.0203
 21
44.982
 31
0.0
  0
LINE
  8
0
 62
     0
 10
78.0203
 20
44.982
 30
0.0
 11
78.0203
 21
41.8828
 31
0.0
  0
LINE
  8
0
 62
     0
 10
78.0203
 20
41.8828
 30
0.0
 11
78.8211
 21
41.8828
 31
0.0
  0
LINE
  8
0
 62
     0
 10
78.8211
 20
41.8828
 30
0.0
 11
78.8211
 21
40.8824
 31
0.0
  0
LINE
  8
0
 62
     0
 10
78.8211
 20
40.8824
 30
0.0
 11
92.8204
 21
40.8824
 31
0.0
  0
LINE
  8
0
 62
     0
 10
92.8204
 20
40.8824
 30
0.0
 11
92.8204
 21
41.8828
 31
0.0
  0
LINE
  8
0
 62
     0
 10
92.8204
 20
41.8828
 30
0.0
 11
93.6198
 21
41.8828
 31
0.0
  0
LINE
  8
0
 62
     0
 10
93.6198
 20
41.8828
 30
0.0
 11
93.6198
 21
44.982
 31
0.0
  0
LINE
  8
0
 62
     0
 10
93.6198
 20
44.982
 30
0.0
 11
92.8204
 21
44.982
 31
0.0
  0
LINE
  8
0
 62
     0
 10
92.8204
 20
44.982
 30
0.0
 11
92.8204
 21
50.782
 31
0.0
  0
LINE
  8
0
 62
     0
 10
92.8204
 20
50.782
 30
0.0
 11
93.6198
 21
50.782
 31
0.0
  0
LINE
  8
0
 62
     0
 10
93.6198
 20
50.782
 30
0.0
 11
93.6198
 21
53.8826
 31
0.0
  0
LINE
  8
0
 62
     0
 10
93.6198
 20
53.8826
 30
0.0
 11
92.8204
 21
53.8826
 31
0.0
  0
LINE
  8
0
 62
     0
 10
92.8204
 20
53.8826
 30
0.0
 11
92.8204
 21
54.8816
 31
0.0
  0
LINE
  8
0
 62
     0
 10
92.8204
 20
54.8816
 30
0.0
 11
78.8211
 21
54.8816
 31
0.0
  0
LINE
  8
0
 62
     0
 10
59.7711
 20
54.8816
 30
0.0
 11
59.7711
 21
53.8826
 31
0.0
  0
LINE
  8
0
 62
     0
 10
59.7711
 20
53.8826
 30
0.0
 11
58.9703
 21
53.8826
 31
0.0
  0
LINE
  8
0
 62
     0
 10
58.9703
 20
53.8826
 30
0.0
 11
58.9703
 21
50.782
 31
0.0
  0
LINE
  8
0
 62
     0
 10
58.9703
 20
50.782
 30
0.0
 11
59.7711
 21
50.782
 31
0.0
  0
LINE
  8
0
 62
     0
 10
59.7711
 20
50.782
 30
0.0
 11
59.7711
 21
44.982
 31
0.0
  0
LINE
  8
0
 62
     0
 10
59.7711
 20
44.982
 30
0.0
 11
58.9703
 21
44.982
 31
0.0
  0
LINE
  8
0
 62
     0
 10
58.9703
 20
44.982
 30
0.0
 11
58.9703
 21
41.8828
 31
0.0
  0
LINE
  8
0
 62
     0
 10
58.9703
 20
41.8828
 30
0.0
 11
59.7711
 21
41.8828
 31
0.0
  0
LINE
  8
0
 62
     0
 10
59.7711
 20
41.8828
 30
0.0
 11
59.7711
 21
40.8824
 31
0.0
  0
LINE
  8
0
 62
     0
 10
59.7711
 20
40.8824
 30
0.0
 11
73.7704
 21
40.8824
 31
0.0
  0
LINE
  8
0
 62
     0
 10
73.7704
 20
40.8824
 30
0.0
 11
73.7704
 21
41.8828
 31
0.0
  0
LINE
  8
0
 62
     0
 10
73.7704
 20
41.8828
 30
0.0
 11
74.5712
 21
41.8828
 31
0.0
  0
LINE
  8
0
 62
     0
 10
74.5712
 20
41.8828
 30
0.0
 11
74.5712
 21
44.982
 31
0.0
  0
LINE
  8
0
 62
     0
 10
74.5712
 20
44.982
 30
0.0
 11
73.7704
 21
44.982
 31
0.0
  0
LINE
  8
0
 62
     0
 10
73.7704
 20
44.982
 30
0.0
 11
73.7704
 21
50.782
 31
0.0
  0
LINE
  8
0
 62
     0
 10
73.7704
 20
50.782
 30
0.0
 11
74.5712
 21
50.782
 31
0.0
  0
LINE
  8
0
 62
     0
 10
74.5712
 20
50.782
 30
0.0
 11
74.5712
 21
53.8826
 31
0.0
  0
LINE
  8
0
 62
     0
 10
74.5712
 20
53.8826
 30
0.0
 11
73.7704
 21
53.8826
 31
0.0
  0
LINE
  8
0
 62
     0
 10
73.7704
 20
53.8826
 30
0.0
 11
73.7704
 21
54.8816
 31
0.0
  0
LINE
  8
0
 62
     0
 10
73.7704
 20
54.8816
 30
0.0
 11
59.7711
 21
54.8816
 31
0.0
  0
LINE
  8
0
 62
     0
 10
40.7211
 20
54.8816
 30
0.0
 11
40.7211
 21
53.8826
 31
0.0
  0
LINE
  8
0
 62
     0
 10
40.7211
 20
53.8826
 30
0.0
 11
39.9203
 21
53.8826
 31
0.0
  0
LINE
  8
0
 62
     0
 10
39.9203
 20
53.8826
 30
0.0
 11
39.9203
 21
50.782
 31
0.0
  0
LINE
  8
0
 62
     0
 10
39.9203
 20
50.782
 30
0.0
 11
40.7211
 21
50.782
 31
0.0
  0
LINE
  8
0
 62
     0
 10
40.7211
 20
50.782
 30
0.0
 11
40.7211
 21
44.982
 31
0.0
  0
LINE
  8
0
 62
     0
 10
40.7211
 20
44.982
 30
0.0
 11
39.9203
 21
44.982
 31
0.0
  0
LINE
  8
0
 62
     0
 10
39.9203
 20
44.982
 30
0.0
 11
39.9203
 21
41.8828
 31
0.0
  0
LINE
  8
0
 62
     0
 10
39.9203
 20
41.8828
 30
0.0
 11
40.7211
 21
41.8828
 31
0.0
  0
LINE
  8
0
 62
     0
 10
40.7211
 20
41.8828
 30
0.0
 11
40.7211
 21
40.8824
 31
0.0
  0
LINE
  8
0
 62
     0
 10
40.7211
 20
40.8824
 30
0.0
 11
54.7204
 21
40.8824
 31
0.0
  0
LINE
  8
0
 62
     0
 10
54.7204
 20
40.8824
 30
0.0
 11
54.7204
 21
41.8828
 31
0.0
  0
LINE
  8
0
 62
     0
 10
54.7204
 20
41.8828
 30
0.0
 11
55.5212
 21
41.8828
 31
0.0
  0
LINE
  8
0
 62
     0
 10
55.5212
 20
41.8828
 30
0.0
 11
55.5212
 21
44.982
 31
0.0
  0
LINE
  8
0
 62
     0
 10
55.5212
 20
44.982
 30
0.0
 11
54.7204
 21
44.982
 31
0.0
  0
LINE
  8
0
 62
     0
 10
54.7204
 20
44.982
 30
0.0
 11
54.7204
 21
50.782
 31
0.0
  0
LINE
  8
0
 62
     0
 10
54.7204
 20
50.782
 30
0.0
 11
55.5212
 21
50.782
 31
0.0
  0
LINE
  8
0
 62
     0
 10
55.5212
 20
50.782
 30
0.0
 11
55.5212
 21
53.8826
 31
0.0
  0
LINE
  8
0
 62
     0
 10
55.5212
 20
53.8826
 30
0.0
 11
54.7204
 21
53.8826
 31
0.0
  0
LINE
  8
0
 62
     0
 10
54.7204
 20
53.8826
 30
0.0
 11
54.7204
 21
54.8816
 31
0.0
  0
LINE
  8
0
 62
     0
 10
54.7204
 20
54.8816
 30
0.0
 11
40.7211
 21
54.8816
 31
0.0
  0
LINE
  8
0
 62
     0
 10
21.671
 20
54.8816
 30
0.0
 11
21.671
 21
53.8826
 31
0.0
  0
LINE
  8
0
 62
     0
 10
21.671
 20
53.8826
 30
0.0
 11
20.8704
 21
53.8826
 31
0.0
  0
LINE
  8
0
 62
     0
 10
20.8704
 20
53.8826
 30
0.0
 11
20.8704
 21
50.782
 31
0.0
  0
LINE
  8
0
 62
     0
 10
20.8704
 20
50.782
 30
0.0
 11
21.671
 21
50.782
 31
0.0
  0
LINE
  8
0
 62
     0
 10
21.671
 20
50.782
 30
0.0
 11
21.671
 21
44.982
 31
0.0
  0
LINE
  8
0
 62
     0
 10
21.671
 20
44.982
 30
0.0
 11
20.8704
 21
44.982
 31
0.0
  0
LINE
  8
0
 62
     0
 10
20.8704
 20
44.982
 30
0.0
 11
20.8704
 21
41.8828
 31
0.0
  0
LINE
  8
0
 62
     0
 10
20.8704
 20
41.8828
 30
0.0
 11
21.671
 21
41.8828
 31
0.0
  0
LINE
  8
0
 62
     0
 10
21.671
 20
41.8828
 30
0.0
 11
21.671
 21
40.8824
 31
0.0
  0
LINE
  8
0
 62
     0
 10
21.671
 20
40.8824
 30
0.0
 11
35.6704
 21
40.8824
 31
0.0
  0
LINE
  8
0
 62
     0
 10
35.6704
 20
40.8824
 30
0.0
 11
35.6704
 21
41.8828
 31
0.0
  0
LINE
  8
0
 62
     0
 10
35.6704
 20
41.8828
 30
0.0
 11
36.4712
 21
41.8828
 31
0.0
  0
LINE
  8
0
 62
     0
 10
36.4712
 20
41.8828
 30
0.0
 11
36.4712
 21
44.982
 31
0.0
  0
LINE
  8
0
 62
     0
 10
36.4712
 20
44.982
 30
0.0
 11
35.6704
 21
44.982
 31
0.0
  0
LINE
  8
0
 62
     0
 10
35.6704
 20
44.982
 30
0.0
 11
35.6704
 21
50.782
 31
0.0
  0
LINE
  8
0
 62
     0
 10
35.6704
 20
50.782
 30
0.0
 11
36.4712
 21
50.782
 31
0.0
  0
LINE
  8
0
 62
     0
 10
36.4712
 20
50.782
 30
0.0
 11
36.4712
 21
53.8826
 31
0.0
  0
LINE
  8
0
 62
     0
 10
36.4712
 20
53.8826
 30
0.0
 11
35.6704
 21
53.8826
 31
0.0
  0
LINE
  8
0
 62
     0
 10
35.6704
 20
53.8826
 30
0.0
 11
35.6704
 21
54.8816
 31
0.0
  0
LINE
  8
0
 62
     0
 10
35.6704
 20
54.8816
 30
0.0
 11
21.671
 21
54.8816
 31
0.0
  0
LINE
  8
0
 62
     0
 10
2.62103
 20
54.8816
 30
0.0
 11
2.62103
 21
53.8826
 31
0.0
  0
LINE
  8
0
 62
     0
 10
2.62103
 20
53.8826
 30
0.0
 11
1.82039
 21
53.8826
 31
0.0
  0
LINE
  8
0
 62
     0
 10
1.82039
 20
53.8826
 30
0.0
 11
1.82039
 21
50.782
 31
0.0
  0
LINE
  8
0
 62
     0
 10
1.82039
 20
50.782
 30
0.0
 11
2.62103
 21
50.782
 31
0.0
  0
LINE
  8
0
 62
     0
 10
2.62103
 20
50.782
 30
0.0
 11
2.62103
 21
44.982
 31
0.0
  0
LINE
  8
0
 62
     0
 10
2.62103
 20
44.982
 30
0.0
 11
1.82039
 21
44.982
 31
0.0
  0
LINE
  8
0
 62
     0
 10
1.82039
 20
44.982
 30
0.0
 11
1.82039
 21
41.8828
 31
0.0
  0
LINE
  8
0
 62
     0
 10
1.82039
 20
41.8828
 30
0.0
 11
2.62103
 21
41.8828
 31
0.0
  0
LINE
  8
0
 62
     0
 10
2.62103
 20
41.8828
 30
0.0
 11
2.62103
 21
40.8824
 31
0.0
  0
LINE
  8
0
 62
     0
 10
2.62103
 20
40.8824
 30
0.0
 11
16.6205
 21
40.8824
 31
0.0
  0
LINE
  8
0
 62
     0
 10
16.6205
 20
40.8824
 30
0.0
 11
16.6205
 21
41.8828
 31
0.0
  0
LINE
  8
0
 62
     0
 10
16.6205
 20
41.8828
 30
0.0
 11
17.4212
 21
41.8828
 31
0.0
  0
LINE
  8
0
 62
     0
 10
17.4212
 20
41.8828
 30
0.0
 11
17.4212
 21
44.982
 31
0.0
  0
LINE
  8
0
 62
     0
 10
17.4212
 20
44.982
 30
0.0
 11
16.6205
 21
44.982
 31
0.0
  0
LINE
  8
0
 62
     0
 10
16.6205
 20
44.982
 30
0.0
 11
16.6205
 21
50.782
 31
0.0
  0
LINE
  8
0
 62
     0
 10
16.6205
 20
50.782
 30
0.0
 11
17.4212
 21
50.782
 31
0.0
  0
LINE
  8
0
 62
     0
 10
17.4212
 20
50.782
 30
0.0
 11
17.4212
 21
53.8826
 31
0.0
  0
LINE
  8
0
 62
     0
 10
17.4212
 20
53.8826
 30
0.0
 11
16.6205
 21
53.8826
 31
0.0
  0
LINE
  8
0
 62
     0
 10
16.6205
 20
53.8826
 30
0.0
 11
16.6205
 21
54.8816
 31
0.0
  0
LINE
  8
0
 62
     0
 10
16.6205
 20
54.8816
 30
0.0
 11
2.62103
 21
54.8816
 31
0.0
  0
LINE
  8
0
 62
     0
 10
212.171
 20
73.9316
 30
0.0
 11
212.171
 21
72.9326
 31
0.0
  0
LINE
  8
0
 62
     0
 10
212.171
 20
72.9326
 30
0.0
 11
211.37
 21
72.9326
 31
0.0
  0
LINE
  8
0
 62
     0
 10
211.37
 20
72.9326
 30
0.0
 11
211.37
 21
69.832
 31
0.0
  0
LINE
  8
0
 62
     0
 10
211.37
 20
69.832
 30
0.0
 11
212.171
 21
69.832
 31
0.0
  0
LINE
  8
0
 62
     0
 10
212.171
 20
69.832
 30
0.0
 11
212.171
 21
64.032
 31
0.0
  0
LINE
  8
0
 62
     0
 10
212.171
 20
64.032
 30
0.0
 11
211.37
 21
64.032
 31
0.0
  0
LINE
  8
0
 62
     0
 10
211.37
 20
64.032
 30
0.0
 11
211.37
 21
60.9328
 31
0.0
  0
LINE
  8
0
 62
     0
 10
211.37
 20
60.9328
 30
0.0
 11
212.171
 21
60.9328
 31
0.0
  0
LINE
  8
0
 62
     0
 10
212.171
 20
60.9328
 30
0.0
 11
212.171
 21
59.9324
 31
0.0
  0
LINE
  8
0
 62
     0
 10
212.171
 20
59.9324
 30
0.0
 11
226.17
 21
59.9324
 31
0.0
  0
LINE
  8
0
 62
     0
 10
226.17
 20
59.9324
 30
0.0
 11
226.17
 21
60.9328
 31
0.0
  0
LINE
  8
0
 62
     0
 10
226.17
 20
60.9328
 30
0.0
 11
226.971
 21
60.9328
 31
0.0
  0
LINE
  8
0
 62
     0
 10
226.971
 20
60.9328
 30
0.0
 11
226.971
 21
64.032
 31
0.0
  0
LINE
  8
0
 62
     0
 10
226.971
 20
64.032
 30
0.0
 11
226.17
 21
64.032
 31
0.0
  0
LINE
  8
0
 62
     0
 10
226.17
 20
64.032
 30
0.0
 11
226.17
 21
69.832
 31
0.0
  0
LINE
  8
0
 62
     0
 10
226.17
 20
69.832
 30
0.0
 11
226.971
 21
69.832
 31
0.0
  0
LINE
  8
0
 62
     0
 10
226.971
 20
69.832
 30
0.0
 11
226.971
 21
72.9326
 31
0.0
  0
LINE
  8
0
 62
     0
 10
226.971
 20
72.9326
 30
0.0
 11
226.17
 21
72.9326
 31
0.0
  0
LINE
  8
0
 62
     0
 10
226.17
 20
72.9326
 30
0.0
 11
226.17
 21
73.9316
 31
0.0
  0
LINE
  8
0
 62
     0
 10
226.17
 20
73.9316
 30
0.0
 11
212.171
 21
73.9316
 31
0.0
  0
LINE
  8
0
 62
     0
 10
193.121
 20
73.9316
 30
0.0
 11
193.121
 21
72.9326
 31
0.0
  0
LINE
  8
0
 62
     0
 10
193.121
 20
72.9326
 30
0.0
 11
192.32
 21
72.9326
 31
0.0
  0
LINE
  8
0
 62
     0
 10
192.32
 20
72.9326
 30
0.0
 11
192.32
 21
69.832
 31
0.0
  0
LINE
  8
0
 62
     0
 10
192.32
 20
69.832
 30
0.0
 11
193.121
 21
69.832
 31
0.0
  0
LINE
  8
0
 62
     0
 10
193.121
 20
69.832
 30
0.0
 11
193.121
 21
64.032
 31
0.0
  0
LINE
  8
0
 62
     0
 10
193.121
 20
64.032
 30
0.0
 11
192.32
 21
64.032
 31
0.0
  0
LINE
  8
0
 62
     0
 10
192.32
 20
64.032
 30
0.0
 11
192.32
 21
60.9328
 31
0.0
  0
LINE
  8
0
 62
     0
 10
192.32
 20
60.9328
 30
0.0
 11
193.121
 21
60.9328
 31
0.0
  0
LINE
  8
0
 62
     0
 10
193.121
 20
60.9328
 30
0.0
 11
193.121
 21
59.9324
 31
0.0
  0
LINE
  8
0
 62
     0
 10
193.121
 20
59.9324
 30
0.0
 11
207.12
 21
59.9324
 31
0.0
  0
LINE
  8
0
 62
     0
 10
207.12
 20
59.9324
 30
0.0
 11
207.12
 21
60.9328
 31
0.0
  0
LINE
  8
0
 62
     0
 10
207.12
 20
60.9328
 30
0.0
 11
207.921
 21
60.9328
 31
0.0
  0
LINE
  8
0
 62
     0
 10
207.921
 20
60.9328
 30
0.0
 11
207.921
 21
64.032
 31
0.0
  0
LINE
  8
0
 62
     0
 10
207.921
 20
64.032
 30
0.0
 11
207.12
 21
64.032
 31
0.0
  0
LINE
  8
0
 62
     0
 10
207.12
 20
64.032
 30
0.0
 11
207.12
 21
69.832
 31
0.0
  0
LINE
  8
0
 62
     0
 10
207.12
 20
69.832
 30
0.0
 11
207.921
 21
69.832
 31
0.0
  0
LINE
  8
0
 62
     0
 10
207.921
 20
69.832
 30
0.0
 11
207.921
 21
72.9326
 31
0.0
  0
LINE
  8
0
 62
     0
 10
207.921
 20
72.9326
 30
0.0
 11
207.12
 21
72.9326
 31
0.0
  0
LINE
  8
0
 62
     0
 10
207.12
 20
72.9326
 30
0.0
 11
207.12
 21
73.9316
 31
0.0
  0
LINE
  8
0
 62
     0
 10
207.12
 20
73.9316
 30
0.0
 11
193.121
 21
73.9316
 31
0.0
  0
LINE
  8
0
 62
     0
 10
174.071
 20
73.9316
 30
0.0
 11
174.071
 21
72.9326
 31
0.0
  0
LINE
  8
0
 62
     0
 10
174.071
 20
72.9326
 30
0.0
 11
173.27
 21
72.9326
 31
0.0
  0
LINE
  8
0
 62
     0
 10
173.27
 20
72.9326
 30
0.0
 11
173.27
 21
69.832
 31
0.0
  0
LINE
  8
0
 62
     0
 10
173.27
 20
69.832
 30
0.0
 11
174.071
 21
69.832
 31
0.0
  0
LINE
  8
0
 62
     0
 10
174.071
 20
69.832
 30
0.0
 11
174.071
 21
64.032
 31
0.0
  0
LINE
  8
0
 62
     0
 10
174.071
 20
64.032
 30
0.0
 11
173.27
 21
64.032
 31
0.0
  0
LINE
  8
0
 62
     0
 10
173.27
 20
64.032
 30
0.0
 11
173.27
 21
60.9328
 31
0.0
  0
LINE
  8
0
 62
     0
 10
173.27
 20
60.9328
 30
0.0
 11
174.071
 21
60.9328
 31
0.0
  0
LINE
  8
0
 62
     0
 10
174.071
 20
60.9328
 30
0.0
 11
174.071
 21
59.9324
 31
0.0
  0
LINE
  8
0
 62
     0
 10
174.071
 20
59.9324
 30
0.0
 11
188.07
 21
59.9324
 31
0.0
  0
LINE
  8
0
 62
     0
 10
188.07
 20
59.9324
 30
0.0
 11
188.07
 21
60.9328
 31
0.0
  0
LINE
  8
0
 62
     0
 10
188.07
 20
60.9328
 30
0.0
 11
188.871
 21
60.9328
 31
0.0
  0
LINE
  8
0
 62
     0
 10
188.871
 20
60.9328
 30
0.0
 11
188.871
 21
64.032
 31
0.0
  0
LINE
  8
0
 62
     0
 10
188.871
 20
64.032
 30
0.0
 11
188.07
 21
64.032
 31
0.0
  0
LINE
  8
0
 62
     0
 10
188.07
 20
64.032
 30
0.0
 11
188.07
 21
69.832
 31
0.0
  0
LINE
  8
0
 62
     0
 10
188.07
 20
69.832
 30
0.0
 11
188.871
 21
69.832
 31
0.0
  0
LINE
  8
0
 62
     0
 10
188.871
 20
69.832
 30
0.0
 11
188.871
 21
72.9326
 31
0.0
  0
LINE
  8
0
 62
     0
 10
188.871
 20
72.9326
 30
0.0
 11
188.07
 21
72.9326
 31
0.0
  0
LINE
  8
0
 62
     0
 10
188.07
 20
72.9326
 30
0.0
 11
188.07
 21
73.9316
 31
0.0
  0
LINE
  8
0
 62
     0
 10
188.07
 20
73.9316
 30
0.0
 11
174.071
 21
73.9316
 31
0.0
  0
LINE
  8
0
 62
     0
 10
155.021
 20
73.9316
 30
0.0
 11
155.021
 21
72.9326
 31
0.0
  0
LINE
  8
0
 62
     0
 10
155.021
 20
72.9326
 30
0.0
 11
154.22
 21
72.9326
 31
0.0
  0
LINE
  8
0
 62
     0
 10
154.22
 20
72.9326
 30
0.0
 11
154.22
 21
69.832
 31
0.0
  0
LINE
  8
0
 62
     0
 10
154.22
 20
69.832
 30
0.0
 11
155.021
 21
69.832
 31
0.0
  0
LINE
  8
0
 62
     0
 10
155.021
 20
69.832
 30
0.0
 11
155.021
 21
64.032
 31
0.0
  0
LINE
  8
0
 62
     0
 10
155.021
 20
64.032
 30
0.0
 11
154.22
 21
64.032
 31
0.0
  0
LINE
  8
0
 62
     0
 10
154.22
 20
64.032
 30
0.0
 11
154.22
 21
60.9328
 31
0.0
  0
LINE
  8
0
 62
     0
 10
154.22
 20
60.9328
 30
0.0
 11
155.021
 21
60.9328
 31
0.0
  0
LINE
  8
0
 62
     0
 10
155.021
 20
60.9328
 30
0.0
 11
155.021
 21
59.9324
 31
0.0
  0
LINE
  8
0
 62
     0
 10
155.021
 20
59.9324
 30
0.0
 11
169.02
 21
59.9324
 31
0.0
  0
LINE
  8
0
 62
     0
 10
169.02
 20
59.9324
 30
0.0
 11
169.02
 21
60.9328
 31
0.0
  0
LINE
  8
0
 62
     0
 10
169.02
 20
60.9328
 30
0.0
 11
169.821
 21
60.9328
 31
0.0
  0
LINE
  8
0
 62
     0
 10
169.821
 20
60.9328
 30
0.0
 11
169.821
 21
64.032
 31
0.0
  0
LINE
  8
0
 62
     0
 10
169.821
 20
64.032
 30
0.0
 11
169.02
 21
64.032
 31
0.0
  0
LINE
  8
0
 62
     0
 10
169.02
 20
64.032
 30
0.0
 11
169.02
 21
69.832
 31
0.0
  0
LINE
  8
0
 62
     0
 10
169.02
 20
69.832
 30
0.0
 11
169.821
 21
69.832
 31
0.0
  0
LINE
  8
0
 62
     0
 10
169.821
 20
69.832
 30
0.0
 11
169.821
 21
72.9326
 31
0.0
  0
LINE
  8
0
 62
     0
 10
169.821
 20
72.9326
 30
0.0
 11
169.02
 21
72.9326
 31
0.0
  0
LINE
  8
0
 62
     0
 10
169.02
 20
72.9326
 30
0.0
 11
169.02
 21
73.9316
 31
0.0
  0
LINE
  8
0
 62
     0
 10
169.02
 20
73.9316
 30
0.0
 11
155.021
 21
73.9316
 31
0.0
  0
LINE
  8
0
 62
     0
 10
135.971
 20
73.9316
 30
0.0
 11
135.971
 21
72.9326
 31
0.0
  0
LINE
  8
0
 62
     0
 10
135.971
 20
72.9326
 30
0.0
 11
135.17
 21
72.9326
 31
0.0
  0
LINE
  8
0
 62
     0
 10
135.17
 20
72.9326
 30
0.0
 11
135.17
 21
69.832
 31
0.0
  0
LINE
  8
0
 62
     0
 10
135.17
 20
69.832
 30
0.0
 11
135.971
 21
69.832
 31
0.0
  0
LINE
  8
0
 62
     0
 10
135.971
 20
69.832
 30
0.0
 11
135.971
 21
64.032
 31
0.0
  0
LINE
  8
0
 62
     0
 10
135.971
 20
64.032
 30
0.0
 11
135.17
 21
64.032
 31
0.0
  0
LINE
  8
0
 62
     0
 10
135.17
 20
64.032
 30
0.0
 11
135.17
 21
60.9328
 31
0.0
  0
LINE
  8
0
 62
     0
 10
135.17
 20
60.9328
 30
0.0
 11
135.971
 21
60.9328
 31
0.0
  0
LINE
  8
0
 62
     0
 10
135.971
 20
60.9328
 30
0.0
 11
135.971
 21
59.9324
 31
0.0
  0
LINE
  8
0
 62
     0
 10
135.971
 20
59.9324
 30
0.0
 11
149.97
 21
59.9324
 31
0.0
  0
LINE
  8
0
 62
     0
 10
149.97
 20
59.9324
 30
0.0
 11
149.97
 21
60.9328
 31
0.0
  0
LINE
  8
0
 62
     0
 10
149.97
 20
60.9328
 30
0.0
 11
150.771
 21
60.9328
 31
0.0
  0
LINE
  8
0
 62
     0
 10
150.771
 20
60.9328
 30
0.0
 11
150.771
 21
64.032
 31
0.0
  0
LINE
  8
0
 62
     0
 10
150.771
 20
64.032
 30
0.0
 11
149.97
 21
64.032
 31
0.0
  0
LINE
  8
0
 62
     0
 10
149.97
 20
64.032
 30
0.0
 11
149.97
 21
69.832
 31
0.0
  0
LINE
  8
0
 62
     0
 10
149.97
 20
69.832
 30
0.0
 11
150.771
 21
69.832
 31
0.0
  0
LINE
  8
0
 62
     0
 10
150.771
 20
69.832
 30
0.0
 11
150.771
 21
72.9326
 31
0.0
  0
LINE
  8
0
 62
     0
 10
150.771
 20
72.9326
 30
0.0
 11
149.97
 21
72.9326
 31
0.0
  0
LINE
  8
0
 62
     0
 10
149.97
 20
72.9326
 30
0.0
 11
149.97
 21
73.9316
 31
0.0
  0
LINE
  8
0
 62
     0
 10
149.97
 20
73.9316
 30
0.0
 11
135.971
 21
73.9316
 31
0.0
  0
LINE
  8
0
 62
     0
 10
116.92
 20
73.9316
 30
0.0
 11
116.92
 21
72.9326
 31
0.0
  0
LINE
  8
0
 62
     0
 10
116.92
 20
72.9326
 30
0.0
 11
116.119
 21
72.9326
 31
0.0
  0
LINE
  8
0
 62
     0
 10
116.119
 20
72.9326
 30
0.0
 11
116.119
 21
69.832
 31
0.0
  0
LINE
  8
0
 62
     0
 10
116.119
 20
69.832
 30
0.0
 11
116.92
 21
69.832
 31
0.0
  0
LINE
  8
0
 62
     0
 10
116.92
 20
69.832
 30
0.0
 11
116.92
 21
64.032
 31
0.0
  0
LINE
  8
0
 62
     0
 10
116.92
 20
64.032
 30
0.0
 11
116.119
 21
64.032
 31
0.0
  0
LINE
  8
0
 62
     0
 10
116.119
 20
64.032
 30
0.0
 11
116.119
 21
60.9328
 31
0.0
  0
LINE
  8
0
 62
     0
 10
116.119
 20
60.9328
 30
0.0
 11
116.92
 21
60.9328
 31
0.0
  0
LINE
  8
0
 62
     0
 10
116.92
 20
60.9328
 30
0.0
 11
116.92
 21
59.9324
 31
0.0
  0
LINE
  8
0
 62
     0
 10
116.92
 20
59.9324
 30
0.0
 11
130.92
 21
59.9324
 31
0.0
  0
LINE
  8
0
 62
     0
 10
130.92
 20
59.9324
 30
0.0
 11
130.92
 21
60.9328
 31
0.0
  0
LINE
  8
0
 62
     0
 10
130.92
 20
60.9328
 30
0.0
 11
131.721
 21
60.9328
 31
0.0
  0
LINE
  8
0
 62
     0
 10
131.721
 20
60.9328
 30
0.0
 11
131.721
 21
64.032
 31
0.0
  0
LINE
  8
0
 62
     0
 10
131.721
 20
64.032
 30
0.0
 11
130.92
 21
64.032
 31
0.0
  0
LINE
  8
0
 62
     0
 10
130.92
 20
64.032
 30
0.0
 11
130.92
 21
69.832
 31
0.0
  0
LINE
  8
0
 62
     0
 10
130.92
 20
69.832
 30
0.0
 11
131.721
 21
69.832
 31
0.0
  0
LINE
  8
0
 62
     0
 10
131.721
 20
69.832
 30
0.0
 11
131.721
 21
72.9326
 31
0.0
  0
LINE
  8
0
 62
     0
 10
131.721
 20
72.9326
 30
0.0
 11
130.92
 21
72.9326
 31
0.0
  0
LINE
  8
0
 62
     0
 10
130.92
 20
72.9326
 30
0.0
 11
130.92
 21
73.9316
 31
0.0
  0
LINE
  8
0
 62
     0
 10
130.92
 20
73.9316
 30
0.0
 11
116.92
 21
73.9316
 31
0.0
  0
LINE
  8
0
 62
     0
 10
97.8697
 20
73.9316
 30
0.0
 11
97.8697
 21
72.9326
 31
0.0
  0
LINE
  8
0
 62
     0
 10
97.8697
 20
72.9326
 30
0.0
 11
97.0703
 21
72.9326
 31
0.0
  0
LINE
  8
0
 62
     0
 10
97.0703
 20
72.9326
 30
0.0
 11
97.0703
 21
69.832
 31
0.0
  0
LINE
  8
0
 62
     0
 10
97.0703
 20
69.832
 30
0.0
 11
97.8697
 21
69.832
 31
0.0
  0
LINE
  8
0
 62
     0
 10
97.8697
 20
69.832
 30
0.0
 11
97.8697
 21
64.032
 31
0.0
  0
LINE
  8
0
 62
     0
 10
97.8697
 20
64.032
 30
0.0
 11
97.0703
 21
64.032
 31
0.0
  0
LINE
  8
0
 62
     0
 10
97.0703
 20
64.032
 30
0.0
 11
97.0703
 21
60.9328
 31
0.0
  0
LINE
  8
0
 62
     0
 10
97.0703
 20
60.9328
 30
0.0
 11
97.8697
 21
60.9328
 31
0.0
  0
LINE
  8
0
 62
     0
 10
97.8697
 20
60.9328
 30
0.0
 11
97.8697
 21
59.9324
 31
0.0
  0
LINE
  8
0
 62
     0
 10
97.8697
 20
59.9324
 30
0.0
 11
111.869
 21
59.9324
 31
0.0
  0
LINE
  8
0
 62
     0
 10
111.869
 20
59.9324
 30
0.0
 11
111.869
 21
60.9328
 31
0.0
  0
LINE
  8
0
 62
     0
 10
111.869
 20
60.9328
 30
0.0
 11
112.67
 21
60.9328
 31
0.0
  0
LINE
  8
0
 62
     0
 10
112.67
 20
60.9328
 30
0.0
 11
112.67
 21
64.032
 31
0.0
  0
LINE
  8
0
 62
     0
 10
112.67
 20
64.032
 30
0.0
 11
111.869
 21
64.032
 31
0.0
  0
LINE
  8
0
 62
     0
 10
111.869
 20
64.032
 30
0.0
 11
111.869
 21
69.832
 31
0.0
  0
LINE
  8
0
 62
     0
 10
111.869
 20
69.832
 30
0.0
 11
112.67
 21
69.832
 31
0.0
  0
LINE
  8
0
 62
     0
 10
112.67
 20
69.832
 30
0.0
 11
112.67
 21
72.9326
 31
0.0
  0
LINE
  8
0
 62
     0
 10
112.67
 20
72.9326
 30
0.0
 11
111.869
 21
72.9326
 31
0.0
  0
LINE
  8
0
 62
     0
 10
111.869
 20
72.9326
 30
0.0
 11
111.869
 21
73.9316
 31
0.0
  0
LINE
  8
0
 62
     0
 10
111.869
 20
73.9316
 30
0.0
 11
97.8697
 21
73.9316
 31
0.0
  0
LINE
  8
0
 62
     0
 10
78.8211
 20
73.9316
 30
0.0
 11
78.8211
 21
72.9326
 31
0.0
  0
LINE
  8
0
 62
     0
 10
78.8211
 20
72.9326
 30
0.0
 11
78.0203
 21
72.9326
 31
0.0
  0
LINE
  8
0
 62
     0
 10
78.0203
 20
72.9326
 30
0.0
 11
78.0203
 21
69.832
 31
0.0
  0
LINE
  8
0
 62
     0
 10
78.0203
 20
69.832
 30
0.0
 11
78.8211
 21
69.832
 31
0.0
  0
LINE
  8
0
 62
     0
 10
78.8211
 20
69.832
 30
0.0
 11
78.8211
 21
64.032
 31
0.0
  0
LINE
  8
0
 62
     0
 10
78.8211
 20
64.032
 30
0.0
 11
78.0203
 21
64.032
 31
0.0
  0
LINE
  8
0
 62
     0
 10
78.0203
 20
64.032
 30
0.0
 11
78.0203
 21
60.9328
 31
0.0
  0
LINE
  8
0
 62
     0
 10
78.0203
 20
60.9328
 30
0.0
 11
78.8211
 21
60.9328
 31
0.0
  0
LINE
  8
0
 62
     0
 10
78.8211
 20
60.9328
 30
0.0
 11
78.8211
 21
59.9324
 31
0.0
  0
LINE
  8
0
 62
     0
 10
78.8211
 20
59.9324
 30
0.0
 11
92.8204
 21
59.9324
 31
0.0
  0
LINE
  8
0
 62
     0
 10
92.8204
 20
59.9324
 30
0.0
 11
92.8204
 21
60.9328
 31
0.0
  0
LINE
  8
0
 62
     0
 10
92.8204
 20
60.9328
 30
0.0
 11
93.6198
 21
60.9328
 31
0.0
  0
LINE
  8
0
 62
     0
 10
93.6198
 20
60.9328
 30
0.0
 11
93.6198
 21
64.032
 31
0.0
  0
LINE
  8
0
 62
     0
 10
93.6198
 20
64.032
 30
0.0
 11
92.8204
 21
64.032
 31
0.0
  0
LINE
  8
0
 62
     0
 10
92.8204
 20
64.032
 30
0.0
 11
92.8204
 21
69.832
 31
0.0
  0
LINE
  8
0
 62
     0
 10
92.8204
 20
69.832
 30
0.0
 11
93.6198
 21
69.832
 31
0.0
  0
LINE
  8
0
 62
     0
 10
93.6198
 20
69.832
 30
0.0
 11
93.6198
 21
72.9326
 31
0.0
  0
LINE
  8
0
 62
     0
 10
93.6198
 20
72.9326
 30
0.0
 11
92.8204
 21
72.9326
 31
0.0
  0
LINE
  8
0
 62
     0
 10
92.8204
 20
72.9326
 30
0.0
 11
92.8204
 21
73.9316
 31
0.0
  0
LINE
  8
0
 62
     0
 10
92.8204
 20
73.9316
 30
0.0
 11
78.8211
 21
73.9316
 31
0.0
  0
LINE
  8
0
 62
     0
 10
59.7711
 20
73.9316
 30
0.0
 11
59.7711
 21
72.9326
 31
0.0
  0
LINE
  8
0
 62
     0
 10
59.7711
 20
72.9326
 30
0.0
 11
58.9703
 21
72.9326
 31
0.0
  0
LINE
  8
0
 62
     0
 10
58.9703
 20
72.9326
 30
0.0
 11
58.9703
 21
69.832
 31
0.0
  0
LINE
  8
0
 62
     0
 10
58.9703
 20
69.832
 30
0.0
 11
59.7711
 21
69.832
 31
0.0
  0
LINE
  8
0
 62
     0
 10
59.7711
 20
69.832
 30
0.0
 11
59.7711
 21
64.032
 31
0.0
  0
LINE
  8
0
 62
     0
 10
59.7711
 20
64.032
 30
0.0
 11
58.9703
 21
64.032
 31
0.0
  0
LINE
  8
0
 62
     0
 10
58.9703
 20
64.032
 30
0.0
 11
58.9703
 21
60.9328
 31
0.0
  0
LINE
  8
0
 62
     0
 10
58.9703
 20
60.9328
 30
0.0
 11
59.7711
 21
60.9328
 31
0.0
  0
LINE
  8
0
 62
     0
 10
59.7711
 20
60.9328
 30
0.0
 11
59.7711
 21
59.9324
 31
0.0
  0
LINE
  8
0
 62
     0
 10
59.7711
 20
59.9324
 30
0.0
 11
73.7704
 21
59.9324
 31
0.0
  0
LINE
  8
0
 62
     0
 10
73.7704
 20
59.9324
 30
0.0
 11
73.7704
 21
60.9328
 31
0.0
  0
LINE
  8
0
 62
     0
 10
73.7704
 20
60.9328
 30
0.0
 11
74.5712
 21
60.9328
 31
0.0
  0
LINE
  8
0
 62
     0
 10
74.5712
 20
60.9328
 30
0.0
 11
74.5712
 21
64.032
 31
0.0
  0
LINE
  8
0
 62
     0
 10
74.5712
 20
64.032
 30
0.0
 11
73.7704
 21
64.032
 31
0.0
  0
LINE
  8
0
 62
     0
 10
73.7704
 20
64.032
 30
0.0
 11
73.7704
 21
69.832
 31
0.0
  0
LINE
  8
0
 62
     0
 10
73.7704
 20
69.832
 30
0.0
 11
74.5712
 21
69.832
 31
0.0
  0
LINE
  8
0
 62
     0
 10
74.5712
 20
69.832
 30
0.0
 11
74.5712
 21
72.9326
 31
0.0
  0
LINE
  8
0
 62
     0
 10
74.5712
 20
72.9326
 30
0.0
 11
73.7704
 21
72.9326
 31
0.0
  0
LINE
  8
0
 62
     0
 10
73.7704
 20
72.9326
 30
0.0
 11
73.7704
 21
73.9316
 31
0.0
  0
LINE
  8
0
 62
     0
 10
73.7704
 20
73.9316
 30
0.0
 11
59.7711
 21
73.9316
 31
0.0
  0
LINE
  8
0
 62
     0
 10
40.7211
 20
73.9316
 30
0.0
 11
40.7211
 21
72.9326
 31
0.0
  0
LINE
  8
0
 62
     0
 10
40.7211
 20
72.9326
 30
0.0
 11
39.9203
 21
72.9326
 31
0.0
  0
LINE
  8
0
 62
     0
 10
39.9203
 20
72.9326
 30
0.0
 11
39.9203
 21
69.832
 31
0.0
  0
LINE
  8
0
 62
     0
 10
39.9203
 20
69.832
 30
0.0
 11
40.7211
 21
69.832
 31
0.0
  0
LINE
  8
0
 62
     0
 10
40.7211
 20
69.832
 30
0.0
 11
40.7211
 21
64.032
 31
0.0
  0
LINE
  8
0
 62
     0
 10
40.7211
 20
64.032
 30
0.0
 11
39.9203
 21
64.032
 31
0.0
  0
LINE
  8
0
 62
     0
 10
39.9203
 20
64.032
 30
0.0
 11
39.9203
 21
60.9328
 31
0.0
  0
LINE
  8
0
 62
     0
 10
39.9203
 20
60.9328
 30
0.0
 11
40.7211
 21
60.9328
 31
0.0
  0
LINE
  8
0
 62
     0
 10
40.7211
 20
60.9328
 30
0.0
 11
40.7211
 21
59.9324
 31
0.0
  0
LINE
  8
0
 62
     0
 10
40.7211
 20
59.9324
 30
0.0
 11
54.7204
 21
59.9324
 31
0.0
  0
LINE
  8
0
 62
     0
 10
54.7204
 20
59.9324
 30
0.0
 11
54.7204
 21
60.9328
 31
0.0
  0
LINE
  8
0
 62
     0
 10
54.7204
 20
60.9328
 30
0.0
 11
55.5212
 21
60.9328
 31
0.0
  0
LINE
  8
0
 62
     0
 10
55.5212
 20
60.9328
 30
0.0
 11
55.5212
 21
64.032
 31
0.0
  0
LINE
  8
0
 62
     0
 10
55.5212
 20
64.032
 30
0.0
 11
54.7204
 21
64.032
 31
0.0
  0
LINE
  8
0
 62
     0
 10
54.7204
 20
64.032
 30
0.0
 11
54.7204
 21
69.832
 31
0.0
  0
LINE
  8
0
 62
     0
 10
54.7204
 20
69.832
 30
0.0
 11
55.5212
 21
69.832
 31
0.0
  0
LINE
  8
0
 62
     0
 10
55.5212
 20
69.832
 30
0.0
 11
55.5212
 21
72.9326
 31
0.0
  0
LINE
  8
0
 62
     0
 10
55.5212
 20
72.9326
 30
0.0
 11
54.7204
 21
72.9326
 31
0.0
  0
LINE
  8
0
 62
     0
 10
54.7204
 20
72.9326
 30
0.0
 11
54.7204
 21
73.9316
 31
0.0
  0
LINE
  8
0
 62
     0
 10
54.7204
 20
73.9316
 30
0.0
 11
40.7211
 21
73.9316
 31
0.0
  0
LINE
  8
0
 62
     0
 10
21.671
 20
73.9316
 30
0.0
 11
21.671
 21
72.9326
 31
0.0
  0
LINE
  8
0
 62
     0
 10
21.671
 20
72.9326
 30
0.0
 11
20.8704
 21
72.9326
 31
0.0
  0
LINE
  8
0
 62
     0
 10
20.8704
 20
72.9326
 30
0.0
 11
20.8704
 21
69.832
 31
0.0
  0
LINE
  8
0
 62
     0
 10
20.8704
 20
69.832
 30
0.0
 11
21.671
 21
69.832
 31
0.0
  0
LINE
  8
0
 62
     0
 10
21.671
 20
69.832
 30
0.0
 11
21.671
 21
64.032
 31
0.0
  0
LINE
  8
0
 62
     0
 10
21.671
 20
64.032
 30
0.0
 11
20.8704
 21
64.032
 31
0.0
  0
LINE
  8
0
 62
     0
 10
20.8704
 20
64.032
 30
0.0
 11
20.8704
 21
60.9328
 31
0.0
  0
LINE
  8
0
 62
     0
 10
20.8704
 20
60.9328
 30
0.0
 11
21.671
 21
60.9328
 31
0.0
  0
LINE
  8
0
 62
     0
 10
21.671
 20
60.9328
 30
0.0
 11
21.671
 21
59.9324
 31
0.0
  0
LINE
  8
0
 62
     0
 10
21.671
 20
59.9324
 30
0.0
 11
35.6704
 21
59.9324
 31
0.0
  0
LINE
  8
0
 62
     0
 10
35.6704
 20
59.9324
 30
0.0
 11
35.6704
 21
60.9328
 31
0.0
  0
LINE
  8
0
 62
     0
 10
35.6704
 20
60.9328
 30
0.0
 11
36.4712
 21
60.9328
 31
0.0
  0
LINE
  8
0
 62
     0
 10
36.4712
 20
60.9328
 30
0.0
 11
36.4712
 21
64.032
 31
0.0
  0
LINE
  8
0
 62
     0
 10
36.4712
 20
64.032
 30
0.0
 11
35.6704
 21
64.032
 31
0.0
  0
LINE
  8
0
 62
     0
 10
35.6704
 20
64.032
 30
0.0
 11
35.6704
 21
69.832
 31
0.0
  0
LINE
  8
0
 62
     0
 10
35.6704
 20
69.832
 30
0.0
 11
36.4712
 21
69.832
 31
0.0
  0
LINE
  8
0
 62
     0
 10
36.4712
 20
69.832
 30
0.0
 11
36.4712
 21
72.9326
 31
0.0
  0
LINE
  8
0
 62
     0
 10
36.4712
 20
72.9326
 30
0.0
 11
35.6704
 21
72.9326
 31
0.0
  0
LINE
  8
0
 62
     0
 10
35.6704
 20
72.9326
 30
0.0
 11
35.6704
 21
73.9316
 31
0.0
  0
LINE
  8
0
 62
     0
 10
35.6704
 20
73.9316
 30
0.0
 11
21.671
 21
73.9316
 31
0.0
  0
LINE
  8
0
 62
     0
 10
2.62103
 20
73.9316
 30
0.0
 11
2.62103
 21
72.9326
 31
0.0
  0
LINE
  8
0
 62
     0
 10
2.62103
 20
72.9326
 30
0.0
 11
1.82039
 21
72.9326
 31
0.0
  0
LINE
  8
0
 62
     0
 10
1.82039
 20
72.9326
 30
0.0
 11
1.82039
 21
69.832
 31
0.0
  0
LINE
  8
0
 62
     0
 10
1.82039
 20
69.832
 30
0.0
 11
2.62103
 21
69.832
 31
0.0
  0
LINE
  8
0
 62
     0
 10
2.62103
 20
69.832
 30
0.0
 11
2.62103
 21
64.032
 31
0.0
  0
LINE
  8
0
 62
     0
 10
2.62103
 20
64.032
 30
0.0
 11
1.82039
 21
64.032
 31
0.0
  0
LINE
  8
0
 62
     0
 10
1.82039
 20
64.032
 30
0.0
 11
1.82039
 21
60.9328
 31
0.0
  0
LINE
  8
0
 62
     0
 10
1.82039
 20
60.9328
 30
0.0
 11
2.62103
 21
60.9328
 31
0.0
  0
LINE
  8
0
 62
     0
 10
2.62103
 20
60.9328
 30
0.0
 11
2.62103
 21
59.9324
 31
0.0
  0
LINE
  8
0
 62
     0
 10
2.62103
 20
59.9324
 30
0.0
 11
16.6205
 21
59.9324
 31
0.0
  0
LINE
  8
0
 62
     0
 10
16.6205
 20
59.9324
 30
0.0
 11
16.6205
 21
60.9328
 31
0.0
  0
LINE
  8
0
 62
     0
 10
16.6205
 20
60.9328
 30
0.0
 11
17.4212
 21
60.9328
 31
0.0
  0
LINE
  8
0
 62
     0
 10
17.4212
 20
60.9328
 30
0.0
 11
17.4212
 21
64.032
 31
0.0
  0
LINE
  8
0
 62
     0
 10
17.4212
 20
64.032
 30
0.0
 11
16.6205
 21
64.032
 31
0.0
  0
LINE
  8
0
 62
     0
 10
16.6205
 20
64.032
 30
0.0
 11
16.6205
 21
69.832
 31
0.0
  0
LINE
  8
0
 62
     0
 10
16.6205
 20
69.832
 30
0.0
 11
17.4212
 21
69.832
 31
0.0
  0
LINE
  8
0
 62
     0
 10
17.4212
 20
69.832
 30
0.0
 11
17.4212
 21
72.9326
 31
0.0
  0
LINE
  8
0
 62
     0
 10
17.4212
 20
72.9326
 30
0.0
 11
16.6205
 21
72.9326
 31
0.0
  0
LINE
  8
0
 62
     0
 10
16.6205
 20
72.9326
 30
0.0
 11
16.6205
 21
73.9316
 31
0.0
  0
LINE
  8
0
 62
     0
 10
16.6205
 20
73.9316
 30
0.0
 11
2.62103
 21
73.9316
 31
0.0
  0
LINE
  8
0
 62
     0
 10
212.171
 20
92.9816
 30
0.0
 11
212.171
 21
91.9826
 31
0.0
  0
LINE
  8
0
 62
     0
 10
212.171
 20
91.9826
 30
0.0
 11
211.37
 21
91.9826
 31
0.0
  0
LINE
  8
0
 62
     0
 10
211.37
 20
91.9826
 30
0.0
 11
211.37
 21
88.882
 31
0.0
  0
LINE
  8
0
 62
     0
 10
211.37
 20
88.882
 30
0.0
 11
212.171
 21
88.882
 31
0.0
  0
LINE
  8
0
 62
     0
 10
212.171
 20
88.882
 30
0.0
 11
212.171
 21
83.082
 31
0.0
  0
LINE
  8
0
 62
     0
 10
212.171
 20
83.082
 30
0.0
 11
211.37
 21
83.082
 31
0.0
  0
LINE
  8
0
 62
     0
 10
211.37
 20
83.082
 30
0.0
 11
211.37
 21
79.9828
 31
0.0
  0
LINE
  8
0
 62
     0
 10
211.37
 20
79.9828
 30
0.0
 11
212.171
 21
79.9828
 31
0.0
  0
LINE
  8
0
 62
     0
 10
212.171
 20
79.9828
 30
0.0
 11
212.171
 21
78.9824
 31
0.0
  0
LINE
  8
0
 62
     0
 10
212.171
 20
78.9824
 30
0.0
 11
226.17
 21
78.9824
 31
0.0
  0
LINE
  8
0
 62
     0
 10
226.17
 20
78.9824
 30
0.0
 11
226.17
 21
79.9828
 31
0.0
  0
LINE
  8
0
 62
     0
 10
226.17
 20
79.9828
 30
0.0
 11
226.971
 21
79.9828
 31
0.0
  0
LINE
  8
0
 62
     0
 10
226.971
 20
79.9828
 30
0.0
 11
226.971
 21
83.082
 31
0.0
  0
LINE
  8
0
 62
     0
 10
226.971
 20
83.082
 30
0.0
 11
226.17
 21
83.082
 31
0.0
  0
LINE
  8
0
 62
     0
 10
226.17
 20
83.082
 30
0.0
 11
226.17
 21
88.882
 31
0.0
  0
LINE
  8
0
 62
     0
 10
226.17
 20
88.882
 30
0.0
 11
226.971
 21
88.882
 31
0.0
  0
LINE
  8
0
 62
     0
 10
226.971
 20
88.882
 30
0.0
 11
226.971
 21
91.9826
 31
0.0
  0
LINE
  8
0
 62
     0
 10
226.971
 20
91.9826
 30
0.0
 11
226.17
 21
91.9826
 31
0.0
  0
LINE
  8
0
 62
     0
 10
226.17
 20
91.9826
 30
0.0
 11
226.17
 21
92.9816
 31
0.0
  0
LINE
  8
0
 62
     0
 10
226.17
 20
92.9816
 30
0.0
 11
212.171
 21
92.9816
 31
0.0
  0
LINE
  8
0
 62
     0
 10
193.121
 20
92.9816
 30
0.0
 11
193.121
 21
91.9826
 31
0.0
  0
LINE
  8
0
 62
     0
 10
193.121
 20
91.9826
 30
0.0
 11
192.32
 21
91.9826
 31
0.0
  0
LINE
  8
0
 62
     0
 10
192.32
 20
91.9826
 30
0.0
 11
192.32
 21
88.882
 31
0.0
  0
LINE
  8
0
 62
     0
 10
192.32
 20
88.882
 30
0.0
 11
193.121
 21
88.882
 31
0.0
  0
LINE
  8
0
 62
     0
 10
193.121
 20
88.882
 30
0.0
 11
193.121
 21
83.082
 31
0.0
  0
LINE
  8
0
 62
     0
 10
193.121
 20
83.082
 30
0.0
 11
192.32
 21
83.082
 31
0.0
  0
LINE
  8
0
 62
     0
 10
192.32
 20
83.082
 30
0.0
 11
192.32
 21
79.9828
 31
0.0
  0
LINE
  8
0
 62
     0
 10
192.32
 20
79.9828
 30
0.0
 11
193.121
 21
79.9828
 31
0.0
  0
LINE
  8
0
 62
     0
 10
193.121
 20
79.9828
 30
0.0
 11
193.121
 21
78.9824
 31
0.0
  0
LINE
  8
0
 62
     0
 10
193.121
 20
78.9824
 30
0.0
 11
207.12
 21
78.9824
 31
0.0
  0
LINE
  8
0
 62
     0
 10
207.12
 20
78.9824
 30
0.0
 11
207.12
 21
79.9828
 31
0.0
  0
LINE
  8
0
 62
     0
 10
207.12
 20
79.9828
 30
0.0
 11
207.921
 21
79.9828
 31
0.0
  0
LINE
  8
0
 62
     0
 10
207.921
 20
79.9828
 30
0.0
 11
207.921
 21
83.082
 31
0.0
  0
LINE
  8
0
 62
     0
 10
207.921
 20
83.082
 30
0.0
 11
207.12
 21
83.082
 31
0.0
  0
LINE
  8
0
 62
     0
 10
207.12
 20
83.082
 30
0.0
 11
207.12
 21
88.882
 31
0.0
  0
LINE
  8
0
 62
     0
 10
207.12
 20
88.882
 30
0.0
 11
207.921
 21
88.882
 31
0.0
  0
LINE
  8
0
 62
     0
 10
207.921
 20
88.882
 30
0.0
 11
207.921
 21
91.9826
 31
0.0
  0
LINE
  8
0
 62
     0
 10
207.921
 20
91.9826
 30
0.0
 11
207.12
 21
91.9826
 31
0.0
  0
LINE
  8
0
 62
     0
 10
207.12
 20
91.9826
 30
0.0
 11
207.12
 21
92.9816
 31
0.0
  0
LINE
  8
0
 62
     0
 10
207.12
 20
92.9816
 30
0.0
 11
193.121
 21
92.9816
 31
0.0
  0
LINE
  8
0
 62
     0
 10
174.071
 20
92.9816
 30
0.0
 11
174.071
 21
91.9826
 31
0.0
  0
LINE
  8
0
 62
     0
 10
174.071
 20
91.9826
 30
0.0
 11
173.27
 21
91.9826
 31
0.0
  0
LINE
  8
0
 62
     0
 10
173.27
 20
91.9826
 30
0.0
 11
173.27
 21
88.882
 31
0.0
  0
LINE
  8
0
 62
     0
 10
173.27
 20
88.882
 30
0.0
 11
174.071
 21
88.882
 31
0.0
  0
LINE
  8
0
 62
     0
 10
174.071
 20
88.882
 30
0.0
 11
174.071
 21
83.082
 31
0.0
  0
LINE
  8
0
 62
     0
 10
174.071
 20
83.082
 30
0.0
 11
173.27
 21
83.082
 31
0.0
  0
LINE
  8
0
 62
     0
 10
173.27
 20
83.082
 30
0.0
 11
173.27
 21
79.9828
 31
0.0
  0
LINE
  8
0
 62
     0
 10
173.27
 20
79.9828
 30
0.0
 11
174.071
 21
79.9828
 31
0.0
  0
LINE
  8
0
 62
     0
 10
174.071
 20
79.9828
 30
0.0
 11
174.071
 21
78.9824
 31
0.0
  0
LINE
  8
0
 62
     0
 10
174.071
 20
78.9824
 30
0.0
 11
188.07
 21
78.9824
 31
0.0
  0
LINE
  8
0
 62
     0
 10
188.07
 20
78.9824
 30
0.0
 11
188.07
 21
79.9828
 31
0.0
  0
LINE
  8
0
 62
     0
 10
188.07
 20
79.9828
 30
0.0
 11
188.871
 21
79.9828
 31
0.0
  0
LINE
  8
0
 62
     0
 10
188.871
 20
79.9828
 30
0.0
 11
188.871
 21
83.082
 31
0.0
  0
LINE
  8
0
 62
     0
 10
188.871
 20
83.082
 30
0.0
 11
188.07
 21
83.082
 31
0.0
  0
LINE
  8
0
 62
     0
 10
188.07
 20
83.082
 30
0.0
 11
188.07
 21
88.882
 31
0.0
  0
LINE
  8
0
 62
     0
 10
188.07
 20
88.882
 30
0.0
 11
188.871
 21
88.882
 31
0.0
  0
LINE
  8
0
 62
     0
 10
188.871
 20
88.882
 30
0.0
 11
188.871
 21
91.9826
 31
0.0
  0
LINE
  8
0
 62
     0
 10
188.871
 20
91.9826
 30
0.0
 11
188.07
 21
91.9826
 31
0.0
  0
LINE
  8
0
 62
     0
 10
188.07
 20
91.9826
 30
0.0
 11
188.07
 21
92.9816
 31
0.0
  0
LINE
  8
0
 62
     0
 10
188.07
 20
92.9816
 30
0.0
 11
174.071
 21
92.9816
 31
0.0
  0
LINE
  8
0
 62
     0
 10
155.021
 20
92.9816
 30
0.0
 11
155.021
 21
91.9826
 31
0.0
  0
LINE
  8
0
 62
     0
 10
155.021
 20
91.9826
 30
0.0
 11
154.22
 21
91.9826
 31
0.0
  0
LINE
  8
0
 62
     0
 10
154.22
 20
91.9826
 30
0.0
 11
154.22
 21
88.882
 31
0.0
  0
LINE
  8
0
 62
     0
 10
154.22
 20
88.882
 30
0.0
 11
155.021
 21
88.882
 31
0.0
  0
LINE
  8
0
 62
     0
 10
155.021
 20
88.882
 30
0.0
 11
155.021
 21
83.082
 31
0.0
  0
LINE
  8
0
 62
     0
 10
155.021
 20
83.082
 30
0.0
 11
154.22
 21
83.082
 31
0.0
  0
LINE
  8
0
 62
     0
 10
154.22
 20
83.082
 30
0.0
 11
154.22
 21
79.9828
 31
0.0
  0
LINE
  8
0
 62
     0
 10
154.22
 20
79.9828
 30
0.0
 11
155.021
 21
79.9828
 31
0.0
  0
LINE
  8
0
 62
     0
 10
155.021
 20
79.9828
 30
0.0
 11
155.021
 21
78.9824
 31
0.0
  0
LINE
  8
0
 62
     0
 10
155.021
 20
78.9824
 30
0.0
 11
169.02
 21
78.9824
 31
0.0
  0
LINE
  8
0
 62
     0
 10
169.02
 20
78.9824
 30
0.0
 11
169.02
 21
79.9828
 31
0.0
  0
LINE
  8
0
 62
     0
 10
169.02
 20
79.9828
 30
0.0
 11
169.821
 21
79.9828
 31
0.0
  0
LINE
  8
0
 62
     0
 10
169.821
 20
79.9828
 30
0.0
 11
169.821
 21
83.082
 31
0.0
  0
LINE
  8
0
 62
     0
 10
169.821
 20
83.082
 30
0.0
 11
169.02
 21
83.082
 31
0.0
  0
LINE
  8
0
 62
     0
 10
169.02
 20
83.082
 30
0.0
 11
169.02
 21
88.882
 31
0.0
  0
LINE
  8
0
 62
     0
 10
169.02
 20
88.882
 30
0.0
 11
169.821
 21
88.882
 31
0.0
  0
LINE
  8
0
 62
     0
 10
169.821
 20
88.882
 30
0.0
 11
169.821
 21
91.9826
 31
0.0
  0
LINE
  8
0
 62
     0
 10
169.821
 20
91.9826
 30
0.0
 11
169.02
 21
91.9826
 31
0.0
  0
LINE
  8
0
 62
     0
 10
169.02
 20
91.9826
 30
0.0
 11
169.02
 21
92.9816
 31
0.0
  0
LINE
  8
0
 62
     0
 10
169.02
 20
92.9816
 30
0.0
 11
155.021
 21
92.9816
 31
0.0
  0
LINE
  8
0
 62
     0
 10
135.971
 20
92.9816
 30
0.0
 11
135.971
 21
91.9826
 31
0.0
  0
LINE
  8
0
 62
     0
 10
135.971
 20
91.9826
 30
0.0
 11
135.17
 21
91.9826
 31
0.0
  0
LINE
  8
0
 62
     0
 10
135.17
 20
91.9826
 30
0.0
 11
135.17
 21
88.882
 31
0.0
  0
LINE
  8
0
 62
     0
 10
135.17
 20
88.882
 30
0.0
 11
135.971
 21
88.882
 31
0.0
  0
LINE
  8
0
 62
     0
 10
135.971
 20
88.882
 30
0.0
 11
135.971
 21
83.082
 31
0.0
  0
LINE
  8
0
 62
     0
 10
135.971
 20
83.082
 30
0.0
 11
135.17
 21
83.082
 31
0.0
  0
LINE
  8
0
 62
     0
 10
135.17
 20
83.082
 30
0.0
 11
135.17
 21
79.9828
 31
0.0
  0
LINE
  8
0
 62
     0
 10
135.17
 20
79.9828
 30
0.0
 11
135.971
 21
79.9828
 31
0.0
  0
LINE
  8
0
 62
     0
 10
135.971
 20
79.9828
 30
0.0
 11
135.971
 21
78.9824
 31
0.0
  0
LINE
  8
0
 62
     0
 10
135.971
 20
78.9824
 30
0.0
 11
149.97
 21
78.9824
 31
0.0
  0
LINE
  8
0
 62
     0
 10
149.97
 20
78.9824
 30
0.0
 11
149.97
 21
79.9828
 31
0.0
  0
LINE
  8
0
 62
     0
 10
149.97
 20
79.9828
 30
0.0
 11
150.771
 21
79.9828
 31
0.0
  0
LINE
  8
0
 62
     0
 10
150.771
 20
79.9828
 30
0.0
 11
150.771
 21
83.082
 31
0.0
  0
LINE
  8
0
 62
     0
 10
150.771
 20
83.082
 30
0.0
 11
149.97
 21
83.082
 31
0.0
  0
LINE
  8
0
 62
     0
 10
149.97
 20
83.082
 30
0.0
 11
149.97
 21
88.882
 31
0.0
  0
LINE
  8
0
 62
     0
 10
149.97
 20
88.882
 30
0.0
 11
150.771
 21
88.882
 31
0.0
  0
LINE
  8
0
 62
     0
 10
150.771
 20
88.882
 30
0.0
 11
150.771
 21
91.9826
 31
0.0
  0
LINE
  8
0
 62
     0
 10
150.771
 20
91.9826
 30
0.0
 11
149.97
 21
91.9826
 31
0.0
  0
LINE
  8
0
 62
     0
 10
149.97
 20
91.9826
 30
0.0
 11
149.97
 21
92.9816
 31
0.0
  0
LINE
  8
0
 62
     0
 10
149.97
 20
92.9816
 30
0.0
 11
135.971
 21
92.9816
 31
0.0
  0
LINE
  8
0
 62
     0
 10
116.92
 20
92.9816
 30
0.0
 11
116.92
 21
91.9826
 31
0.0
  0
LINE
  8
0
 62
     0
 10
116.92
 20
91.9826
 30
0.0
 11
116.119
 21
91.9826
 31
0.0
  0
LINE
  8
0
 62
     0
 10
116.119
 20
91.9826
 30
0.0
 11
116.119
 21
88.882
 31
0.0
  0
LINE
  8
0
 62
     0
 10
116.119
 20
88.882
 30
0.0
 11
116.92
 21
88.882
 31
0.0
  0
LINE
  8
0
 62
     0
 10
116.92
 20
88.882
 30
0.0
 11
116.92
 21
83.082
 31
0.0
  0
LINE
  8
0
 62
     0
 10
116.92
 20
83.082
 30
0.0
 11
116.119
 21
83.082
 31
0.0
  0
LINE
  8
0
 62
     0
 10
116.119
 20
83.082
 30
0.0
 11
116.119
 21
79.9828
 31
0.0
  0
LINE
  8
0
 62
     0
 10
116.119
 20
79.9828
 30
0.0
 11
116.92
 21
79.9828
 31
0.0
  0
LINE
  8
0
 62
     0
 10
116.92
 20
79.9828
 30
0.0
 11
116.92
 21
78.9824
 31
0.0
  0
LINE
  8
0
 62
     0
 10
116.92
 20
78.9824
 30
0.0
 11
130.92
 21
78.9824
 31
0.0
  0
LINE
  8
0
 62
     0
 10
130.92
 20
78.9824
 30
0.0
 11
130.92
 21
79.9828
 31
0.0
  0
LINE
  8
0
 62
     0
 10
130.92
 20
79.9828
 30
0.0
 11
131.721
 21
79.9828
 31
0.0
  0
LINE
  8
0
 62
     0
 10
131.721
 20
79.9828
 30
0.0
 11
131.721
 21
83.082
 31
0.0
  0
LINE
  8
0
 62
     0
 10
131.721
 20
83.082
 30
0.0
 11
130.92
 21
83.082
 31
0.0
  0
LINE
  8
0
 62
     0
 10
130.92
 20
83.082
 30
0.0
 11
130.92
 21
88.882
 31
0.0
  0
LINE
  8
0
 62
     0
 10
130.92
 20
88.882
 30
0.0
 11
131.721
 21
88.882
 31
0.0
  0
LINE
  8
0
 62
     0
 10
131.721
 20
88.882
 30
0.0
 11
131.721
 21
91.9826
 31
0.0
  0
LINE
  8
0
 62
     0
 10
131.721
 20
91.9826
 30
0.0
 11
130.92
 21
91.9826
 31
0.0
  0
LINE
  8
0
 62
     0
 10
130.92
 20
91.9826
 30
0.0
 11
130.92
 21
92.9816
 31
0.0
  0
LINE
  8
0
 62
     0
 10
130.92
 20
92.9816
 30
0.0
 11
116.92
 21
92.9816
 31
0.0
  0
LINE
  8
0
 62
     0
 10
97.8697
 20
92.9816
 30
0.0
 11
97.8697
 21
91.9826
 31
0.0
  0
LINE
  8
0
 62
     0
 10
97.8697
 20
91.9826
 30
0.0
 11
97.0703
 21
91.9826
 31
0.0
  0
LINE
  8
0
 62
     0
 10
97.0703
 20
91.9826
 30
0.0
 11
97.0703
 21
88.882
 31
0.0
  0
LINE
  8
0
 62
     0
 10
97.0703
 20
88.882
 30
0.0
 11
97.8697
 21
88.882
 31
0.0
  0
LINE
  8
0
 62
     0
 10
97.8697
 20
88.882
 30
0.0
 11
97.8697
 21
83.082
 31
0.0
  0
LINE
  8
0
 62
     0
 10
97.8697
 20
83.082
 30
0.0
 11
97.0703
 21
83.082
 31
0.0
  0
LINE
  8
0
 62
     0
 10
97.0703
 20
83.082
 30
0.0
 11
97.0703
 21
79.9828
 31
0.0
  0
LINE
  8
0
 62
     0
 10
97.0703
 20
79.9828
 30
0.0
 11
97.8697
 21
79.9828
 31
0.0
  0
LINE
  8
0
 62
     0
 10
97.8697
 20
79.9828
 30
0.0
 11
97.8697
 21
78.9824
 31
0.0
  0
LINE
  8
0
 62
     0
 10
97.8697
 20
78.9824
 30
0.0
 11
111.869
 21
78.9824
 31
0.0
  0
LINE
  8
0
 62
     0
 10
111.869
 20
78.9824
 30
0.0
 11
111.869
 21
79.9828
 31
0.0
  0
LINE
  8
0
 62
     0
 10
111.869
 20
79.9828
 30
0.0
 11
112.67
 21
79.9828
 31
0.0
  0
LINE
  8
0
 62
     0
 10
112.67
 20
79.9828
 30
0.0
 11
112.67
 21
83.082
 31
0.0
  0
LINE
  8
0
 62
     0
 10
112.67
 20
83.082
 30
0.0
 11
111.869
 21
83.082
 31
0.0
  0
LINE
  8
0
 62
     0
 10
111.869
 20
83.082
 30
0.0
 11
111.869
 21
88.882
 31
0.0
  0
LINE
  8
0
 62
     0
 10
111.869
 20
88.882
 30
0.0
 11
112.67
 21
88.882
 31
0.0
  0
LINE
  8
0
 62
     0
 10
112.67
 20
88.882
 30
0.0
 11
112.67
 21
91.9826
 31
0.0
  0
LINE
  8
0
 62
     0
 10
112.67
 20
91.9826
 30
0.0
 11
111.869
 21
91.9826
 31
0.0
  0
LINE
  8
0
 62
     0
 10
111.869
 20
91.9826
 30
0.0
 11
111.869
 21
92.9816
 31
0.0
  0
LINE
  8
0
 62
     0
 10
111.869
 20
92.9816
 30
0.0
 11
97.8697
 21
92.9816
 31
0.0
  0
LINE
  8
0
 62
     0
 10
78.8211
 20
92.9816
 30
0.0
 11
78.8211
 21
91.9826
 31
0.0
  0
LINE
  8
0
 62
     0
 10
78.8211
 20
91.9826
 30
0.0
 11
78.0203
 21
91.9826
 31
0.0
  0
LINE
  8
0
 62
     0
 10
78.0203
 20
91.9826
 30
0.0
 11
78.0203
 21
88.882
 31
0.0
  0
LINE
  8
0
 62
     0
 10
78.0203
 20
88.882
 30
0.0
 11
78.8211
 21
88.882
 31
0.0
  0
LINE
  8
0
 62
     0
 10
78.8211
 20
88.882
 30
0.0
 11
78.8211
 21
83.082
 31
0.0
  0
LINE
  8
0
 62
     0
 10
78.8211
 20
83.082
 30
0.0
 11
78.0203
 21
83.082
 31
0.0
  0
LINE
  8
0
 62
     0
 10
78.0203
 20
83.082
 30
0.0
 11
78.0203
 21
79.9828
 31
0.0
  0
LINE
  8
0
 62
     0
 10
78.0203
 20
79.9828
 30
0.0
 11
78.8211
 21
79.9828
 31
0.0
  0
LINE
  8
0
 62
     0
 10
78.8211
 20
79.9828
 30
0.0
 11
78.8211
 21
78.9824
 31
0.0
  0
LINE
  8
0
 62
     0
 10
78.8211
 20
78.9824
 30
0.0
 11
92.8204
 21
78.9824
 31
0.0
  0
LINE
  8
0
 62
     0
 10
92.8204
 20
78.9824
 30
0.0
 11
92.8204
 21
79.9828
 31
0.0
  0
LINE
  8
0
 62
     0
 10
92.8204
 20
79.9828
 30
0.0
 11
93.6198
 21
79.9828
 31
0.0
  0
LINE
  8
0
 62
     0
 10
93.6198
 20
79.9828
 30
0.0
 11
93.6198
 21
83.082
 31
0.0
  0
LINE
  8
0
 62
     0
 10
93.6198
 20
83.082
 30
0.0
 11
92.8204
 21
83.082
 31
0.0
  0
LINE
  8
0
 62
     0
 10
92.8204
 20
83.082
 30
0.0
 11
92.8204
 21
88.882
 31
0.0
  0
LINE
  8
0
 62
     0
 10
92.8204
 20
88.882
 30
0.0
 11
93.6198
 21
88.882
 31
0.0
  0
LINE
  8
0
 62
     0
 10
93.6198
 20
88.882
 30
0.0
 11
93.6198
 21
91.9826
 31
0.0
  0
LINE
  8
0
 62
     0
 10
93.6198
 20
91.9826
 30
0.0
 11
92.8204
 21
91.9826
 31
0.0
  0
LINE
  8
0
 62
     0
 10
92.8204
 20
91.9826
 30
0.0
 11
92.8204
 21
92.9816
 31
0.0
  0
LINE
  8
0
 62
     0
 10
92.8204
 20
92.9816
 30
0.0
 11
78.8211
 21
92.9816
 31
0.0
  0
LINE
  8
0
 62
     0
 10
59.7711
 20
92.9816
 30
0.0
 11
59.7711
 21
91.9826
 31
0.0
  0
LINE
  8
0
 62
     0
 10
59.7711
 20
91.9826
 30
0.0
 11
58.9703
 21
91.9826
 31
0.0
  0
LINE
  8
0
 62
     0
 10
58.9703
 20
91.9826
 30
0.0
 11
58.9703
 21
88.882
 31
0.0
  0
LINE
  8
0
 62
     0
 10
58.9703
 20
88.882
 30
0.0
 11
59.7711
 21
88.882
 31
0.0
  0
LINE
  8
0
 62
     0
 10
59.7711
 20
88.882
 30
0.0
 11
59.7711
 21
83.082
 31
0.0
  0
LINE
  8
0
 62
     0
 10
59.7711
 20
83.082
 30
0.0
 11
58.9703
 21
83.082
 31
0.0
  0
LINE
  8
0
 62
     0
 10
58.9703
 20
83.082
 30
0.0
 11
58.9703
 21
79.9828
 31
0.0
  0
LINE
  8
0
 62
     0
 10
58.9703
 20
79.9828
 30
0.0
 11
59.7711
 21
79.9828
 31
0.0
  0
LINE
  8
0
 62
     0
 10
59.7711
 20
79.9828
 30
0.0
 11
59.7711
 21
78.9824
 31
0.0
  0
LINE
  8
0
 62
     0
 10
59.7711
 20
78.9824
 30
0.0
 11
73.7704
 21
78.9824
 31
0.0
  0
LINE
  8
0
 62
     0
 10
73.7704
 20
78.9824
 30
0.0
 11
73.7704
 21
79.9828
 31
0.0
  0
LINE
  8
0
 62
     0
 10
73.7704
 20
79.9828
 30
0.0
 11
74.5712
 21
79.9828
 31
0.0
  0
LINE
  8
0
 62
     0
 10
74.5712
 20
79.9828
 30
0.0
 11
74.5712
 21
83.082
 31
0.0
  0
LINE
  8
0
 62
     0
 10
74.5712
 20
83.082
 30
0.0
 11
73.7704
 21
83.082
 31
0.0
  0
LINE
  8
0
 62
     0
 10
73.7704
 20
83.082
 30
0.0
 11
73.7704
 21
88.882
 31
0.0
  0
LINE
  8
0
 62
     0
 10
73.7704
 20
88.882
 30
0.0
 11
74.5712
 21
88.882
 31
0.0
  0
LINE
  8
0
 62
     0
 10
74.5712
 20
88.882
 30
0.0
 11
74.5712
 21
91.9826
 31
0.0
  0
LINE
  8
0
 62
     0
 10
74.5712
 20
91.9826
 30
0.0
 11
73.7704
 21
91.9826
 31
0.0
  0
LINE
  8
0
 62
     0
 10
73.7704
 20
91.9826
 30
0.0
 11
73.7704
 21
92.9816
 31
0.0
  0
LINE
  8
0
 62
     0
 10
73.7704
 20
92.9816
 30
0.0
 11
59.7711
 21
92.9816
 31
0.0
  0
LINE
  8
0
 62
     0
 10
40.7211
 20
92.9816
 30
0.0
 11
40.7211
 21
91.9826
 31
0.0
  0
LINE
  8
0
 62
     0
 10
40.7211
 20
91.9826
 30
0.0
 11
39.9203
 21
91.9826
 31
0.0
  0
LINE
  8
0
 62
     0
 10
39.9203
 20
91.9826
 30
0.0
 11
39.9203
 21
88.882
 31
0.0
  0
LINE
  8
0
 62
     0
 10
39.9203
 20
88.882
 30
0.0
 11
40.7211
 21
88.882
 31
0.0
  0
LINE
  8
0
 62
     0
 10
40.7211
 20
88.882
 30
0.0
 11
40.7211
 21
83.082
 31
0.0
  0
LINE
  8
0
 62
     0
 10
40.7211
 20
83.082
 30
0.0
 11
39.9203
 21
83.082
 31
0.0
  0
LINE
  8
0
 62
     0
 10
39.9203
 20
83.082
 30
0.0
 11
39.9203
 21
79.9828
 31
0.0
  0
LINE
  8
0
 62
     0
 10
39.9203
 20
79.9828
 30
0.0
 11
40.7211
 21
79.9828
 31
0.0
  0
LINE
  8
0
 62
     0
 10
40.7211
 20
79.9828
 30
0.0
 11
40.7211
 21
78.9824
 31
0.0
  0
LINE
  8
0
 62
     0
 10
40.7211
 20
78.9824
 30
0.0
 11
54.7204
 21
78.9824
 31
0.0
  0
LINE
  8
0
 62
     0
 10
54.7204
 20
78.9824
 30
0.0
 11
54.7204
 21
79.9828
 31
0.0
  0
LINE
  8
0
 62
     0
 10
54.7204
 20
79.9828
 30
0.0
 11
55.5212
 21
79.9828
 31
0.0
  0
LINE
  8
0
 62
     0
 10
55.5212
 20
79.9828
 30
0.0
 11
55.5212
 21
83.082
 31
0.0
  0
LINE
  8
0
 62
     0
 10
55.5212
 20
83.082
 30
0.0
 11
54.7204
 21
83.082
 31
0.0
  0
LINE
  8
0
 62
     0
 10
54.7204
 20
83.082
 30
0.0
 11
54.7204
 21
88.882
 31
0.0
  0
LINE
  8
0
 62
     0
 10
54.7204
 20
88.882
 30
0.0
 11
55.5212
 21
88.882
 31
0.0
  0
LINE
  8
0
 62
     0
 10
55.5212
 20
88.882
 30
0.0
 11
55.5212
 21
91.9826
 31
0.0
  0
LINE
  8
0
 62
     0
 10
55.5212
 20
91.9826
 30
0.0
 11
54.7204
 21
91.9826
 31
0.0
  0
LINE
  8
0
 62
     0
 10
54.7204
 20
91.9826
 30
0.0
 11
54.7204
 21
92.9816
 31
0.0
  0
LINE
  8
0
 62
     0
 10
54.7204
 20
92.9816
 30
0.0
 11
40.7211
 21
92.9816
 31
0.0
  0
LINE
  8
0
 62
     0
 10
21.671
 20
92.9816
 30
0.0
 11
21.671
 21
91.9826
 31
0.0
  0
LINE
  8
0
 62
     0
 10
21.671
 20
91.9826
 30
0.0
 11
20.8704
 21
91.9826
 31
0.0
  0
LINE
  8
0
 62
     0
 10
20.8704
 20
91.9826
 30
0.0
 11
20.8704
 21
88.882
 31
0.0
  0
LINE
  8
0
 62
     0
 10
20.8704
 20
88.882
 30
0.0
 11
21.671
 21
88.882
 31
0.0
  0
LINE
  8
0
 62
     0
 10
21.671
 20
88.882
 30
0.0
 11
21.671
 21
83.082
 31
0.0
  0
LINE
  8
0
 62
     0
 10
21.671
 20
83.082
 30
0.0
 11
20.8704
 21
83.082
 31
0.0
  0
LINE
  8
0
 62
     0
 10
20.8704
 20
83.082
 30
0.0
 11
20.8704
 21
79.9828
 31
0.0
  0
LINE
  8
0
 62
     0
 10
20.8704
 20
79.9828
 30
0.0
 11
21.671
 21
79.9828
 31
0.0
  0
LINE
  8
0
 62
     0
 10
21.671
 20
79.9828
 30
0.0
 11
21.671
 21
78.9824
 31
0.0
  0
LINE
  8
0
 62
     0
 10
21.671
 20
78.9824
 30
0.0
 11
35.6704
 21
78.9824
 31
0.0
  0
LINE
  8
0
 62
     0
 10
35.6704
 20
78.9824
 30
0.0
 11
35.6704
 21
79.9828
 31
0.0
  0
LINE
  8
0
 62
     0
 10
35.6704
 20
79.9828
 30
0.0
 11
36.4712
 21
79.9828
 31
0.0
  0
LINE
  8
0
 62
     0
 10
36.4712
 20
79.9828
 30
0.0
 11
36.4712
 21
83.082
 31
0.0
  0
LINE
  8
0
 62
     0
 10
36.4712
 20
83.082
 30
0.0
 11
35.6704
 21
83.082
 31
0.0
  0
LINE
  8
0
 62
     0
 10
35.6704
 20
83.082
 30
0.0
 11
35.6704
 21
88.882
 31
0.0
  0
LINE
  8
0
 62
     0
 10
35.6704
 20
88.882
 30
0.0
 11
36.4712
 21
88.882
 31
0.0
  0
LINE
  8
0
 62
     0
 10
36.4712
 20
88.882
 30
0.0
 11
36.4712
 21
91.9826
 31
0.0
  0
LINE
  8
0
 62
     0
 10
36.4712
 20
91.9826
 30
0.0
 11
35.6704
 21
91.9826
 31
0.0
  0
LINE
  8
0
 62
     0
 10
35.6704
 20
91.9826
 30
0.0
 11
35.6704
 21
92.9816
 31
0.0
  0
LINE
  8
0
 62
     0
 10
35.6704
 20
92.9816
 30
0.0
 11
21.671
 21
92.9816
 31
0.0
  0
LINE
  8
0
 62
     0
 10
2.62103
 20
92.9816
 30
0.0
 11
2.62103
 21
91.9826
 31
0.0
  0
LINE
  8
0
 62
     0
 10
2.62103
 20
91.9826
 30
0.0
 11
1.82039
 21
91.9826
 31
0.0
  0
LINE
  8
0
 62
     0
 10
1.82039
 20
91.9826
 30
0.0
 11
1.82039
 21
88.882
 31
0.0
  0
LINE
  8
0
 62
     0
 10
1.82039
 20
88.882
 30
0.0
 11
2.62103
 21
88.882
 31
0.0
  0
LINE
  8
0
 62
     0
 10
2.62103
 20
88.882
 30
0.0
 11
2.62103
 21
83.082
 31
0.0
  0
LINE
  8
0
 62
     0
 10
2.62103
 20
83.082
 30
0.0
 11
1.82039
 21
83.082
 31
0.0
  0
LINE
  8
0
 62
     0
 10
1.82039
 20
83.082
 30
0.0
 11
1.82039
 21
79.9828
 31
0.0
  0
LINE
  8
0
 62
     0
 10
1.82039
 20
79.9828
 30
0.0
 11
2.62103
 21
79.9828
 31
0.0
  0
LINE
  8
0
 62
     0
 10
2.62103
 20
79.9828
 30
0.0
 11
2.62103
 21
78.9824
 31
0.0
  0
LINE
  8
0
 62
     0
 10
2.62103
 20
78.9824
 30
0.0
 11
16.6205
 21
78.9824
 31
0.0
  0
LINE
  8
0
 62
     0
 10
16.6205
 20
78.9824
 30
0.0
 11
16.6205
 21
79.9828
 31
0.0
  0
LINE
  8
0
 62
     0
 10
16.6205
 20
79.9828
 30
0.0
 11
17.4212
 21
79.9828
 31
0.0
  0
LINE
  8
0
 62
     0
 10
17.4212
 20
79.9828
 30
0.0
 11
17.4212
 21
83.082
 31
0.0
  0
LINE
  8
0
 62
     0
 10
17.4212
 20
83.082
 30
0.0
 11
16.6205
 21
83.082
 31
0.0
  0
LINE
  8
0
 62
     0
 10
16.6205
 20
83.082
 30
0.0
 11
16.6205
 21
88.882
 31
0.0
  0
LINE
  8
0
 62
     0
 10
16.6205
 20
88.882
 30
0.0
 11
17.4212
 21
88.882
 31
0.0
  0
LINE
  8
0
 62
     0
 10
17.4212
 20
88.882
 30
0.0
 11
17.4212
 21
91.9826
 31
0.0
  0
LINE
  8
0
 62
     0
 10
17.4212
 20
91.9826
 30
0.0
 11
16.6205
 21
91.9826
 31
0.0
  0
LINE
  8
0
 62
     0
 10
16.6205
 20
91.9826
 30
0.0
 11
16.6205
 21
92.9816
 31
0.0
  0
LINE
  8
0
 62
     0
 10
16.6205
 20
92.9816
 30
0.0
 11
2.62103
 21
92.9816
 31
0.0
  0
ENDSEC
  0
EOF
