  0
SECTION
  2
HEADER
  9
$ACADVER
  1
AC1009
  9
$EXTMIN
 10
0.0
 20
0.0
 30
0.0
  9
$EXTMAX
 10
1000.0
 20
1000.0
 30
0.0
  9
$FILLMODE
 70
 0
  9
$SPLFRAME
 70
 1
  0
ENDSEC
  0
SECTION
  2
TABLES
  0
TABLE
  2
LAYER
 70
1
  0
LAYER
  2
0
 70
     0
 62
     7
  6
CONTINUOUS
  0
ENDTAB
  0
ENDSEC
  0
SECTION
  2
ENTITIES
  0
LINE
  8
0
 62
     0
 10
112.396
 20
95.5075
 30
0.0
 11
112.553
 21
95.5008
 31
0.0
  0
LINE
  8
0
 62
     0
 10
112.553
 20
95.5008
 30
0.0
 11
112.708
 21
95.4828
 31
0.0
  0
LINE
  8
0
 62
     0
 10
112.708
 20
95.4828
 30
0.0
 11
112.863
 21
95.4525
 31
0.0
  0
LINE
  8
0
 62
     0
 10
112.863
 20
95.4525
 30
0.0
 11
113.014
 21
95.4098
 31
0.0
  0
LINE
  8
0
 62
     0
 10
113.014
 20
95.4098
 30
0.0
 11
113.162
 21
95.3548
 31
0.0
  0
LINE
  8
0
 62
     0
 10
113.162
 20
95.3548
 30
0.0
 11
113.304
 21
95.2899
 31
0.0
  0
LINE
  8
0
 62
     0
 10
113.304
 20
95.2899
 30
0.0
 11
113.44
 21
95.213
 31
0.0
  0
LINE
  8
0
 62
     0
 10
113.44
 20
95.213
 30
0.0
 11
113.571
 21
95.1258
 31
0.0
  0
LINE
  8
0
 62
     0
 10
113.571
 20
95.1258
 30
0.0
 11
113.695
 21
95.0281
 31
0.0
  0
LINE
  8
0
 62
     0
 10
113.695
 20
95.0281
 30
0.0
 11
113.811
 21
94.9219
 31
0.0
  0
LINE
  8
0
 62
     0
 10
113.811
 20
94.9219
 30
0.0
 11
113.917
 21
94.8062
 31
0.0
  0
LINE
  8
0
 62
     0
 10
113.917
 20
94.8062
 30
0.0
 11
114.015
 21
94.6838
 31
0.0
  0
LINE
  8
0
 62
     0
 10
114.015
 20
94.6838
 30
0.0
 11
114.102
 21
94.5526
 31
0.0
  0
LINE
  8
0
 62
     0
 10
114.102
 20
94.5526
 30
0.0
 11
114.179
 21
94.415
 31
0.0
  0
LINE
  8
0
 62
     0
 10
114.179
 20
94.415
 30
0.0
 11
114.244
 21
94.2728
 31
0.0
  0
LINE
  8
0
 62
     0
 10
114.244
 20
94.2728
 30
0.0
 11
114.299
 21
94.1268
 31
0.0
  0
LINE
  8
0
 62
     0
 10
114.299
 20
94.1268
 30
0.0
 11
114.34
 21
93.974
 31
0.0
  0
LINE
  8
0
 62
     0
 10
114.34
 20
93.974
 30
0.0
 11
114.372
 21
93.8209
 31
0.0
  0
LINE
  8
0
 62
     0
 10
114.372
 20
93.8209
 30
0.0
 11
114.39
 21
93.6639
 31
0.0
  0
LINE
  8
0
 62
     0
 10
114.39
 20
93.6639
 30
0.0
 11
114.395
 21
93.5069
 31
0.0
  0
LINE
  8
0
 62
     0
 10
114.395
 20
93.5069
 30
0.0
 11
114.395
 21
2.25723
 31
0.0
  0
LINE
  8
0
 62
     0
 10
114.395
 20
2.25723
 30
0.0
 11
114.39
 21
2.10013
 31
0.0
  0
LINE
  8
0
 62
     0
 10
114.39
 20
2.10013
 30
0.0
 11
114.372
 21
1.94441
 31
0.0
  0
LINE
  8
0
 62
     0
 10
114.372
 20
1.94441
 30
0.0
 11
114.34
 21
1.79007
 31
0.0
  0
LINE
  8
0
 62
     0
 10
114.34
 20
1.79007
 30
0.0
 11
114.299
 21
1.63849
 31
0.0
  0
LINE
  8
0
 62
     0
 10
114.299
 20
1.63849
 30
0.0
 11
114.244
 21
1.49104
 31
0.0
  0
LINE
  8
0
 62
     0
 10
114.244
 20
1.49104
 30
0.0
 11
114.179
 21
1.3491
 31
0.0
  0
LINE
  8
0
 62
     0
 10
114.179
 20
1.3491
 30
0.0
 11
114.102
 21
1.21267
 31
0.0
  0
LINE
  8
0
 62
     0
 10
114.102
 20
1.21267
 30
0.0
 11
114.015
 21
1.08176
 31
0.0
  0
LINE
  8
0
 62
     0
 10
114.015
 20
1.08176
 30
0.0
 11
113.917
 21
0.957735
 31
0.0
  0
LINE
  8
0
 62
     0
 10
113.917
 20
0.957735
 30
0.0
 11
113.811
 21
0.841982
 31
0.0
  0
LINE
  8
0
 62
     0
 10
113.811
 20
0.841982
 30
0.0
 11
113.695
 21
0.735873
 31
0.0
  0
LINE
  8
0
 62
     0
 10
113.695
 20
0.735873
 30
0.0
 11
113.571
 21
0.63803
 31
0.0
  0
LINE
  8
0
 62
     0
 10
113.571
 20
0.63803
 30
0.0
 11
113.44
 21
0.551215
 31
0.0
  0
LINE
  8
0
 62
     0
 10
113.44
 20
0.551215
 30
0.0
 11
113.304
 21
0.474045
 31
0.0
  0
LINE
  8
0
 62
     0
 10
113.304
 20
0.474045
 30
0.0
 11
113.162
 21
0.409279
 31
0.0
  0
LINE
  8
0
 62
     0
 10
113.162
 20
0.409279
 30
0.0
 11
113.014
 21
0.354157
 31
0.0
  0
LINE
  8
0
 62
     0
 10
113.014
 20
0.354157
 30
0.0
 11
112.863
 21
0.312815
 31
0.0
  0
LINE
  8
0
 62
     0
 10
112.863
 20
0.312815
 30
0.0
 11
112.708
 21
0.28112
 31
0.0
  0
LINE
  8
0
 62
     0
 10
112.708
 20
0.28112
 30
0.0
 11
112.553
 21
0.263205
 31
0.0
  0
LINE
  8
0
 62
     0
 10
112.553
 20
0.263205
 30
0.0
 11
112.397
 21
0.257693
 31
0.0
  0
LINE
  8
0
 62
     0
 10
112.397
 20
0.257693
 30
0.0
 11
2.096
 21
0.257693
 31
0.0
  0
LINE
  8
0
 62
     0
 10
2.096
 20
0.257693
 30
0.0
 11
1.9389
 21
0.263205
 31
0.0
  0
LINE
  8
0
 62
     0
 10
1.9389
 20
0.263205
 30
0.0
 11
1.7818
 21
0.28112
 31
0.0
  0
LINE
  8
0
 62
     0
 10
1.7818
 20
0.28112
 30
0.0
 11
1.62884
 21
0.312815
 31
0.0
  0
LINE
  8
0
 62
     0
 10
1.62884
 20
0.312815
 30
0.0
 11
1.47588
 21
0.354157
 31
0.0
  0
LINE
  8
0
 62
     0
 10
1.47588
 20
0.354157
 30
0.0
 11
1.32981
 21
0.409279
 31
0.0
  0
LINE
  8
0
 62
     0
 10
1.32981
 20
0.409279
 30
0.0
 11
1.18787
 21
0.474045
 31
0.0
  0
LINE
  8
0
 62
     0
 10
1.18787
 20
0.474045
 30
0.0
 11
1.05006
 21
0.551215
 31
0.0
  0
LINE
  8
0
 62
     0
 10
1.05006
 20
0.551215
 30
0.0
 11
0.919152
 21
0.63803
 31
0.0
  0
LINE
  8
0
 62
     0
 10
0.919152
 20
0.63803
 30
0.0
 11
0.796505
 21
0.735873
 31
0.0
  0
LINE
  8
0
 62
     0
 10
0.796505
 20
0.735873
 30
0.0
 11
0.680752
 21
0.841982
 31
0.0
  0
LINE
  8
0
 62
     0
 10
0.680752
 20
0.841982
 30
0.0
 11
0.574643
 21
0.957735
 31
0.0
  0
LINE
  8
0
 62
     0
 10
0.574643
 20
0.957735
 30
0.0
 11
0.4768
 21
1.08176
 31
0.0
  0
LINE
  8
0
 62
     0
 10
0.4768
 20
1.08176
 30
0.0
 11
0.389985
 21
1.21267
 31
0.0
  0
LINE
  8
0
 62
     0
 10
0.389985
 20
1.21267
 30
0.0
 11
0.312815
 21
1.3491
 31
0.0
  0
LINE
  8
0
 62
     0
 10
0.312815
 20
1.3491
 30
0.0
 11
0.248047
 21
1.49104
 31
0.0
  0
LINE
  8
0
 62
     0
 10
0.248047
 20
1.49104
 30
0.0
 11
0.192925
 21
1.63849
 31
0.0
  0
LINE
  8
0
 62
     0
 10
0.192925
 20
1.63849
 30
0.0
 11
0.150206
 21
1.79007
 31
0.0
  0
LINE
  8
0
 62
     0
 10
0.150206
 20
1.79007
 30
0.0
 11
0.119889
 21
1.94441
 31
0.0
  0
LINE
  8
0
 62
     0
 10
0.119889
 20
1.94441
 30
0.0
 11
0.101975
 21
2.10013
 31
0.0
  0
LINE
  8
0
 62
     0
 10
0.101975
 20
2.10013
 30
0.0
 11
0.0950846
 21
2.25585
 31
0.0
  0
LINE
  8
0
 62
     0
 10
0.0950846
 20
2.25585
 30
0.0
 11
0.0950846
 21
93.5069
 31
0.0
  0
LINE
  8
0
 62
     0
 10
0.0950846
 20
93.5069
 30
0.0
 11
0.101975
 21
93.6639
 31
0.0
  0
LINE
  8
0
 62
     0
 10
0.101975
 20
93.6639
 30
0.0
 11
0.119889
 21
93.8209
 31
0.0
  0
LINE
  8
0
 62
     0
 10
0.119889
 20
93.8209
 30
0.0
 11
0.150206
 21
93.974
 31
0.0
  0
LINE
  8
0
 62
     0
 10
0.150206
 20
93.974
 30
0.0
 11
0.192925
 21
94.1268
 31
0.0
  0
LINE
  8
0
 62
     0
 10
0.192925
 20
94.1268
 30
0.0
 11
0.248047
 21
94.2728
 31
0.0
  0
LINE
  8
0
 62
     0
 10
0.248047
 20
94.2728
 30
0.0
 11
0.312815
 21
94.415
 31
0.0
  0
LINE
  8
0
 62
     0
 10
0.312815
 20
94.415
 30
0.0
 11
0.389985
 21
94.5526
 31
0.0
  0
LINE
  8
0
 62
     0
 10
0.389985
 20
94.5526
 30
0.0
 11
0.4768
 21
94.6838
 31
0.0
  0
LINE
  8
0
 62
     0
 10
0.4768
 20
94.6838
 30
0.0
 11
0.574643
 21
94.8062
 31
0.0
  0
LINE
  8
0
 62
     0
 10
0.574643
 20
94.8062
 30
0.0
 11
0.680752
 21
94.9219
 31
0.0
  0
LINE
  8
0
 62
     0
 10
0.680752
 20
94.9219
 30
0.0
 11
0.796505
 21
95.0281
 31
0.0
  0
LINE
  8
0
 62
     0
 10
0.796505
 20
95.0281
 30
0.0
 11
0.919152
 21
95.1258
 31
0.0
  0
LINE
  8
0
 62
     0
 10
0.919152
 20
95.1258
 30
0.0
 11
1.05006
 21
95.213
 31
0.0
  0
LINE
  8
0
 62
     0
 10
1.05006
 20
95.213
 30
0.0
 11
1.18787
 21
95.2899
 31
0.0
  0
LINE
  8
0
 62
     0
 10
1.18787
 20
95.2899
 30
0.0
 11
1.32981
 21
95.3548
 31
0.0
  0
LINE
  8
0
 62
     0
 10
1.32981
 20
95.3548
 30
0.0
 11
1.47588
 21
95.4098
 31
0.0
  0
LINE
  8
0
 62
     0
 10
1.47588
 20
95.4098
 30
0.0
 11
1.62884
 21
95.4525
 31
0.0
  0
LINE
  8
0
 62
     0
 10
1.62884
 20
95.4525
 30
0.0
 11
1.7818
 21
95.4828
 31
0.0
  0
LINE
  8
0
 62
     0
 10
1.7818
 20
95.4828
 30
0.0
 11
1.9389
 21
95.5008
 31
0.0
  0
LINE
  8
0
 62
     0
 10
1.9389
 20
95.5008
 30
0.0
 11
2.096
 21
95.5075
 31
0.0
  0
LINE
  8
0
 62
     0
 10
2.096
 20
95.5075
 30
0.0
 11
112.396
 21
95.5075
 31
0.0
  0
LINE
  8
0
 62
     0
 10
97.8697
 20
16.7817
 30
0.0
 11
97.8697
 21
15.7827
 31
0.0
  0
LINE
  8
0
 62
     0
 10
97.8697
 20
15.7827
 30
0.0
 11
97.0703
 21
15.7827
 31
0.0
  0
LINE
  8
0
 62
     0
 10
97.0703
 20
15.7827
 30
0.0
 11
97.0703
 21
12.6835
 31
0.0
  0
LINE
  8
0
 62
     0
 10
97.0703
 20
12.6835
 30
0.0
 11
97.8697
 21
12.6835
 31
0.0
  0
LINE
  8
0
 62
     0
 10
97.8697
 20
12.6835
 30
0.0
 11
97.8697
 21
6.88192
 31
0.0
  0
LINE
  8
0
 62
     0
 10
97.8697
 20
6.88192
 30
0.0
 11
97.0703
 21
6.88192
 31
0.0
  0
LINE
  8
0
 62
     0
 10
97.0703
 20
6.88192
 30
0.0
 11
97.0703
 21
3.78273
 31
0.0
  0
LINE
  8
0
 62
     0
 10
97.0703
 20
3.78273
 30
0.0
 11
97.8697
 21
3.78273
 31
0.0
  0
LINE
  8
0
 62
     0
 10
97.8697
 20
3.78273
 30
0.0
 11
97.8697
 21
2.78226
 31
0.0
  0
LINE
  8
0
 62
     0
 10
97.8697
 20
2.78226
 30
0.0
 11
111.869
 21
2.78226
 31
0.0
  0
LINE
  8
0
 62
     0
 10
111.869
 20
2.78226
 30
0.0
 11
111.869
 21
3.78273
 31
0.0
  0
LINE
  8
0
 62
     0
 10
111.869
 20
3.78273
 30
0.0
 11
112.67
 21
3.78273
 31
0.0
  0
LINE
  8
0
 62
     0
 10
112.67
 20
3.78273
 30
0.0
 11
112.67
 21
6.88192
 31
0.0
  0
LINE
  8
0
 62
     0
 10
112.67
 20
6.88192
 30
0.0
 11
111.869
 21
6.88192
 31
0.0
  0
LINE
  8
0
 62
     0
 10
111.869
 20
6.88192
 30
0.0
 11
111.869
 21
12.6835
 31
0.0
  0
LINE
  8
0
 62
     0
 10
111.869
 20
12.6835
 30
0.0
 11
112.67
 21
12.6835
 31
0.0
  0
LINE
  8
0
 62
     0
 10
112.67
 20
12.6835
 30
0.0
 11
112.67
 21
15.7827
 31
0.0
  0
LINE
  8
0
 62
     0
 10
112.67
 20
15.7827
 30
0.0
 11
111.869
 21
15.7827
 31
0.0
  0
LINE
  8
0
 62
     0
 10
111.869
 20
15.7827
 30
0.0
 11
111.869
 21
16.7817
 31
0.0
  0
LINE
  8
0
 62
     0
 10
111.869
 20
16.7817
 30
0.0
 11
97.8697
 21
16.7817
 31
0.0
  0
LINE
  8
0
 62
     0
 10
78.8211
 20
16.7817
 30
0.0
 11
78.8211
 21
15.7827
 31
0.0
  0
LINE
  8
0
 62
     0
 10
78.8211
 20
15.7827
 30
0.0
 11
78.0203
 21
15.7827
 31
0.0
  0
LINE
  8
0
 62
     0
 10
78.0203
 20
15.7827
 30
0.0
 11
78.0203
 21
12.6835
 31
0.0
  0
LINE
  8
0
 62
     0
 10
78.0203
 20
12.6835
 30
0.0
 11
78.8211
 21
12.6835
 31
0.0
  0
LINE
  8
0
 62
     0
 10
78.8211
 20
12.6835
 30
0.0
 11
78.8211
 21
6.88192
 31
0.0
  0
LINE
  8
0
 62
     0
 10
78.8211
 20
6.88192
 30
0.0
 11
78.0203
 21
6.88192
 31
0.0
  0
LINE
  8
0
 62
     0
 10
78.0203
 20
6.88192
 30
0.0
 11
78.0203
 21
3.78273
 31
0.0
  0
LINE
  8
0
 62
     0
 10
78.0203
 20
3.78273
 30
0.0
 11
78.8211
 21
3.78273
 31
0.0
  0
LINE
  8
0
 62
     0
 10
78.8211
 20
3.78273
 30
0.0
 11
78.8211
 21
2.78226
 31
0.0
  0
LINE
  8
0
 62
     0
 10
78.8211
 20
2.78226
 30
0.0
 11
92.8204
 21
2.78226
 31
0.0
  0
LINE
  8
0
 62
     0
 10
92.8204
 20
2.78226
 30
0.0
 11
92.8204
 21
3.78273
 31
0.0
  0
LINE
  8
0
 62
     0
 10
92.8204
 20
3.78273
 30
0.0
 11
93.6198
 21
3.78273
 31
0.0
  0
LINE
  8
0
 62
     0
 10
93.6198
 20
3.78273
 30
0.0
 11
93.6198
 21
6.88192
 31
0.0
  0
LINE
  8
0
 62
     0
 10
93.6198
 20
6.88192
 30
0.0
 11
92.8204
 21
6.88192
 31
0.0
  0
LINE
  8
0
 62
     0
 10
92.8204
 20
6.88192
 30
0.0
 11
92.8204
 21
12.6835
 31
0.0
  0
LINE
  8
0
 62
     0
 10
92.8204
 20
12.6835
 30
0.0
 11
93.6198
 21
12.6835
 31
0.0
  0
LINE
  8
0
 62
     0
 10
93.6198
 20
12.6835
 30
0.0
 11
93.6198
 21
15.7827
 31
0.0
  0
LINE
  8
0
 62
     0
 10
93.6198
 20
15.7827
 30
0.0
 11
92.8204
 21
15.7827
 31
0.0
  0
LINE
  8
0
 62
     0
 10
92.8204
 20
15.7827
 30
0.0
 11
92.8204
 21
16.7817
 31
0.0
  0
LINE
  8
0
 62
     0
 10
92.8204
 20
16.7817
 30
0.0
 11
78.8211
 21
16.7817
 31
0.0
  0
LINE
  8
0
 62
     0
 10
59.7711
 20
16.7817
 30
0.0
 11
59.7711
 21
15.7827
 31
0.0
  0
LINE
  8
0
 62
     0
 10
59.7711
 20
15.7827
 30
0.0
 11
58.9703
 21
15.7827
 31
0.0
  0
LINE
  8
0
 62
     0
 10
58.9703
 20
15.7827
 30
0.0
 11
58.9703
 21
12.6835
 31
0.0
  0
LINE
  8
0
 62
     0
 10
58.9703
 20
12.6835
 30
0.0
 11
59.7711
 21
12.6835
 31
0.0
  0
LINE
  8
0
 62
     0
 10
59.7711
 20
12.6835
 30
0.0
 11
59.7711
 21
6.88192
 31
0.0
  0
LINE
  8
0
 62
     0
 10
59.7711
 20
6.88192
 30
0.0
 11
58.9703
 21
6.88192
 31
0.0
  0
LINE
  8
0
 62
     0
 10
58.9703
 20
6.88192
 30
0.0
 11
58.9703
 21
3.78273
 31
0.0
  0
LINE
  8
0
 62
     0
 10
58.9703
 20
3.78273
 30
0.0
 11
59.7711
 21
3.78273
 31
0.0
  0
LINE
  8
0
 62
     0
 10
59.7711
 20
3.78273
 30
0.0
 11
59.7711
 21
2.78226
 31
0.0
  0
LINE
  8
0
 62
     0
 10
59.7711
 20
2.78226
 30
0.0
 11
73.7704
 21
2.78226
 31
0.0
  0
LINE
  8
0
 62
     0
 10
73.7704
 20
2.78226
 30
0.0
 11
73.7704
 21
3.78273
 31
0.0
  0
LINE
  8
0
 62
     0
 10
73.7704
 20
3.78273
 30
0.0
 11
74.5712
 21
3.78273
 31
0.0
  0
LINE
  8
0
 62
     0
 10
74.5712
 20
3.78273
 30
0.0
 11
74.5712
 21
6.88192
 31
0.0
  0
LINE
  8
0
 62
     0
 10
74.5712
 20
6.88192
 30
0.0
 11
73.7704
 21
6.88192
 31
0.0
  0
LINE
  8
0
 62
     0
 10
73.7704
 20
6.88192
 30
0.0
 11
73.7704
 21
12.6835
 31
0.0
  0
LINE
  8
0
 62
     0
 10
73.7704
 20
12.6835
 30
0.0
 11
74.5712
 21
12.6835
 31
0.0
  0
LINE
  8
0
 62
     0
 10
74.5712
 20
12.6835
 30
0.0
 11
74.5712
 21
15.7827
 31
0.0
  0
LINE
  8
0
 62
     0
 10
74.5712
 20
15.7827
 30
0.0
 11
73.7704
 21
15.7827
 31
0.0
  0
LINE
  8
0
 62
     0
 10
73.7704
 20
15.7827
 30
0.0
 11
73.7704
 21
16.7817
 31
0.0
  0
LINE
  8
0
 62
     0
 10
73.7704
 20
16.7817
 30
0.0
 11
59.7711
 21
16.7817
 31
0.0
  0
LINE
  8
0
 62
     0
 10
40.7211
 20
16.7817
 30
0.0
 11
40.7211
 21
15.7827
 31
0.0
  0
LINE
  8
0
 62
     0
 10
40.7211
 20
15.7827
 30
0.0
 11
39.9203
 21
15.7827
 31
0.0
  0
LINE
  8
0
 62
     0
 10
39.9203
 20
15.7827
 30
0.0
 11
39.9203
 21
12.6835
 31
0.0
  0
LINE
  8
0
 62
     0
 10
39.9203
 20
12.6835
 30
0.0
 11
40.7211
 21
12.6835
 31
0.0
  0
LINE
  8
0
 62
     0
 10
40.7211
 20
12.6835
 30
0.0
 11
40.7211
 21
6.88192
 31
0.0
  0
LINE
  8
0
 62
     0
 10
40.7211
 20
6.88192
 30
0.0
 11
39.9203
 21
6.88192
 31
0.0
  0
LINE
  8
0
 62
     0
 10
39.9203
 20
6.88192
 30
0.0
 11
39.9203
 21
3.78273
 31
0.0
  0
LINE
  8
0
 62
     0
 10
39.9203
 20
3.78273
 30
0.0
 11
40.7211
 21
3.78273
 31
0.0
  0
LINE
  8
0
 62
     0
 10
40.7211
 20
3.78273
 30
0.0
 11
40.7211
 21
2.78226
 31
0.0
  0
LINE
  8
0
 62
     0
 10
40.7211
 20
2.78226
 30
0.0
 11
54.7204
 21
2.78226
 31
0.0
  0
LINE
  8
0
 62
     0
 10
54.7204
 20
2.78226
 30
0.0
 11
54.7204
 21
3.78273
 31
0.0
  0
LINE
  8
0
 62
     0
 10
54.7204
 20
3.78273
 30
0.0
 11
55.5212
 21
3.78273
 31
0.0
  0
LINE
  8
0
 62
     0
 10
55.5212
 20
3.78273
 30
0.0
 11
55.5212
 21
6.88192
 31
0.0
  0
LINE
  8
0
 62
     0
 10
55.5212
 20
6.88192
 30
0.0
 11
54.7204
 21
6.88192
 31
0.0
  0
LINE
  8
0
 62
     0
 10
54.7204
 20
6.88192
 30
0.0
 11
54.7204
 21
12.6835
 31
0.0
  0
LINE
  8
0
 62
     0
 10
54.7204
 20
12.6835
 30
0.0
 11
55.5212
 21
12.6835
 31
0.0
  0
LINE
  8
0
 62
     0
 10
55.5212
 20
12.6835
 30
0.0
 11
55.5212
 21
15.7827
 31
0.0
  0
LINE
  8
0
 62
     0
 10
55.5212
 20
15.7827
 30
0.0
 11
54.7204
 21
15.7827
 31
0.0
  0
LINE
  8
0
 62
     0
 10
54.7204
 20
15.7827
 30
0.0
 11
54.7204
 21
16.7817
 31
0.0
  0
LINE
  8
0
 62
     0
 10
54.7204
 20
16.7817
 30
0.0
 11
40.7211
 21
16.7817
 31
0.0
  0
LINE
  8
0
 62
     0
 10
21.671
 20
16.7817
 30
0.0
 11
21.671
 21
15.7827
 31
0.0
  0
LINE
  8
0
 62
     0
 10
21.671
 20
15.7827
 30
0.0
 11
20.8704
 21
15.7827
 31
0.0
  0
LINE
  8
0
 62
     0
 10
20.8704
 20
15.7827
 30
0.0
 11
20.8704
 21
12.6835
 31
0.0
  0
LINE
  8
0
 62
     0
 10
20.8704
 20
12.6835
 30
0.0
 11
21.671
 21
12.6835
 31
0.0
  0
LINE
  8
0
 62
     0
 10
21.671
 20
12.6835
 30
0.0
 11
21.671
 21
6.88192
 31
0.0
  0
LINE
  8
0
 62
     0
 10
21.671
 20
6.88192
 30
0.0
 11
20.8704
 21
6.88192
 31
0.0
  0
LINE
  8
0
 62
     0
 10
20.8704
 20
6.88192
 30
0.0
 11
20.8704
 21
3.78273
 31
0.0
  0
LINE
  8
0
 62
     0
 10
20.8704
 20
3.78273
 30
0.0
 11
21.671
 21
3.78273
 31
0.0
  0
LINE
  8
0
 62
     0
 10
21.671
 20
3.78273
 30
0.0
 11
21.671
 21
2.78226
 31
0.0
  0
LINE
  8
0
 62
     0
 10
21.671
 20
2.78226
 30
0.0
 11
35.6704
 21
2.78226
 31
0.0
  0
LINE
  8
0
 62
     0
 10
35.6704
 20
2.78226
 30
0.0
 11
35.6704
 21
3.78273
 31
0.0
  0
LINE
  8
0
 62
     0
 10
35.6704
 20
3.78273
 30
0.0
 11
36.4712
 21
3.78273
 31
0.0
  0
LINE
  8
0
 62
     0
 10
36.4712
 20
3.78273
 30
0.0
 11
36.4712
 21
6.88192
 31
0.0
  0
LINE
  8
0
 62
     0
 10
36.4712
 20
6.88192
 30
0.0
 11
35.6704
 21
6.88192
 31
0.0
  0
LINE
  8
0
 62
     0
 10
35.6704
 20
6.88192
 30
0.0
 11
35.6704
 21
12.6835
 31
0.0
  0
LINE
  8
0
 62
     0
 10
35.6704
 20
12.6835
 30
0.0
 11
36.4712
 21
12.6835
 31
0.0
  0
LINE
  8
0
 62
     0
 10
36.4712
 20
12.6835
 30
0.0
 11
36.4712
 21
15.7827
 31
0.0
  0
LINE
  8
0
 62
     0
 10
36.4712
 20
15.7827
 30
0.0
 11
35.6704
 21
15.7827
 31
0.0
  0
LINE
  8
0
 62
     0
 10
35.6704
 20
15.7827
 30
0.0
 11
35.6704
 21
16.7817
 31
0.0
  0
LINE
  8
0
 62
     0
 10
35.6704
 20
16.7817
 30
0.0
 11
21.671
 21
16.7817
 31
0.0
  0
LINE
  8
0
 62
     0
 10
2.62103
 20
16.7817
 30
0.0
 11
2.62103
 21
15.7827
 31
0.0
  0
LINE
  8
0
 62
     0
 10
2.62103
 20
15.7827
 30
0.0
 11
1.82039
 21
15.7827
 31
0.0
  0
LINE
  8
0
 62
     0
 10
1.82039
 20
15.7827
 30
0.0
 11
1.82039
 21
12.6835
 31
0.0
  0
LINE
  8
0
 62
     0
 10
1.82039
 20
12.6835
 30
0.0
 11
2.62103
 21
12.6835
 31
0.0
  0
LINE
  8
0
 62
     0
 10
2.62103
 20
12.6835
 30
0.0
 11
2.62103
 21
6.88192
 31
0.0
  0
LINE
  8
0
 62
     0
 10
2.62103
 20
6.88192
 30
0.0
 11
1.82039
 21
6.88192
 31
0.0
  0
LINE
  8
0
 62
     0
 10
1.82039
 20
6.88192
 30
0.0
 11
1.82039
 21
3.78273
 31
0.0
  0
LINE
  8
0
 62
     0
 10
1.82039
 20
3.78273
 30
0.0
 11
2.62103
 21
3.78273
 31
0.0
  0
LINE
  8
0
 62
     0
 10
2.62103
 20
3.78273
 30
0.0
 11
2.62103
 21
2.78226
 31
0.0
  0
LINE
  8
0
 62
     0
 10
2.62103
 20
2.78226
 30
0.0
 11
16.6205
 21
2.78226
 31
0.0
  0
LINE
  8
0
 62
     0
 10
16.6205
 20
2.78226
 30
0.0
 11
16.6205
 21
3.78273
 31
0.0
  0
LINE
  8
0
 62
     0
 10
16.6205
 20
3.78273
 30
0.0
 11
17.4212
 21
3.78273
 31
0.0
  0
LINE
  8
0
 62
     0
 10
17.4212
 20
3.78273
 30
0.0
 11
17.4212
 21
6.88192
 31
0.0
  0
LINE
  8
0
 62
     0
 10
17.4212
 20
6.88192
 30
0.0
 11
16.6205
 21
6.88192
 31
0.0
  0
LINE
  8
0
 62
     0
 10
16.6205
 20
6.88192
 30
0.0
 11
16.6205
 21
12.6835
 31
0.0
  0
LINE
  8
0
 62
     0
 10
16.6205
 20
12.6835
 30
0.0
 11
17.4212
 21
12.6835
 31
0.0
  0
LINE
  8
0
 62
     0
 10
17.4212
 20
12.6835
 30
0.0
 11
17.4212
 21
15.7827
 31
0.0
  0
LINE
  8
0
 62
     0
 10
17.4212
 20
15.7827
 30
0.0
 11
16.6205
 21
15.7827
 31
0.0
  0
LINE
  8
0
 62
     0
 10
16.6205
 20
15.7827
 30
0.0
 11
16.6205
 21
16.7817
 31
0.0
  0
LINE
  8
0
 62
     0
 10
16.6205
 20
16.7817
 30
0.0
 11
2.62103
 21
16.7817
 31
0.0
  0
LINE
  8
0
 62
     0
 10
97.8697
 20
35.8316
 30
0.0
 11
97.8697
 21
34.8327
 31
0.0
  0
LINE
  8
0
 62
     0
 10
97.8697
 20
34.8327
 30
0.0
 11
97.0703
 21
34.8327
 31
0.0
  0
LINE
  8
0
 62
     0
 10
97.0703
 20
34.8327
 30
0.0
 11
97.0703
 21
31.7335
 31
0.0
  0
LINE
  8
0
 62
     0
 10
97.0703
 20
31.7335
 30
0.0
 11
97.8697
 21
31.7335
 31
0.0
  0
LINE
  8
0
 62
     0
 10
97.8697
 20
31.7335
 30
0.0
 11
97.8697
 21
25.9319
 31
0.0
  0
LINE
  8
0
 62
     0
 10
97.8697
 20
25.9319
 30
0.0
 11
97.0703
 21
25.9319
 31
0.0
  0
LINE
  8
0
 62
     0
 10
97.0703
 20
25.9319
 30
0.0
 11
97.0703
 21
22.8327
 31
0.0
  0
LINE
  8
0
 62
     0
 10
97.0703
 20
22.8327
 30
0.0
 11
97.8697
 21
22.8327
 31
0.0
  0
LINE
  8
0
 62
     0
 10
97.8697
 20
22.8327
 30
0.0
 11
97.8697
 21
21.8323
 31
0.0
  0
LINE
  8
0
 62
     0
 10
97.8697
 20
21.8323
 30
0.0
 11
111.869
 21
21.8323
 31
0.0
  0
LINE
  8
0
 62
     0
 10
111.869
 20
21.8323
 30
0.0
 11
111.869
 21
22.8327
 31
0.0
  0
LINE
  8
0
 62
     0
 10
111.869
 20
22.8327
 30
0.0
 11
112.67
 21
22.8327
 31
0.0
  0
LINE
  8
0
 62
     0
 10
112.67
 20
22.8327
 30
0.0
 11
112.67
 21
25.9319
 31
0.0
  0
LINE
  8
0
 62
     0
 10
112.67
 20
25.9319
 30
0.0
 11
111.869
 21
25.9319
 31
0.0
  0
LINE
  8
0
 62
     0
 10
111.869
 20
25.9319
 30
0.0
 11
111.869
 21
31.7335
 31
0.0
  0
LINE
  8
0
 62
     0
 10
111.869
 20
31.7335
 30
0.0
 11
112.67
 21
31.7335
 31
0.0
  0
LINE
  8
0
 62
     0
 10
112.67
 20
31.7335
 30
0.0
 11
112.67
 21
34.8327
 31
0.0
  0
LINE
  8
0
 62
     0
 10
112.67
 20
34.8327
 30
0.0
 11
111.869
 21
34.8327
 31
0.0
  0
LINE
  8
0
 62
     0
 10
111.869
 20
34.8327
 30
0.0
 11
111.869
 21
35.8316
 31
0.0
  0
LINE
  8
0
 62
     0
 10
111.869
 20
35.8316
 30
0.0
 11
97.8697
 21
35.8316
 31
0.0
  0
LINE
  8
0
 62
     0
 10
78.8211
 20
35.8316
 30
0.0
 11
78.8211
 21
34.8327
 31
0.0
  0
LINE
  8
0
 62
     0
 10
78.8211
 20
34.8327
 30
0.0
 11
78.0203
 21
34.8327
 31
0.0
  0
LINE
  8
0
 62
     0
 10
78.0203
 20
34.8327
 30
0.0
 11
78.0203
 21
31.7335
 31
0.0
  0
LINE
  8
0
 62
     0
 10
78.0203
 20
31.7335
 30
0.0
 11
78.8211
 21
31.7335
 31
0.0
  0
LINE
  8
0
 62
     0
 10
78.8211
 20
31.7335
 30
0.0
 11
78.8211
 21
25.9319
 31
0.0
  0
LINE
  8
0
 62
     0
 10
78.8211
 20
25.9319
 30
0.0
 11
78.0203
 21
25.9319
 31
0.0
  0
LINE
  8
0
 62
     0
 10
78.0203
 20
25.9319
 30
0.0
 11
78.0203
 21
22.8327
 31
0.0
  0
LINE
  8
0
 62
     0
 10
78.0203
 20
22.8327
 30
0.0
 11
78.8211
 21
22.8327
 31
0.0
  0
LINE
  8
0
 62
     0
 10
78.8211
 20
22.8327
 30
0.0
 11
78.8211
 21
21.8323
 31
0.0
  0
LINE
  8
0
 62
     0
 10
78.8211
 20
21.8323
 30
0.0
 11
92.8204
 21
21.8323
 31
0.0
  0
LINE
  8
0
 62
     0
 10
92.8204
 20
21.8323
 30
0.0
 11
92.8204
 21
22.8327
 31
0.0
  0
LINE
  8
0
 62
     0
 10
92.8204
 20
22.8327
 30
0.0
 11
93.6198
 21
22.8327
 31
0.0
  0
LINE
  8
0
 62
     0
 10
93.6198
 20
22.8327
 30
0.0
 11
93.6198
 21
25.9319
 31
0.0
  0
LINE
  8
0
 62
     0
 10
93.6198
 20
25.9319
 30
0.0
 11
92.8204
 21
25.9319
 31
0.0
  0
LINE
  8
0
 62
     0
 10
92.8204
 20
25.9319
 30
0.0
 11
92.8204
 21
31.7335
 31
0.0
  0
LINE
  8
0
 62
     0
 10
92.8204
 20
31.7335
 30
0.0
 11
93.6198
 21
31.7335
 31
0.0
  0
LINE
  8
0
 62
     0
 10
93.6198
 20
31.7335
 30
0.0
 11
93.6198
 21
34.8327
 31
0.0
  0
LINE
  8
0
 62
     0
 10
93.6198
 20
34.8327
 30
0.0
 11
92.8204
 21
34.8327
 31
0.0
  0
LINE
  8
0
 62
     0
 10
92.8204
 20
34.8327
 30
0.0
 11
92.8204
 21
35.8316
 31
0.0
  0
LINE
  8
0
 62
     0
 10
92.8204
 20
35.8316
 30
0.0
 11
78.8211
 21
35.8316
 31
0.0
  0
LINE
  8
0
 62
     0
 10
59.7711
 20
35.8316
 30
0.0
 11
59.7711
 21
34.8327
 31
0.0
  0
LINE
  8
0
 62
     0
 10
59.7711
 20
34.8327
 30
0.0
 11
58.9703
 21
34.8327
 31
0.0
  0
LINE
  8
0
 62
     0
 10
58.9703
 20
34.8327
 30
0.0
 11
58.9703
 21
31.7335
 31
0.0
  0
LINE
  8
0
 62
     0
 10
58.9703
 20
31.7335
 30
0.0
 11
59.7711
 21
31.7335
 31
0.0
  0
LINE
  8
0
 62
     0
 10
59.7711
 20
31.7335
 30
0.0
 11
59.7711
 21
25.9319
 31
0.0
  0
LINE
  8
0
 62
     0
 10
59.7711
 20
25.9319
 30
0.0
 11
58.9703
 21
25.9319
 31
0.0
  0
LINE
  8
0
 62
     0
 10
58.9703
 20
25.9319
 30
0.0
 11
58.9703
 21
22.8327
 31
0.0
  0
LINE
  8
0
 62
     0
 10
58.9703
 20
22.8327
 30
0.0
 11
59.7711
 21
22.8327
 31
0.0
  0
LINE
  8
0
 62
     0
 10
59.7711
 20
22.8327
 30
0.0
 11
59.7711
 21
21.8323
 31
0.0
  0
LINE
  8
0
 62
     0
 10
59.7711
 20
21.8323
 30
0.0
 11
73.7704
 21
21.8323
 31
0.0
  0
LINE
  8
0
 62
     0
 10
73.7704
 20
21.8323
 30
0.0
 11
73.7704
 21
22.8327
 31
0.0
  0
LINE
  8
0
 62
     0
 10
73.7704
 20
22.8327
 30
0.0
 11
74.5712
 21
22.8327
 31
0.0
  0
LINE
  8
0
 62
     0
 10
74.5712
 20
22.8327
 30
0.0
 11
74.5712
 21
25.9319
 31
0.0
  0
LINE
  8
0
 62
     0
 10
74.5712
 20
25.9319
 30
0.0
 11
73.7704
 21
25.9319
 31
0.0
  0
LINE
  8
0
 62
     0
 10
73.7704
 20
25.9319
 30
0.0
 11
73.7704
 21
31.7335
 31
0.0
  0
LINE
  8
0
 62
     0
 10
73.7704
 20
31.7335
 30
0.0
 11
74.5712
 21
31.7335
 31
0.0
  0
LINE
  8
0
 62
     0
 10
74.5712
 20
31.7335
 30
0.0
 11
74.5712
 21
34.8327
 31
0.0
  0
LINE
  8
0
 62
     0
 10
74.5712
 20
34.8327
 30
0.0
 11
73.7704
 21
34.8327
 31
0.0
  0
LINE
  8
0
 62
     0
 10
73.7704
 20
34.8327
 30
0.0
 11
73.7704
 21
35.8316
 31
0.0
  0
LINE
  8
0
 62
     0
 10
73.7704
 20
35.8316
 30
0.0
 11
59.7711
 21
35.8316
 31
0.0
  0
LINE
  8
0
 62
     0
 10
40.7211
 20
35.8316
 30
0.0
 11
40.7211
 21
34.8327
 31
0.0
  0
LINE
  8
0
 62
     0
 10
40.7211
 20
34.8327
 30
0.0
 11
39.9203
 21
34.8327
 31
0.0
  0
LINE
  8
0
 62
     0
 10
39.9203
 20
34.8327
 30
0.0
 11
39.9203
 21
31.7335
 31
0.0
  0
LINE
  8
0
 62
     0
 10
39.9203
 20
31.7335
 30
0.0
 11
40.7211
 21
31.7335
 31
0.0
  0
LINE
  8
0
 62
     0
 10
40.7211
 20
31.7335
 30
0.0
 11
40.7211
 21
25.9319
 31
0.0
  0
LINE
  8
0
 62
     0
 10
40.7211
 20
25.9319
 30
0.0
 11
39.9203
 21
25.9319
 31
0.0
  0
LINE
  8
0
 62
     0
 10
39.9203
 20
25.9319
 30
0.0
 11
39.9203
 21
22.8327
 31
0.0
  0
LINE
  8
0
 62
     0
 10
39.9203
 20
22.8327
 30
0.0
 11
40.7211
 21
22.8327
 31
0.0
  0
LINE
  8
0
 62
     0
 10
40.7211
 20
22.8327
 30
0.0
 11
40.7211
 21
21.8323
 31
0.0
  0
LINE
  8
0
 62
     0
 10
40.7211
 20
21.8323
 30
0.0
 11
54.7204
 21
21.8323
 31
0.0
  0
LINE
  8
0
 62
     0
 10
54.7204
 20
21.8323
 30
0.0
 11
54.7204
 21
22.8327
 31
0.0
  0
LINE
  8
0
 62
     0
 10
54.7204
 20
22.8327
 30
0.0
 11
55.5212
 21
22.8327
 31
0.0
  0
LINE
  8
0
 62
     0
 10
55.5212
 20
22.8327
 30
0.0
 11
55.5212
 21
25.9319
 31
0.0
  0
LINE
  8
0
 62
     0
 10
55.5212
 20
25.9319
 30
0.0
 11
54.7204
 21
25.9319
 31
0.0
  0
LINE
  8
0
 62
     0
 10
54.7204
 20
25.9319
 30
0.0
 11
54.7204
 21
31.7335
 31
0.0
  0
LINE
  8
0
 62
     0
 10
54.7204
 20
31.7335
 30
0.0
 11
55.5212
 21
31.7335
 31
0.0
  0
LINE
  8
0
 62
     0
 10
55.5212
 20
31.7335
 30
0.0
 11
55.5212
 21
34.8327
 31
0.0
  0
LINE
  8
0
 62
     0
 10
55.5212
 20
34.8327
 30
0.0
 11
54.7204
 21
34.8327
 31
0.0
  0
LINE
  8
0
 62
     0
 10
54.7204
 20
34.8327
 30
0.0
 11
54.7204
 21
35.8316
 31
0.0
  0
LINE
  8
0
 62
     0
 10
54.7204
 20
35.8316
 30
0.0
 11
40.7211
 21
35.8316
 31
0.0
  0
LINE
  8
0
 62
     0
 10
21.671
 20
35.8316
 30
0.0
 11
21.671
 21
34.8327
 31
0.0
  0
LINE
  8
0
 62
     0
 10
21.671
 20
34.8327
 30
0.0
 11
20.8704
 21
34.8327
 31
0.0
  0
LINE
  8
0
 62
     0
 10
20.8704
 20
34.8327
 30
0.0
 11
20.8704
 21
31.7335
 31
0.0
  0
LINE
  8
0
 62
     0
 10
20.8704
 20
31.7335
 30
0.0
 11
21.671
 21
31.7335
 31
0.0
  0
LINE
  8
0
 62
     0
 10
21.671
 20
31.7335
 30
0.0
 11
21.671
 21
25.9319
 31
0.0
  0
LINE
  8
0
 62
     0
 10
21.671
 20
25.9319
 30
0.0
 11
20.8704
 21
25.9319
 31
0.0
  0
LINE
  8
0
 62
     0
 10
20.8704
 20
25.9319
 30
0.0
 11
20.8704
 21
22.8327
 31
0.0
  0
LINE
  8
0
 62
     0
 10
20.8704
 20
22.8327
 30
0.0
 11
21.671
 21
22.8327
 31
0.0
  0
LINE
  8
0
 62
     0
 10
21.671
 20
22.8327
 30
0.0
 11
21.671
 21
21.8323
 31
0.0
  0
LINE
  8
0
 62
     0
 10
21.671
 20
21.8323
 30
0.0
 11
35.6704
 21
21.8323
 31
0.0
  0
LINE
  8
0
 62
     0
 10
35.6704
 20
21.8323
 30
0.0
 11
35.6704
 21
22.8327
 31
0.0
  0
LINE
  8
0
 62
     0
 10
35.6704
 20
22.8327
 30
0.0
 11
36.4712
 21
22.8327
 31
0.0
  0
LINE
  8
0
 62
     0
 10
36.4712
 20
22.8327
 30
0.0
 11
36.4712
 21
25.9319
 31
0.0
  0
LINE
  8
0
 62
     0
 10
36.4712
 20
25.9319
 30
0.0
 11
35.6704
 21
25.9319
 31
0.0
  0
LINE
  8
0
 62
     0
 10
35.6704
 20
25.9319
 30
0.0
 11
35.6704
 21
31.7335
 31
0.0
  0
LINE
  8
0
 62
     0
 10
35.6704
 20
31.7335
 30
0.0
 11
36.4712
 21
31.7335
 31
0.0
  0
LINE
  8
0
 62
     0
 10
36.4712
 20
31.7335
 30
0.0
 11
36.4712
 21
34.8327
 31
0.0
  0
LINE
  8
0
 62
     0
 10
36.4712
 20
34.8327
 30
0.0
 11
35.6704
 21
34.8327
 31
0.0
  0
LINE
  8
0
 62
     0
 10
35.6704
 20
34.8327
 30
0.0
 11
35.6704
 21
35.8316
 31
0.0
  0
LINE
  8
0
 62
     0
 10
35.6704
 20
35.8316
 30
0.0
 11
21.671
 21
35.8316
 31
0.0
  0
LINE
  8
0
 62
     0
 10
2.62103
 20
35.8316
 30
0.0
 11
2.62103
 21
34.8327
 31
0.0
  0
LINE
  8
0
 62
     0
 10
2.62103
 20
34.8327
 30
0.0
 11
1.82039
 21
34.8327
 31
0.0
  0
LINE
  8
0
 62
     0
 10
1.82039
 20
34.8327
 30
0.0
 11
1.82039
 21
31.7335
 31
0.0
  0
LINE
  8
0
 62
     0
 10
1.82039
 20
31.7335
 30
0.0
 11
2.62103
 21
31.7335
 31
0.0
  0
LINE
  8
0
 62
     0
 10
2.62103
 20
31.7335
 30
0.0
 11
2.62103
 21
25.9319
 31
0.0
  0
LINE
  8
0
 62
     0
 10
2.62103
 20
25.9319
 30
0.0
 11
1.82039
 21
25.9319
 31
0.0
  0
LINE
  8
0
 62
     0
 10
1.82039
 20
25.9319
 30
0.0
 11
1.82039
 21
22.8327
 31
0.0
  0
LINE
  8
0
 62
     0
 10
1.82039
 20
22.8327
 30
0.0
 11
2.62103
 21
22.8327
 31
0.0
  0
LINE
  8
0
 62
     0
 10
2.62103
 20
22.8327
 30
0.0
 11
2.62103
 21
21.8323
 31
0.0
  0
LINE
  8
0
 62
     0
 10
2.62103
 20
21.8323
 30
0.0
 11
16.6205
 21
21.8323
 31
0.0
  0
LINE
  8
0
 62
     0
 10
16.6205
 20
21.8323
 30
0.0
 11
16.6205
 21
22.8327
 31
0.0
  0
LINE
  8
0
 62
     0
 10
16.6205
 20
22.8327
 30
0.0
 11
17.4212
 21
22.8327
 31
0.0
  0
LINE
  8
0
 62
     0
 10
17.4212
 20
22.8327
 30
0.0
 11
17.4212
 21
25.9319
 31
0.0
  0
LINE
  8
0
 62
     0
 10
17.4212
 20
25.9319
 30
0.0
 11
16.6205
 21
25.9319
 31
0.0
  0
LINE
  8
0
 62
     0
 10
16.6205
 20
25.9319
 30
0.0
 11
16.6205
 21
31.7335
 31
0.0
  0
LINE
  8
0
 62
     0
 10
16.6205
 20
31.7335
 30
0.0
 11
17.4212
 21
31.7335
 31
0.0
  0
LINE
  8
0
 62
     0
 10
17.4212
 20
31.7335
 30
0.0
 11
17.4212
 21
34.8327
 31
0.0
  0
LINE
  8
0
 62
     0
 10
17.4212
 20
34.8327
 30
0.0
 11
16.6205
 21
34.8327
 31
0.0
  0
LINE
  8
0
 62
     0
 10
16.6205
 20
34.8327
 30
0.0
 11
16.6205
 21
35.8316
 31
0.0
  0
LINE
  8
0
 62
     0
 10
16.6205
 20
35.8316
 30
0.0
 11
2.62103
 21
35.8316
 31
0.0
  0
LINE
  8
0
 62
     0
 10
97.8697
 20
54.8816
 30
0.0
 11
97.8697
 21
53.8826
 31
0.0
  0
LINE
  8
0
 62
     0
 10
97.8697
 20
53.8826
 30
0.0
 11
97.0703
 21
53.8826
 31
0.0
  0
LINE
  8
0
 62
     0
 10
97.0703
 20
53.8826
 30
0.0
 11
97.0703
 21
50.782
 31
0.0
  0
LINE
  8
0
 62
     0
 10
97.0703
 20
50.782
 30
0.0
 11
97.8697
 21
50.782
 31
0.0
  0
LINE
  8
0
 62
     0
 10
97.8697
 20
50.782
 30
0.0
 11
97.8697
 21
44.982
 31
0.0
  0
LINE
  8
0
 62
     0
 10
97.8697
 20
44.982
 30
0.0
 11
97.0703
 21
44.982
 31
0.0
  0
LINE
  8
0
 62
     0
 10
97.0703
 20
44.982
 30
0.0
 11
97.0703
 21
41.8828
 31
0.0
  0
LINE
  8
0
 62
     0
 10
97.0703
 20
41.8828
 30
0.0
 11
97.8697
 21
41.8828
 31
0.0
  0
LINE
  8
0
 62
     0
 10
97.8697
 20
41.8828
 30
0.0
 11
97.8697
 21
40.8824
 31
0.0
  0
LINE
  8
0
 62
     0
 10
97.8697
 20
40.8824
 30
0.0
 11
111.869
 21
40.8824
 31
0.0
  0
LINE
  8
0
 62
     0
 10
111.869
 20
40.8824
 30
0.0
 11
111.869
 21
41.8828
 31
0.0
  0
LINE
  8
0
 62
     0
 10
111.869
 20
41.8828
 30
0.0
 11
112.67
 21
41.8828
 31
0.0
  0
LINE
  8
0
 62
     0
 10
112.67
 20
41.8828
 30
0.0
 11
112.67
 21
44.982
 31
0.0
  0
LINE
  8
0
 62
     0
 10
112.67
 20
44.982
 30
0.0
 11
111.869
 21
44.982
 31
0.0
  0
LINE
  8
0
 62
     0
 10
111.869
 20
44.982
 30
0.0
 11
111.869
 21
50.782
 31
0.0
  0
LINE
  8
0
 62
     0
 10
111.869
 20
50.782
 30
0.0
 11
112.67
 21
50.782
 31
0.0
  0
LINE
  8
0
 62
     0
 10
112.67
 20
50.782
 30
0.0
 11
112.67
 21
53.8826
 31
0.0
  0
LINE
  8
0
 62
     0
 10
112.67
 20
53.8826
 30
0.0
 11
111.869
 21
53.8826
 31
0.0
  0
LINE
  8
0
 62
     0
 10
111.869
 20
53.8826
 30
0.0
 11
111.869
 21
54.8816
 31
0.0
  0
LINE
  8
0
 62
     0
 10
111.869
 20
54.8816
 30
0.0
 11
97.8697
 21
54.8816
 31
0.0
  0
LINE
  8
0
 62
     0
 10
78.8211
 20
54.8816
 30
0.0
 11
78.8211
 21
53.8826
 31
0.0
  0
LINE
  8
0
 62
     0
 10
78.8211
 20
53.8826
 30
0.0
 11
78.0203
 21
53.8826
 31
0.0
  0
LINE
  8
0
 62
     0
 10
78.0203
 20
53.8826
 30
0.0
 11
78.0203
 21
50.782
 31
0.0
  0
LINE
  8
0
 62
     0
 10
78.0203
 20
50.782
 30
0.0
 11
78.8211
 21
50.782
 31
0.0
  0
LINE
  8
0
 62
     0
 10
78.8211
 20
50.782
 30
0.0
 11
78.8211
 21
44.982
 31
0.0
  0
LINE
  8
0
 62
     0
 10
78.8211
 20
44.982
 30
0.0
 11
78.0203
 21
44.982
 31
0.0
  0
LINE
  8
0
 62
     0
 10
78.0203
 20
44.982
 30
0.0
 11
78.0203
 21
41.8828
 31
0.0
  0
LINE
  8
0
 62
     0
 10
78.0203
 20
41.8828
 30
0.0
 11
78.8211
 21
41.8828
 31
0.0
  0
LINE
  8
0
 62
     0
 10
78.8211
 20
41.8828
 30
0.0
 11
78.8211
 21
40.8824
 31
0.0
  0
LINE
  8
0
 62
     0
 10
78.8211
 20
40.8824
 30
0.0
 11
92.8204
 21
40.8824
 31
0.0
  0
LINE
  8
0
 62
     0
 10
92.8204
 20
40.8824
 30
0.0
 11
92.8204
 21
41.8828
 31
0.0
  0
LINE
  8
0
 62
     0
 10
92.8204
 20
41.8828
 30
0.0
 11
93.6198
 21
41.8828
 31
0.0
  0
LINE
  8
0
 62
     0
 10
93.6198
 20
41.8828
 30
0.0
 11
93.6198
 21
44.982
 31
0.0
  0
LINE
  8
0
 62
     0
 10
93.6198
 20
44.982
 30
0.0
 11
92.8204
 21
44.982
 31
0.0
  0
LINE
  8
0
 62
     0
 10
92.8204
 20
44.982
 30
0.0
 11
92.8204
 21
50.782
 31
0.0
  0
LINE
  8
0
 62
     0
 10
92.8204
 20
50.782
 30
0.0
 11
93.6198
 21
50.782
 31
0.0
  0
LINE
  8
0
 62
     0
 10
93.6198
 20
50.782
 30
0.0
 11
93.6198
 21
53.8826
 31
0.0
  0
LINE
  8
0
 62
     0
 10
93.6198
 20
53.8826
 30
0.0
 11
92.8204
 21
53.8826
 31
0.0
  0
LINE
  8
0
 62
     0
 10
92.8204
 20
53.8826
 30
0.0
 11
92.8204
 21
54.8816
 31
0.0
  0
LINE
  8
0
 62
     0
 10
92.8204
 20
54.8816
 30
0.0
 11
78.8211
 21
54.8816
 31
0.0
  0
LINE
  8
0
 62
     0
 10
59.7711
 20
54.8816
 30
0.0
 11
59.7711
 21
53.8826
 31
0.0
  0
LINE
  8
0
 62
     0
 10
59.7711
 20
53.8826
 30
0.0
 11
58.9703
 21
53.8826
 31
0.0
  0
LINE
  8
0
 62
     0
 10
58.9703
 20
53.8826
 30
0.0
 11
58.9703
 21
50.782
 31
0.0
  0
LINE
  8
0
 62
     0
 10
58.9703
 20
50.782
 30
0.0
 11
59.7711
 21
50.782
 31
0.0
  0
LINE
  8
0
 62
     0
 10
59.7711
 20
50.782
 30
0.0
 11
59.7711
 21
44.982
 31
0.0
  0
LINE
  8
0
 62
     0
 10
59.7711
 20
44.982
 30
0.0
 11
58.9703
 21
44.982
 31
0.0
  0
LINE
  8
0
 62
     0
 10
58.9703
 20
44.982
 30
0.0
 11
58.9703
 21
41.8828
 31
0.0
  0
LINE
  8
0
 62
     0
 10
58.9703
 20
41.8828
 30
0.0
 11
59.7711
 21
41.8828
 31
0.0
  0
LINE
  8
0
 62
     0
 10
59.7711
 20
41.8828
 30
0.0
 11
59.7711
 21
40.8824
 31
0.0
  0
LINE
  8
0
 62
     0
 10
59.7711
 20
40.8824
 30
0.0
 11
73.7704
 21
40.8824
 31
0.0
  0
LINE
  8
0
 62
     0
 10
73.7704
 20
40.8824
 30
0.0
 11
73.7704
 21
41.8828
 31
0.0
  0
LINE
  8
0
 62
     0
 10
73.7704
 20
41.8828
 30
0.0
 11
74.5712
 21
41.8828
 31
0.0
  0
LINE
  8
0
 62
     0
 10
74.5712
 20
41.8828
 30
0.0
 11
74.5712
 21
44.982
 31
0.0
  0
LINE
  8
0
 62
     0
 10
74.5712
 20
44.982
 30
0.0
 11
73.7704
 21
44.982
 31
0.0
  0
LINE
  8
0
 62
     0
 10
73.7704
 20
44.982
 30
0.0
 11
73.7704
 21
50.782
 31
0.0
  0
LINE
  8
0
 62
     0
 10
73.7704
 20
50.782
 30
0.0
 11
74.5712
 21
50.782
 31
0.0
  0
LINE
  8
0
 62
     0
 10
74.5712
 20
50.782
 30
0.0
 11
74.5712
 21
53.8826
 31
0.0
  0
LINE
  8
0
 62
     0
 10
74.5712
 20
53.8826
 30
0.0
 11
73.7704
 21
53.8826
 31
0.0
  0
LINE
  8
0
 62
     0
 10
73.7704
 20
53.8826
 30
0.0
 11
73.7704
 21
54.8816
 31
0.0
  0
LINE
  8
0
 62
     0
 10
73.7704
 20
54.8816
 30
0.0
 11
59.7711
 21
54.8816
 31
0.0
  0
LINE
  8
0
 62
     0
 10
40.7211
 20
54.8816
 30
0.0
 11
40.7211
 21
53.8826
 31
0.0
  0
LINE
  8
0
 62
     0
 10
40.7211
 20
53.8826
 30
0.0
 11
39.9203
 21
53.8826
 31
0.0
  0
LINE
  8
0
 62
     0
 10
39.9203
 20
53.8826
 30
0.0
 11
39.9203
 21
50.782
 31
0.0
  0
LINE
  8
0
 62
     0
 10
39.9203
 20
50.782
 30
0.0
 11
40.7211
 21
50.782
 31
0.0
  0
LINE
  8
0
 62
     0
 10
40.7211
 20
50.782
 30
0.0
 11
40.7211
 21
44.982
 31
0.0
  0
LINE
  8
0
 62
     0
 10
40.7211
 20
44.982
 30
0.0
 11
39.9203
 21
44.982
 31
0.0
  0
LINE
  8
0
 62
     0
 10
39.9203
 20
44.982
 30
0.0
 11
39.9203
 21
41.8828
 31
0.0
  0
LINE
  8
0
 62
     0
 10
39.9203
 20
41.8828
 30
0.0
 11
40.7211
 21
41.8828
 31
0.0
  0
LINE
  8
0
 62
     0
 10
40.7211
 20
41.8828
 30
0.0
 11
40.7211
 21
40.8824
 31
0.0
  0
LINE
  8
0
 62
     0
 10
40.7211
 20
40.8824
 30
0.0
 11
54.7204
 21
40.8824
 31
0.0
  0
LINE
  8
0
 62
     0
 10
54.7204
 20
40.8824
 30
0.0
 11
54.7204
 21
41.8828
 31
0.0
  0
LINE
  8
0
 62
     0
 10
54.7204
 20
41.8828
 30
0.0
 11
55.5212
 21
41.8828
 31
0.0
  0
LINE
  8
0
 62
     0
 10
55.5212
 20
41.8828
 30
0.0
 11
55.5212
 21
44.982
 31
0.0
  0
LINE
  8
0
 62
     0
 10
55.5212
 20
44.982
 30
0.0
 11
54.7204
 21
44.982
 31
0.0
  0
LINE
  8
0
 62
     0
 10
54.7204
 20
44.982
 30
0.0
 11
54.7204
 21
50.782
 31
0.0
  0
LINE
  8
0
 62
     0
 10
54.7204
 20
50.782
 30
0.0
 11
55.5212
 21
50.782
 31
0.0
  0
LINE
  8
0
 62
     0
 10
55.5212
 20
50.782
 30
0.0
 11
55.5212
 21
53.8826
 31
0.0
  0
LINE
  8
0
 62
     0
 10
55.5212
 20
53.8826
 30
0.0
 11
54.7204
 21
53.8826
 31
0.0
  0
LINE
  8
0
 62
     0
 10
54.7204
 20
53.8826
 30
0.0
 11
54.7204
 21
54.8816
 31
0.0
  0
LINE
  8
0
 62
     0
 10
54.7204
 20
54.8816
 30
0.0
 11
40.7211
 21
54.8816
 31
0.0
  0
LINE
  8
0
 62
     0
 10
21.671
 20
54.8816
 30
0.0
 11
21.671
 21
53.8826
 31
0.0
  0
LINE
  8
0
 62
     0
 10
21.671
 20
53.8826
 30
0.0
 11
20.8704
 21
53.8826
 31
0.0
  0
LINE
  8
0
 62
     0
 10
20.8704
 20
53.8826
 30
0.0
 11
20.8704
 21
50.782
 31
0.0
  0
LINE
  8
0
 62
     0
 10
20.8704
 20
50.782
 30
0.0
 11
21.671
 21
50.782
 31
0.0
  0
LINE
  8
0
 62
     0
 10
21.671
 20
50.782
 30
0.0
 11
21.671
 21
44.982
 31
0.0
  0
LINE
  8
0
 62
     0
 10
21.671
 20
44.982
 30
0.0
 11
20.8704
 21
44.982
 31
0.0
  0
LINE
  8
0
 62
     0
 10
20.8704
 20
44.982
 30
0.0
 11
20.8704
 21
41.8828
 31
0.0
  0
LINE
  8
0
 62
     0
 10
20.8704
 20
41.8828
 30
0.0
 11
21.671
 21
41.8828
 31
0.0
  0
LINE
  8
0
 62
     0
 10
21.671
 20
41.8828
 30
0.0
 11
21.671
 21
40.8824
 31
0.0
  0
LINE
  8
0
 62
     0
 10
21.671
 20
40.8824
 30
0.0
 11
35.6704
 21
40.8824
 31
0.0
  0
LINE
  8
0
 62
     0
 10
35.6704
 20
40.8824
 30
0.0
 11
35.6704
 21
41.8828
 31
0.0
  0
LINE
  8
0
 62
     0
 10
35.6704
 20
41.8828
 30
0.0
 11
36.4712
 21
41.8828
 31
0.0
  0
LINE
  8
0
 62
     0
 10
36.4712
 20
41.8828
 30
0.0
 11
36.4712
 21
44.982
 31
0.0
  0
LINE
  8
0
 62
     0
 10
36.4712
 20
44.982
 30
0.0
 11
35.6704
 21
44.982
 31
0.0
  0
LINE
  8
0
 62
     0
 10
35.6704
 20
44.982
 30
0.0
 11
35.6704
 21
50.782
 31
0.0
  0
LINE
  8
0
 62
     0
 10
35.6704
 20
50.782
 30
0.0
 11
36.4712
 21
50.782
 31
0.0
  0
LINE
  8
0
 62
     0
 10
36.4712
 20
50.782
 30
0.0
 11
36.4712
 21
53.8826
 31
0.0
  0
LINE
  8
0
 62
     0
 10
36.4712
 20
53.8826
 30
0.0
 11
35.6704
 21
53.8826
 31
0.0
  0
LINE
  8
0
 62
     0
 10
35.6704
 20
53.8826
 30
0.0
 11
35.6704
 21
54.8816
 31
0.0
  0
LINE
  8
0
 62
     0
 10
35.6704
 20
54.8816
 30
0.0
 11
21.671
 21
54.8816
 31
0.0
  0
LINE
  8
0
 62
     0
 10
2.62103
 20
54.8816
 30
0.0
 11
2.62103
 21
53.8826
 31
0.0
  0
LINE
  8
0
 62
     0
 10
2.62103
 20
53.8826
 30
0.0
 11
1.82039
 21
53.8826
 31
0.0
  0
LINE
  8
0
 62
     0
 10
1.82039
 20
53.8826
 30
0.0
 11
1.82039
 21
50.782
 31
0.0
  0
LINE
  8
0
 62
     0
 10
1.82039
 20
50.782
 30
0.0
 11
2.62103
 21
50.782
 31
0.0
  0
LINE
  8
0
 62
     0
 10
2.62103
 20
50.782
 30
0.0
 11
2.62103
 21
44.982
 31
0.0
  0
LINE
  8
0
 62
     0
 10
2.62103
 20
44.982
 30
0.0
 11
1.82039
 21
44.982
 31
0.0
  0
LINE
  8
0
 62
     0
 10
1.82039
 20
44.982
 30
0.0
 11
1.82039
 21
41.8828
 31
0.0
  0
LINE
  8
0
 62
     0
 10
1.82039
 20
41.8828
 30
0.0
 11
2.62103
 21
41.8828
 31
0.0
  0
LINE
  8
0
 62
     0
 10
2.62103
 20
41.8828
 30
0.0
 11
2.62103
 21
40.8824
 31
0.0
  0
LINE
  8
0
 62
     0
 10
2.62103
 20
40.8824
 30
0.0
 11
16.6205
 21
40.8824
 31
0.0
  0
LINE
  8
0
 62
     0
 10
16.6205
 20
40.8824
 30
0.0
 11
16.6205
 21
41.8828
 31
0.0
  0
LINE
  8
0
 62
     0
 10
16.6205
 20
41.8828
 30
0.0
 11
17.4212
 21
41.8828
 31
0.0
  0
LINE
  8
0
 62
     0
 10
17.4212
 20
41.8828
 30
0.0
 11
17.4212
 21
44.982
 31
0.0
  0
LINE
  8
0
 62
     0
 10
17.4212
 20
44.982
 30
0.0
 11
16.6205
 21
44.982
 31
0.0
  0
LINE
  8
0
 62
     0
 10
16.6205
 20
44.982
 30
0.0
 11
16.6205
 21
50.782
 31
0.0
  0
LINE
  8
0
 62
     0
 10
16.6205
 20
50.782
 30
0.0
 11
17.4212
 21
50.782
 31
0.0
  0
LINE
  8
0
 62
     0
 10
17.4212
 20
50.782
 30
0.0
 11
17.4212
 21
53.8826
 31
0.0
  0
LINE
  8
0
 62
     0
 10
17.4212
 20
53.8826
 30
0.0
 11
16.6205
 21
53.8826
 31
0.0
  0
LINE
  8
0
 62
     0
 10
16.6205
 20
53.8826
 30
0.0
 11
16.6205
 21
54.8816
 31
0.0
  0
LINE
  8
0
 62
     0
 10
16.6205
 20
54.8816
 30
0.0
 11
2.62103
 21
54.8816
 31
0.0
  0
LINE
  8
0
 62
     0
 10
97.8697
 20
73.9316
 30
0.0
 11
97.8697
 21
72.9326
 31
0.0
  0
LINE
  8
0
 62
     0
 10
97.8697
 20
72.9326
 30
0.0
 11
97.0703
 21
72.9326
 31
0.0
  0
LINE
  8
0
 62
     0
 10
97.0703
 20
72.9326
 30
0.0
 11
97.0703
 21
69.832
 31
0.0
  0
LINE
  8
0
 62
     0
 10
97.0703
 20
69.832
 30
0.0
 11
97.8697
 21
69.832
 31
0.0
  0
LINE
  8
0
 62
     0
 10
97.8697
 20
69.832
 30
0.0
 11
97.8697
 21
64.032
 31
0.0
  0
LINE
  8
0
 62
     0
 10
97.8697
 20
64.032
 30
0.0
 11
97.0703
 21
64.032
 31
0.0
  0
LINE
  8
0
 62
     0
 10
97.0703
 20
64.032
 30
0.0
 11
97.0703
 21
60.9328
 31
0.0
  0
LINE
  8
0
 62
     0
 10
97.0703
 20
60.9328
 30
0.0
 11
97.8697
 21
60.9328
 31
0.0
  0
LINE
  8
0
 62
     0
 10
97.8697
 20
60.9328
 30
0.0
 11
97.8697
 21
59.9324
 31
0.0
  0
LINE
  8
0
 62
     0
 10
97.8697
 20
59.9324
 30
0.0
 11
111.869
 21
59.9324
 31
0.0
  0
LINE
  8
0
 62
     0
 10
111.869
 20
59.9324
 30
0.0
 11
111.869
 21
60.9328
 31
0.0
  0
LINE
  8
0
 62
     0
 10
111.869
 20
60.9328
 30
0.0
 11
112.67
 21
60.9328
 31
0.0
  0
LINE
  8
0
 62
     0
 10
112.67
 20
60.9328
 30
0.0
 11
112.67
 21
64.032
 31
0.0
  0
LINE
  8
0
 62
     0
 10
112.67
 20
64.032
 30
0.0
 11
111.869
 21
64.032
 31
0.0
  0
LINE
  8
0
 62
     0
 10
111.869
 20
64.032
 30
0.0
 11
111.869
 21
69.832
 31
0.0
  0
LINE
  8
0
 62
     0
 10
111.869
 20
69.832
 30
0.0
 11
112.67
 21
69.832
 31
0.0
  0
LINE
  8
0
 62
     0
 10
112.67
 20
69.832
 30
0.0
 11
112.67
 21
72.9326
 31
0.0
  0
LINE
  8
0
 62
     0
 10
112.67
 20
72.9326
 30
0.0
 11
111.869
 21
72.9326
 31
0.0
  0
LINE
  8
0
 62
     0
 10
111.869
 20
72.9326
 30
0.0
 11
111.869
 21
73.9316
 31
0.0
  0
LINE
  8
0
 62
     0
 10
111.869
 20
73.9316
 30
0.0
 11
97.8697
 21
73.9316
 31
0.0
  0
LINE
  8
0
 62
     0
 10
78.8211
 20
73.9316
 30
0.0
 11
78.8211
 21
72.9326
 31
0.0
  0
LINE
  8
0
 62
     0
 10
78.8211
 20
72.9326
 30
0.0
 11
78.0203
 21
72.9326
 31
0.0
  0
LINE
  8
0
 62
     0
 10
78.0203
 20
72.9326
 30
0.0
 11
78.0203
 21
69.832
 31
0.0
  0
LINE
  8
0
 62
     0
 10
78.0203
 20
69.832
 30
0.0
 11
78.8211
 21
69.832
 31
0.0
  0
LINE
  8
0
 62
     0
 10
78.8211
 20
69.832
 30
0.0
 11
78.8211
 21
64.032
 31
0.0
  0
LINE
  8
0
 62
     0
 10
78.8211
 20
64.032
 30
0.0
 11
78.0203
 21
64.032
 31
0.0
  0
LINE
  8
0
 62
     0
 10
78.0203
 20
64.032
 30
0.0
 11
78.0203
 21
60.9328
 31
0.0
  0
LINE
  8
0
 62
     0
 10
78.0203
 20
60.9328
 30
0.0
 11
78.8211
 21
60.9328
 31
0.0
  0
LINE
  8
0
 62
     0
 10
78.8211
 20
60.9328
 30
0.0
 11
78.8211
 21
59.9324
 31
0.0
  0
LINE
  8
0
 62
     0
 10
78.8211
 20
59.9324
 30
0.0
 11
92.8204
 21
59.9324
 31
0.0
  0
LINE
  8
0
 62
     0
 10
92.8204
 20
59.9324
 30
0.0
 11
92.8204
 21
60.9328
 31
0.0
  0
LINE
  8
0
 62
     0
 10
92.8204
 20
60.9328
 30
0.0
 11
93.6198
 21
60.9328
 31
0.0
  0
LINE
  8
0
 62
     0
 10
93.6198
 20
60.9328
 30
0.0
 11
93.6198
 21
64.032
 31
0.0
  0
LINE
  8
0
 62
     0
 10
93.6198
 20
64.032
 30
0.0
 11
92.8204
 21
64.032
 31
0.0
  0
LINE
  8
0
 62
     0
 10
92.8204
 20
64.032
 30
0.0
 11
92.8204
 21
69.832
 31
0.0
  0
LINE
  8
0
 62
     0
 10
92.8204
 20
69.832
 30
0.0
 11
93.6198
 21
69.832
 31
0.0
  0
LINE
  8
0
 62
     0
 10
93.6198
 20
69.832
 30
0.0
 11
93.6198
 21
72.9326
 31
0.0
  0
LINE
  8
0
 62
     0
 10
93.6198
 20
72.9326
 30
0.0
 11
92.8204
 21
72.9326
 31
0.0
  0
LINE
  8
0
 62
     0
 10
92.8204
 20
72.9326
 30
0.0
 11
92.8204
 21
73.9316
 31
0.0
  0
LINE
  8
0
 62
     0
 10
92.8204
 20
73.9316
 30
0.0
 11
78.8211
 21
73.9316
 31
0.0
  0
LINE
  8
0
 62
     0
 10
59.7711
 20
73.9316
 30
0.0
 11
59.7711
 21
72.9326
 31
0.0
  0
LINE
  8
0
 62
     0
 10
59.7711
 20
72.9326
 30
0.0
 11
58.9703
 21
72.9326
 31
0.0
  0
LINE
  8
0
 62
     0
 10
58.9703
 20
72.9326
 30
0.0
 11
58.9703
 21
69.832
 31
0.0
  0
LINE
  8
0
 62
     0
 10
58.9703
 20
69.832
 30
0.0
 11
59.7711
 21
69.832
 31
0.0
  0
LINE
  8
0
 62
     0
 10
59.7711
 20
69.832
 30
0.0
 11
59.7711
 21
64.032
 31
0.0
  0
LINE
  8
0
 62
     0
 10
59.7711
 20
64.032
 30
0.0
 11
58.9703
 21
64.032
 31
0.0
  0
LINE
  8
0
 62
     0
 10
58.9703
 20
64.032
 30
0.0
 11
58.9703
 21
60.9328
 31
0.0
  0
LINE
  8
0
 62
     0
 10
58.9703
 20
60.9328
 30
0.0
 11
59.7711
 21
60.9328
 31
0.0
  0
LINE
  8
0
 62
     0
 10
59.7711
 20
60.9328
 30
0.0
 11
59.7711
 21
59.9324
 31
0.0
  0
LINE
  8
0
 62
     0
 10
59.7711
 20
59.9324
 30
0.0
 11
73.7704
 21
59.9324
 31
0.0
  0
LINE
  8
0
 62
     0
 10
73.7704
 20
59.9324
 30
0.0
 11
73.7704
 21
60.9328
 31
0.0
  0
LINE
  8
0
 62
     0
 10
73.7704
 20
60.9328
 30
0.0
 11
74.5712
 21
60.9328
 31
0.0
  0
LINE
  8
0
 62
     0
 10
74.5712
 20
60.9328
 30
0.0
 11
74.5712
 21
64.032
 31
0.0
  0
LINE
  8
0
 62
     0
 10
74.5712
 20
64.032
 30
0.0
 11
73.7704
 21
64.032
 31
0.0
  0
LINE
  8
0
 62
     0
 10
73.7704
 20
64.032
 30
0.0
 11
73.7704
 21
69.832
 31
0.0
  0
LINE
  8
0
 62
     0
 10
73.7704
 20
69.832
 30
0.0
 11
74.5712
 21
69.832
 31
0.0
  0
LINE
  8
0
 62
     0
 10
74.5712
 20
69.832
 30
0.0
 11
74.5712
 21
72.9326
 31
0.0
  0
LINE
  8
0
 62
     0
 10
74.5712
 20
72.9326
 30
0.0
 11
73.7704
 21
72.9326
 31
0.0
  0
LINE
  8
0
 62
     0
 10
73.7704
 20
72.9326
 30
0.0
 11
73.7704
 21
73.9316
 31
0.0
  0
LINE
  8
0
 62
     0
 10
73.7704
 20
73.9316
 30
0.0
 11
59.7711
 21
73.9316
 31
0.0
  0
LINE
  8
0
 62
     0
 10
40.7211
 20
73.9316
 30
0.0
 11
40.7211
 21
72.9326
 31
0.0
  0
LINE
  8
0
 62
     0
 10
40.7211
 20
72.9326
 30
0.0
 11
39.9203
 21
72.9326
 31
0.0
  0
LINE
  8
0
 62
     0
 10
39.9203
 20
72.9326
 30
0.0
 11
39.9203
 21
69.832
 31
0.0
  0
LINE
  8
0
 62
     0
 10
39.9203
 20
69.832
 30
0.0
 11
40.7211
 21
69.832
 31
0.0
  0
LINE
  8
0
 62
     0
 10
40.7211
 20
69.832
 30
0.0
 11
40.7211
 21
64.032
 31
0.0
  0
LINE
  8
0
 62
     0
 10
40.7211
 20
64.032
 30
0.0
 11
39.9203
 21
64.032
 31
0.0
  0
LINE
  8
0
 62
     0
 10
39.9203
 20
64.032
 30
0.0
 11
39.9203
 21
60.9328
 31
0.0
  0
LINE
  8
0
 62
     0
 10
39.9203
 20
60.9328
 30
0.0
 11
40.7211
 21
60.9328
 31
0.0
  0
LINE
  8
0
 62
     0
 10
40.7211
 20
60.9328
 30
0.0
 11
40.7211
 21
59.9324
 31
0.0
  0
LINE
  8
0
 62
     0
 10
40.7211
 20
59.9324
 30
0.0
 11
54.7204
 21
59.9324
 31
0.0
  0
LINE
  8
0
 62
     0
 10
54.7204
 20
59.9324
 30
0.0
 11
54.7204
 21
60.9328
 31
0.0
  0
LINE
  8
0
 62
     0
 10
54.7204
 20
60.9328
 30
0.0
 11
55.5212
 21
60.9328
 31
0.0
  0
LINE
  8
0
 62
     0
 10
55.5212
 20
60.9328
 30
0.0
 11
55.5212
 21
64.032
 31
0.0
  0
LINE
  8
0
 62
     0
 10
55.5212
 20
64.032
 30
0.0
 11
54.7204
 21
64.032
 31
0.0
  0
LINE
  8
0
 62
     0
 10
54.7204
 20
64.032
 30
0.0
 11
54.7204
 21
69.832
 31
0.0
  0
LINE
  8
0
 62
     0
 10
54.7204
 20
69.832
 30
0.0
 11
55.5212
 21
69.832
 31
0.0
  0
LINE
  8
0
 62
     0
 10
55.5212
 20
69.832
 30
0.0
 11
55.5212
 21
72.9326
 31
0.0
  0
LINE
  8
0
 62
     0
 10
55.5212
 20
72.9326
 30
0.0
 11
54.7204
 21
72.9326
 31
0.0
  0
LINE
  8
0
 62
     0
 10
54.7204
 20
72.9326
 30
0.0
 11
54.7204
 21
73.9316
 31
0.0
  0
LINE
  8
0
 62
     0
 10
54.7204
 20
73.9316
 30
0.0
 11
40.7211
 21
73.9316
 31
0.0
  0
LINE
  8
0
 62
     0
 10
21.671
 20
73.9316
 30
0.0
 11
21.671
 21
72.9326
 31
0.0
  0
LINE
  8
0
 62
     0
 10
21.671
 20
72.9326
 30
0.0
 11
20.8704
 21
72.9326
 31
0.0
  0
LINE
  8
0
 62
     0
 10
20.8704
 20
72.9326
 30
0.0
 11
20.8704
 21
69.832
 31
0.0
  0
LINE
  8
0
 62
     0
 10
20.8704
 20
69.832
 30
0.0
 11
21.671
 21
69.832
 31
0.0
  0
LINE
  8
0
 62
     0
 10
21.671
 20
69.832
 30
0.0
 11
21.671
 21
64.032
 31
0.0
  0
LINE
  8
0
 62
     0
 10
21.671
 20
64.032
 30
0.0
 11
20.8704
 21
64.032
 31
0.0
  0
LINE
  8
0
 62
     0
 10
20.8704
 20
64.032
 30
0.0
 11
20.8704
 21
60.9328
 31
0.0
  0
LINE
  8
0
 62
     0
 10
20.8704
 20
60.9328
 30
0.0
 11
21.671
 21
60.9328
 31
0.0
  0
LINE
  8
0
 62
     0
 10
21.671
 20
60.9328
 30
0.0
 11
21.671
 21
59.9324
 31
0.0
  0
LINE
  8
0
 62
     0
 10
21.671
 20
59.9324
 30
0.0
 11
35.6704
 21
59.9324
 31
0.0
  0
LINE
  8
0
 62
     0
 10
35.6704
 20
59.9324
 30
0.0
 11
35.6704
 21
60.9328
 31
0.0
  0
LINE
  8
0
 62
     0
 10
35.6704
 20
60.9328
 30
0.0
 11
36.4712
 21
60.9328
 31
0.0
  0
LINE
  8
0
 62
     0
 10
36.4712
 20
60.9328
 30
0.0
 11
36.4712
 21
64.032
 31
0.0
  0
LINE
  8
0
 62
     0
 10
36.4712
 20
64.032
 30
0.0
 11
35.6704
 21
64.032
 31
0.0
  0
LINE
  8
0
 62
     0
 10
35.6704
 20
64.032
 30
0.0
 11
35.6704
 21
69.832
 31
0.0
  0
LINE
  8
0
 62
     0
 10
35.6704
 20
69.832
 30
0.0
 11
36.4712
 21
69.832
 31
0.0
  0
LINE
  8
0
 62
     0
 10
36.4712
 20
69.832
 30
0.0
 11
36.4712
 21
72.9326
 31
0.0
  0
LINE
  8
0
 62
     0
 10
36.4712
 20
72.9326
 30
0.0
 11
35.6704
 21
72.9326
 31
0.0
  0
LINE
  8
0
 62
     0
 10
35.6704
 20
72.9326
 30
0.0
 11
35.6704
 21
73.9316
 31
0.0
  0
LINE
  8
0
 62
     0
 10
35.6704
 20
73.9316
 30
0.0
 11
21.671
 21
73.9316
 31
0.0
  0
LINE
  8
0
 62
     0
 10
2.62103
 20
73.9316
 30
0.0
 11
2.62103
 21
72.9326
 31
0.0
  0
LINE
  8
0
 62
     0
 10
2.62103
 20
72.9326
 30
0.0
 11
1.82039
 21
72.9326
 31
0.0
  0
LINE
  8
0
 62
     0
 10
1.82039
 20
72.9326
 30
0.0
 11
1.82039
 21
69.832
 31
0.0
  0
LINE
  8
0
 62
     0
 10
1.82039
 20
69.832
 30
0.0
 11
2.62103
 21
69.832
 31
0.0
  0
LINE
  8
0
 62
     0
 10
2.62103
 20
69.832
 30
0.0
 11
2.62103
 21
64.032
 31
0.0
  0
LINE
  8
0
 62
     0
 10
2.62103
 20
64.032
 30
0.0
 11
1.82039
 21
64.032
 31
0.0
  0
LINE
  8
0
 62
     0
 10
1.82039
 20
64.032
 30
0.0
 11
1.82039
 21
60.9328
 31
0.0
  0
LINE
  8
0
 62
     0
 10
1.82039
 20
60.9328
 30
0.0
 11
2.62103
 21
60.9328
 31
0.0
  0
LINE
  8
0
 62
     0
 10
2.62103
 20
60.9328
 30
0.0
 11
2.62103
 21
59.9324
 31
0.0
  0
LINE
  8
0
 62
     0
 10
2.62103
 20
59.9324
 30
0.0
 11
16.6205
 21
59.9324
 31
0.0
  0
LINE
  8
0
 62
     0
 10
16.6205
 20
59.9324
 30
0.0
 11
16.6205
 21
60.9328
 31
0.0
  0
LINE
  8
0
 62
     0
 10
16.6205
 20
60.9328
 30
0.0
 11
17.4212
 21
60.9328
 31
0.0
  0
LINE
  8
0
 62
     0
 10
17.4212
 20
60.9328
 30
0.0
 11
17.4212
 21
64.032
 31
0.0
  0
LINE
  8
0
 62
     0
 10
17.4212
 20
64.032
 30
0.0
 11
16.6205
 21
64.032
 31
0.0
  0
LINE
  8
0
 62
     0
 10
16.6205
 20
64.032
 30
0.0
 11
16.6205
 21
69.832
 31
0.0
  0
LINE
  8
0
 62
     0
 10
16.6205
 20
69.832
 30
0.0
 11
17.4212
 21
69.832
 31
0.0
  0
LINE
  8
0
 62
     0
 10
17.4212
 20
69.832
 30
0.0
 11
17.4212
 21
72.9326
 31
0.0
  0
LINE
  8
0
 62
     0
 10
17.4212
 20
72.9326
 30
0.0
 11
16.6205
 21
72.9326
 31
0.0
  0
LINE
  8
0
 62
     0
 10
16.6205
 20
72.9326
 30
0.0
 11
16.6205
 21
73.9316
 31
0.0
  0
LINE
  8
0
 62
     0
 10
16.6205
 20
73.9316
 30
0.0
 11
2.62103
 21
73.9316
 31
0.0
  0
LINE
  8
0
 62
     0
 10
97.8697
 20
92.9816
 30
0.0
 11
97.8697
 21
91.9826
 31
0.0
  0
LINE
  8
0
 62
     0
 10
97.8697
 20
91.9826
 30
0.0
 11
97.0703
 21
91.9826
 31
0.0
  0
LINE
  8
0
 62
     0
 10
97.0703
 20
91.9826
 30
0.0
 11
97.0703
 21
88.882
 31
0.0
  0
LINE
  8
0
 62
     0
 10
97.0703
 20
88.882
 30
0.0
 11
97.8697
 21
88.882
 31
0.0
  0
LINE
  8
0
 62
     0
 10
97.8697
 20
88.882
 30
0.0
 11
97.8697
 21
83.082
 31
0.0
  0
LINE
  8
0
 62
     0
 10
97.8697
 20
83.082
 30
0.0
 11
97.0703
 21
83.082
 31
0.0
  0
LINE
  8
0
 62
     0
 10
97.0703
 20
83.082
 30
0.0
 11
97.0703
 21
79.9828
 31
0.0
  0
LINE
  8
0
 62
     0
 10
97.0703
 20
79.9828
 30
0.0
 11
97.8697
 21
79.9828
 31
0.0
  0
LINE
  8
0
 62
     0
 10
97.8697
 20
79.9828
 30
0.0
 11
97.8697
 21
78.9824
 31
0.0
  0
LINE
  8
0
 62
     0
 10
97.8697
 20
78.9824
 30
0.0
 11
111.869
 21
78.9824
 31
0.0
  0
LINE
  8
0
 62
     0
 10
111.869
 20
78.9824
 30
0.0
 11
111.869
 21
79.9828
 31
0.0
  0
LINE
  8
0
 62
     0
 10
111.869
 20
79.9828
 30
0.0
 11
112.67
 21
79.9828
 31
0.0
  0
LINE
  8
0
 62
     0
 10
112.67
 20
79.9828
 30
0.0
 11
112.67
 21
83.082
 31
0.0
  0
LINE
  8
0
 62
     0
 10
112.67
 20
83.082
 30
0.0
 11
111.869
 21
83.082
 31
0.0
  0
LINE
  8
0
 62
     0
 10
111.869
 20
83.082
 30
0.0
 11
111.869
 21
88.882
 31
0.0
  0
LINE
  8
0
 62
     0
 10
111.869
 20
88.882
 30
0.0
 11
112.67
 21
88.882
 31
0.0
  0
LINE
  8
0
 62
     0
 10
112.67
 20
88.882
 30
0.0
 11
112.67
 21
91.9826
 31
0.0
  0
LINE
  8
0
 62
     0
 10
112.67
 20
91.9826
 30
0.0
 11
111.869
 21
91.9826
 31
0.0
  0
LINE
  8
0
 62
     0
 10
111.869
 20
91.9826
 30
0.0
 11
111.869
 21
92.9816
 31
0.0
  0
LINE
  8
0
 62
     0
 10
111.869
 20
92.9816
 30
0.0
 11
97.8697
 21
92.9816
 31
0.0
  0
LINE
  8
0
 62
     0
 10
78.8211
 20
92.9816
 30
0.0
 11
78.8211
 21
91.9826
 31
0.0
  0
LINE
  8
0
 62
     0
 10
78.8211
 20
91.9826
 30
0.0
 11
78.0203
 21
91.9826
 31
0.0
  0
LINE
  8
0
 62
     0
 10
78.0203
 20
91.9826
 30
0.0
 11
78.0203
 21
88.882
 31
0.0
  0
LINE
  8
0
 62
     0
 10
78.0203
 20
88.882
 30
0.0
 11
78.8211
 21
88.882
 31
0.0
  0
LINE
  8
0
 62
     0
 10
78.8211
 20
88.882
 30
0.0
 11
78.8211
 21
83.082
 31
0.0
  0
LINE
  8
0
 62
     0
 10
78.8211
 20
83.082
 30
0.0
 11
78.0203
 21
83.082
 31
0.0
  0
LINE
  8
0
 62
     0
 10
78.0203
 20
83.082
 30
0.0
 11
78.0203
 21
79.9828
 31
0.0
  0
LINE
  8
0
 62
     0
 10
78.0203
 20
79.9828
 30
0.0
 11
78.8211
 21
79.9828
 31
0.0
  0
LINE
  8
0
 62
     0
 10
78.8211
 20
79.9828
 30
0.0
 11
78.8211
 21
78.9824
 31
0.0
  0
LINE
  8
0
 62
     0
 10
78.8211
 20
78.9824
 30
0.0
 11
92.8204
 21
78.9824
 31
0.0
  0
LINE
  8
0
 62
     0
 10
92.8204
 20
78.9824
 30
0.0
 11
92.8204
 21
79.9828
 31
0.0
  0
LINE
  8
0
 62
     0
 10
92.8204
 20
79.9828
 30
0.0
 11
93.6198
 21
79.9828
 31
0.0
  0
LINE
  8
0
 62
     0
 10
93.6198
 20
79.9828
 30
0.0
 11
93.6198
 21
83.082
 31
0.0
  0
LINE
  8
0
 62
     0
 10
93.6198
 20
83.082
 30
0.0
 11
92.8204
 21
83.082
 31
0.0
  0
LINE
  8
0
 62
     0
 10
92.8204
 20
83.082
 30
0.0
 11
92.8204
 21
88.882
 31
0.0
  0
LINE
  8
0
 62
     0
 10
92.8204
 20
88.882
 30
0.0
 11
93.6198
 21
88.882
 31
0.0
  0
LINE
  8
0
 62
     0
 10
93.6198
 20
88.882
 30
0.0
 11
93.6198
 21
91.9826
 31
0.0
  0
LINE
  8
0
 62
     0
 10
93.6198
 20
91.9826
 30
0.0
 11
92.8204
 21
91.9826
 31
0.0
  0
LINE
  8
0
 62
     0
 10
92.8204
 20
91.9826
 30
0.0
 11
92.8204
 21
92.9816
 31
0.0
  0
LINE
  8
0
 62
     0
 10
92.8204
 20
92.9816
 30
0.0
 11
78.8211
 21
92.9816
 31
0.0
  0
LINE
  8
0
 62
     0
 10
59.7711
 20
92.9816
 30
0.0
 11
59.7711
 21
91.9826
 31
0.0
  0
LINE
  8
0
 62
     0
 10
59.7711
 20
91.9826
 30
0.0
 11
58.9703
 21
91.9826
 31
0.0
  0
LINE
  8
0
 62
     0
 10
58.9703
 20
91.9826
 30
0.0
 11
58.9703
 21
88.882
 31
0.0
  0
LINE
  8
0
 62
     0
 10
58.9703
 20
88.882
 30
0.0
 11
59.7711
 21
88.882
 31
0.0
  0
LINE
  8
0
 62
     0
 10
59.7711
 20
88.882
 30
0.0
 11
59.7711
 21
83.082
 31
0.0
  0
LINE
  8
0
 62
     0
 10
59.7711
 20
83.082
 30
0.0
 11
58.9703
 21
83.082
 31
0.0
  0
LINE
  8
0
 62
     0
 10
58.9703
 20
83.082
 30
0.0
 11
58.9703
 21
79.9828
 31
0.0
  0
LINE
  8
0
 62
     0
 10
58.9703
 20
79.9828
 30
0.0
 11
59.7711
 21
79.9828
 31
0.0
  0
LINE
  8
0
 62
     0
 10
59.7711
 20
79.9828
 30
0.0
 11
59.7711
 21
78.9824
 31
0.0
  0
LINE
  8
0
 62
     0
 10
59.7711
 20
78.9824
 30
0.0
 11
73.7704
 21
78.9824
 31
0.0
  0
LINE
  8
0
 62
     0
 10
73.7704
 20
78.9824
 30
0.0
 11
73.7704
 21
79.9828
 31
0.0
  0
LINE
  8
0
 62
     0
 10
73.7704
 20
79.9828
 30
0.0
 11
74.5712
 21
79.9828
 31
0.0
  0
LINE
  8
0
 62
     0
 10
74.5712
 20
79.9828
 30
0.0
 11
74.5712
 21
83.082
 31
0.0
  0
LINE
  8
0
 62
     0
 10
74.5712
 20
83.082
 30
0.0
 11
73.7704
 21
83.082
 31
0.0
  0
LINE
  8
0
 62
     0
 10
73.7704
 20
83.082
 30
0.0
 11
73.7704
 21
88.882
 31
0.0
  0
LINE
  8
0
 62
     0
 10
73.7704
 20
88.882
 30
0.0
 11
74.5712
 21
88.882
 31
0.0
  0
LINE
  8
0
 62
     0
 10
74.5712
 20
88.882
 30
0.0
 11
74.5712
 21
91.9826
 31
0.0
  0
LINE
  8
0
 62
     0
 10
74.5712
 20
91.9826
 30
0.0
 11
73.7704
 21
91.9826
 31
0.0
  0
LINE
  8
0
 62
     0
 10
73.7704
 20
91.9826
 30
0.0
 11
73.7704
 21
92.9816
 31
0.0
  0
LINE
  8
0
 62
     0
 10
73.7704
 20
92.9816
 30
0.0
 11
59.7711
 21
92.9816
 31
0.0
  0
LINE
  8
0
 62
     0
 10
40.7211
 20
92.9816
 30
0.0
 11
40.7211
 21
91.9826
 31
0.0
  0
LINE
  8
0
 62
     0
 10
40.7211
 20
91.9826
 30
0.0
 11
39.9203
 21
91.9826
 31
0.0
  0
LINE
  8
0
 62
     0
 10
39.9203
 20
91.9826
 30
0.0
 11
39.9203
 21
88.882
 31
0.0
  0
LINE
  8
0
 62
     0
 10
39.9203
 20
88.882
 30
0.0
 11
40.7211
 21
88.882
 31
0.0
  0
LINE
  8
0
 62
     0
 10
40.7211
 20
88.882
 30
0.0
 11
40.7211
 21
83.082
 31
0.0
  0
LINE
  8
0
 62
     0
 10
40.7211
 20
83.082
 30
0.0
 11
39.9203
 21
83.082
 31
0.0
  0
LINE
  8
0
 62
     0
 10
39.9203
 20
83.082
 30
0.0
 11
39.9203
 21
79.9828
 31
0.0
  0
LINE
  8
0
 62
     0
 10
39.9203
 20
79.9828
 30
0.0
 11
40.7211
 21
79.9828
 31
0.0
  0
LINE
  8
0
 62
     0
 10
40.7211
 20
79.9828
 30
0.0
 11
40.7211
 21
78.9824
 31
0.0
  0
LINE
  8
0
 62
     0
 10
40.7211
 20
78.9824
 30
0.0
 11
54.7204
 21
78.9824
 31
0.0
  0
LINE
  8
0
 62
     0
 10
54.7204
 20
78.9824
 30
0.0
 11
54.7204
 21
79.9828
 31
0.0
  0
LINE
  8
0
 62
     0
 10
54.7204
 20
79.9828
 30
0.0
 11
55.5212
 21
79.9828
 31
0.0
  0
LINE
  8
0
 62
     0
 10
55.5212
 20
79.9828
 30
0.0
 11
55.5212
 21
83.082
 31
0.0
  0
LINE
  8
0
 62
     0
 10
55.5212
 20
83.082
 30
0.0
 11
54.7204
 21
83.082
 31
0.0
  0
LINE
  8
0
 62
     0
 10
54.7204
 20
83.082
 30
0.0
 11
54.7204
 21
88.882
 31
0.0
  0
LINE
  8
0
 62
     0
 10
54.7204
 20
88.882
 30
0.0
 11
55.5212
 21
88.882
 31
0.0
  0
LINE
  8
0
 62
     0
 10
55.5212
 20
88.882
 30
0.0
 11
55.5212
 21
91.9826
 31
0.0
  0
LINE
  8
0
 62
     0
 10
55.5212
 20
91.9826
 30
0.0
 11
54.7204
 21
91.9826
 31
0.0
  0
LINE
  8
0
 62
     0
 10
54.7204
 20
91.9826
 30
0.0
 11
54.7204
 21
92.9816
 31
0.0
  0
LINE
  8
0
 62
     0
 10
54.7204
 20
92.9816
 30
0.0
 11
40.7211
 21
92.9816
 31
0.0
  0
LINE
  8
0
 62
     0
 10
21.671
 20
92.9816
 30
0.0
 11
21.671
 21
91.9826
 31
0.0
  0
LINE
  8
0
 62
     0
 10
21.671
 20
91.9826
 30
0.0
 11
20.8704
 21
91.9826
 31
0.0
  0
LINE
  8
0
 62
     0
 10
20.8704
 20
91.9826
 30
0.0
 11
20.8704
 21
88.882
 31
0.0
  0
LINE
  8
0
 62
     0
 10
20.8704
 20
88.882
 30
0.0
 11
21.671
 21
88.882
 31
0.0
  0
LINE
  8
0
 62
     0
 10
21.671
 20
88.882
 30
0.0
 11
21.671
 21
83.082
 31
0.0
  0
LINE
  8
0
 62
     0
 10
21.671
 20
83.082
 30
0.0
 11
20.8704
 21
83.082
 31
0.0
  0
LINE
  8
0
 62
     0
 10
20.8704
 20
83.082
 30
0.0
 11
20.8704
 21
79.9828
 31
0.0
  0
LINE
  8
0
 62
     0
 10
20.8704
 20
79.9828
 30
0.0
 11
21.671
 21
79.9828
 31
0.0
  0
LINE
  8
0
 62
     0
 10
21.671
 20
79.9828
 30
0.0
 11
21.671
 21
78.9824
 31
0.0
  0
LINE
  8
0
 62
     0
 10
21.671
 20
78.9824
 30
0.0
 11
35.6704
 21
78.9824
 31
0.0
  0
LINE
  8
0
 62
     0
 10
35.6704
 20
78.9824
 30
0.0
 11
35.6704
 21
79.9828
 31
0.0
  0
LINE
  8
0
 62
     0
 10
35.6704
 20
79.9828
 30
0.0
 11
36.4712
 21
79.9828
 31
0.0
  0
LINE
  8
0
 62
     0
 10
36.4712
 20
79.9828
 30
0.0
 11
36.4712
 21
83.082
 31
0.0
  0
LINE
  8
0
 62
     0
 10
36.4712
 20
83.082
 30
0.0
 11
35.6704
 21
83.082
 31
0.0
  0
LINE
  8
0
 62
     0
 10
35.6704
 20
83.082
 30
0.0
 11
35.6704
 21
88.882
 31
0.0
  0
LINE
  8
0
 62
     0
 10
35.6704
 20
88.882
 30
0.0
 11
36.4712
 21
88.882
 31
0.0
  0
LINE
  8
0
 62
     0
 10
36.4712
 20
88.882
 30
0.0
 11
36.4712
 21
91.9826
 31
0.0
  0
LINE
  8
0
 62
     0
 10
36.4712
 20
91.9826
 30
0.0
 11
35.6704
 21
91.9826
 31
0.0
  0
LINE
  8
0
 62
     0
 10
35.6704
 20
91.9826
 30
0.0
 11
35.6704
 21
92.9816
 31
0.0
  0
LINE
  8
0
 62
     0
 10
35.6704
 20
92.9816
 30
0.0
 11
21.671
 21
92.9816
 31
0.0
  0
LINE
  8
0
 62
     0
 10
2.62103
 20
92.9816
 30
0.0
 11
2.62103
 21
91.9826
 31
0.0
  0
LINE
  8
0
 62
     0
 10
2.62103
 20
91.9826
 30
0.0
 11
1.82039
 21
91.9826
 31
0.0
  0
LINE
  8
0
 62
     0
 10
1.82039
 20
91.9826
 30
0.0
 11
1.82039
 21
88.882
 31
0.0
  0
LINE
  8
0
 62
     0
 10
1.82039
 20
88.882
 30
0.0
 11
2.62103
 21
88.882
 31
0.0
  0
LINE
  8
0
 62
     0
 10
2.62103
 20
88.882
 30
0.0
 11
2.62103
 21
83.082
 31
0.0
  0
LINE
  8
0
 62
     0
 10
2.62103
 20
83.082
 30
0.0
 11
1.82039
 21
83.082
 31
0.0
  0
LINE
  8
0
 62
     0
 10
1.82039
 20
83.082
 30
0.0
 11
1.82039
 21
79.9828
 31
0.0
  0
LINE
  8
0
 62
     0
 10
1.82039
 20
79.9828
 30
0.0
 11
2.62103
 21
79.9828
 31
0.0
  0
LINE
  8
0
 62
     0
 10
2.62103
 20
79.9828
 30
0.0
 11
2.62103
 21
78.9824
 31
0.0
  0
LINE
  8
0
 62
     0
 10
2.62103
 20
78.9824
 30
0.0
 11
16.6205
 21
78.9824
 31
0.0
  0
LINE
  8
0
 62
     0
 10
16.6205
 20
78.9824
 30
0.0
 11
16.6205
 21
79.9828
 31
0.0
  0
LINE
  8
0
 62
     0
 10
16.6205
 20
79.9828
 30
0.0
 11
17.4212
 21
79.9828
 31
0.0
  0
LINE
  8
0
 62
     0
 10
17.4212
 20
79.9828
 30
0.0
 11
17.4212
 21
83.082
 31
0.0
  0
LINE
  8
0
 62
     0
 10
17.4212
 20
83.082
 30
0.0
 11
16.6205
 21
83.082
 31
0.0
  0
LINE
  8
0
 62
     0
 10
16.6205
 20
83.082
 30
0.0
 11
16.6205
 21
88.882
 31
0.0
  0
LINE
  8
0
 62
     0
 10
16.6205
 20
88.882
 30
0.0
 11
17.4212
 21
88.882
 31
0.0
  0
LINE
  8
0
 62
     0
 10
17.4212
 20
88.882
 30
0.0
 11
17.4212
 21
91.9826
 31
0.0
  0
LINE
  8
0
 62
     0
 10
17.4212
 20
91.9826
 30
0.0
 11
16.6205
 21
91.9826
 31
0.0
  0
LINE
  8
0
 62
     0
 10
16.6205
 20
91.9826
 30
0.0
 11
16.6205
 21
92.9816
 31
0.0
  0
LINE
  8
0
 62
     0
 10
16.6205
 20
92.9816
 30
0.0
 11
2.62103
 21
92.9816
 31
0.0
  0
ENDSEC
  0
EOF
